SplineFontDB: 3.2
FontName: ClockFace
FullName: ClockFace
FamilyName: ClockFace
Weight: Book
Copyright: ClockFace (c) 2022 J.L.Milkins / ocodo
Version: 1.0
ItalicAngle: 0
UnderlinePosition: 10
UnderlineWidth: 0
Ascent: 850
Descent: 150
InvalidEm: 0
sfntRevision: 0x00010000
LayerCount: 2
Layer: 0 1 "Back" 1
Layer: 1 1 "Fore" 0
XUID: [1021 184 -1512535190 15454116]
StyleMap: 0x0040
FSType: 0
OS2Version: 4
OS2_WeightWidthSlopeOnly: 0
OS2_UseTypoMetrics: 1
CreationTime: 1663473623
ModificationTime: 1663474830
PfmFamily: 17
TTFWeight: 400
TTFWidth: 5
LineGap: 0
VLineGap: 0
Panose: 2 0 5 3 0 0 0 0 0 0
OS2TypoAscent: 850
OS2TypoAOffset: 0
OS2TypoDescent: -150
OS2TypoDOffset: 0
OS2TypoLinegap: 90
OS2WinAscent: 940
OS2WinAOffset: 0
OS2WinDescent: 150
OS2WinDOffset: 0
HheadAscent: 850
HheadAOffset: 0
HheadDescent: -150
HheadDOffset: 0
OS2SubXSize: 634
OS2SubYSize: 700
OS2SubXOff: 0
OS2SubYOff: 140
OS2SupXSize: 634
OS2SupYSize: 700
OS2SupXOff: 0
OS2SupYOff: 480
OS2StrikeYSize: 49
OS2StrikeYPos: 258
OS2Vendor: 'PfEd'
OS2CodePages: 00000001.00000000
OS2UnicodeRanges: 00000000.00000000.00000000.00000000
Lookup: 4 0 1 "'liga' Standard Ligatures in Latin lookup 0" { "'liga' Standard Ligatures in Latin lookup 0 subtable"  } [' RQD' ('DFLT' <'dflt' > 'latn' <'dflt' > ) 'liga' ('DFLT' <'dflt' > 'latn' <'dflt' > ) ]
MarkAttachClasses: 1
DEI: 91125
TtTable: prep
SVTCA[y-axis]
MPPEM
PUSHW_1
 200
GT
IF
PUSHB_2
 1
 1
INSTCTRL
EIF
PUSHB_1
 1
PUSHW_2
 2048
 2048
MUL
WCVTF
PUSHB_2
 0
 7
WS
PUSHB_2
 0
 0
LOOPCALL
PUSHB_2
 0
 7
WS
PUSHB_2
 0
 10
LOOPCALL
PUSHB_2
 0
 7
WS
PUSHB_2
 0
 10
LOOPCALL
PUSHB_2
 0
 7
WS
PUSHW_2
 0
 11
LOOPCALL
PUSHB_2
 0
 7
WS
PUSHW_2
 0
 11
LOOPCALL
PUSHW_2
 3
 0
WCVTP
PUSHB_2
 36
 1
GETINFO
LTEQ
IF
PUSHB_1
 64
GETINFO
IF
PUSHW_2
 3
 100
WCVTP
PUSHB_2
 40
 1
GETINFO
LTEQ
IF
PUSHW_1
 2048
GETINFO
IF
PUSHW_2
 3
 0
WCVTP
EIF
ELSE
PUSHB_2
 39
 1
GETINFO
LTEQ
IF
PUSHW_3
 2176
 1
 1088
GETINFO
MUL
EQ
IF
PUSHW_2
 3
 0
WCVTP
EIF
EIF
EIF
EIF
EIF
PUSHB_2
 0
 14
LOOPCALL
PUSHW_1

StartChar: 00:00
Encoding: 59392 59392 1
Width: 1100
VWidth: 834
GlyphClass: 1
Flags: W
LayerCount: 2
Fore
SplineSet
550 -52 m 256,0,1
 447 -52 447 -52 359 0 c 0,2,3
 274 50 274 50 224 135 c 0,4,5
 172 223 172 223 172 326 c 128,-1,6
 172 429 172 429 224 517 c 0,7,8
 274 602 274 602 359 652 c 0,9,10
 447 704 447 704 550 704 c 128,-1,11
 653 704 653 704 741 652 c 0,12,13
 826 602 826 602 876 517 c 0,14,15
 928 429 928 429 928 326 c 128,-1,16
 928 223 928 223 876 135 c 0,17,18
 826 50 826 50 741 0 c 0,19,20
 653 -52 653 -52 550 -52 c 256,0,1
550 20 m 0,21,22
 633 20 633 20 703 61.5 c 128,-1,23
 773 103 773 103 814.5 173 c 128,-1,24
 856 243 856 243 856 326 c 128,-1,25
 856 409 856 409 814.5 479 c 128,-1,26
 773 549 773 549 703 590.5 c 128,-1,27
 633 632 633 632 550 632 c 128,-1,28
 467 632 467 632 397 590.5 c 128,-1,29
 327 549 327 549 285.5 479 c 128,-1,30
 244 409 244 409 244 326 c 2,31,-1
 244 310 l 2,32,33
 248 230 248 230 290 163.5 c 128,-1,34
 332 97 332 97 401 58.5 c 128,-1,35
 470 20 470 20 550 20 c 0,21,22
550 290 m 2,36,37
 545 290 545 290 542 291 c 2,38,-1
 533 295 l 1,39,-1
 526 300 l 1,40,-1
 520 307 l 1,41,-1
 515 318 l 2,42,43
 514 322 514 322 514 326 c 2,44,-1
 514 566 l 2,45,46
 514 580 514 580 525 591 c 128,-1,47
 536 602 536 602 550 602 c 128,-1,48
 564 602 564 602 575 591 c 128,-1,49
 586 580 586 580 586 566 c 2,50,-1
 586 320 l 1,51,-1
 585 319 l 1,52,-1
 585 316 l 1,53,-1
 584 314 l 1,54,-1
 584 313 l 1,55,-1
 582 312 l 1,56,-1
 582 310 l 1,57,-1
 580 306 l 1,58,-1
 578 303 l 1,59,-1
 578 302 l 1,60,-1
 576 301 l 1,61,-1
 575 301 l 1,62,-1
 574 298 l 1,63,-1
 573 298 l 1,64,-1
 570 296 l 1,65,-1
 566 294 l 1,66,-1
 564 294 l 1,67,-1
 563 292 l 1,68,-1
 562 292 l 1,69,-1
 560 291 l 1,70,-1
 557 291 l 1,71,-1
 556 290 l 1,72,-1
 550 290 l 2,36,37
EndSplineSet
EndChar

StartChar: 00:05
Encoding: 59393 59393 2
Width: 1100
VWidth: 834
GlyphClass: 1
Flags: W
LayerCount: 2
Fore
SplineSet
550 -52 m 0,0,1
 545 -52 545 -52 540 -52 c 2,2,-1
 519 -51 l 2,3,4
 515 -50 515 -50 506 -50 c 2,5,-1
 488 -47 l 2,6,7
 486 -46 486 -46 480 -46 c 0,8,9
 473 -44 473 -44 470 -44 c 2,10,-1
 461 -41 l 2,11,12
 457 -41 457 -41 453 -39 c 2,13,-1
 424 -30 l 1,14,-1
 406 -23 l 2,15,16
 404 -23 404 -23 401 -21 c 2,17,-1
 388 -16 l 1,18,-1
 371 -6 l 2,19,20
 370 -6 370 -6 369 -5 c 2,21,-1
 362 -2 l 1,22,23
 276 48 276 48 227 130 c 0,24,25
 225 135 225 135 222 138 c 2,26,-1
 219 145 l 2,27,28
 172 229 172 229 172 326 c 2,29,-1
 172 336 l 1,30,-1
 173 357 l 2,31,32
 174 362 174 362 174 370 c 2,33,-1
 177 388 l 2,34,35
 178 390 178 390 178 396 c 0,36,37
 180 403 180 403 180 406 c 2,38,-1
 183 415 l 2,39,40
 183 417 183 417 185 424 c 2,41,-1
 196 458 l 2,42,43
 197 460 197 460 198 465 c 2,44,-1
 201 470 l 2,45,46
 201 472 201 472 203 475 c 2,47,-1
 208 488 l 1,48,-1
 218 505 l 2,49,50
 218 506 218 506 219 507 c 2,51,-1
 222 516 l 1,52,53
 272 601 272 601 354 649 c 2,54,-1
 369 657 l 2,55,56
 453 704 453 704 550 704 c 2,57,-1
 560 704 l 1,58,-1
 581 703 l 1,59,-1
 612 699 l 2,60,61
 614 698 614 698 620 698 c 0,62,63
 627 696 627 696 630 696 c 2,64,-1
 639 693 l 2,65,66
 641 693 641 693 648 691 c 0,67,68
 652 691 652 691 657 688 c 2,69,-1
 682 680 l 2,70,71
 689 678 689 678 694 675 c 0,72,73
 696 675 696 675 699 673 c 2,74,-1
 712 668 l 1,75,-1
 729 658 l 2,76,77
 730 658 730 658 731 657 c 2,78,-1
 740 654 l 1,79,80
 824 604 824 604 873 523 c 1,81,-1
 881 507 l 2,82,83
 928 423 928 423 928 326 c 2,84,-1
 928 316 l 1,85,-1
 927 295 l 1,86,-1
 923 264 l 2,87,88
 922 262 922 262 922 256 c 0,89,90
 920 249 920 249 920 246 c 2,91,-1
 917 237 l 2,92,93
 917 233 917 233 916 228.5 c 128,-1,94
 915 224 915 224 912 219 c 2,95,-1
 903 192 l 2,96,97
 902 185 902 185 900.5 182.5 c 128,-1,98
 899 180 899 180 897 177 c 2,99,-1
 892 164 l 1,100,-1
 882 147 l 2,101,102
 882 146 882 146 881 145 c 2,103,-1
 878 138 l 1,104,105
 828 53 828 53 747 3 c 1,106,-1
 744 2 l 2,107,108
 740 1 740 1 738 -2 c 2,109,-1
 731 -5 l 2,110,111
 647 -52 647 -52 550 -52 c 0,0,1
550 20 m 0,112,113
 611 20 611 20 668 43 c 0,114,115
 669 44 669 44 670 44 c 2,116,-1
 696 57 l 2,117,118
 701 59 701 59 702 61 c 2,119,-1
 710 64 l 1,120,-1
 735 81 l 2,121,122
 735 82 735 82 736 82 c 1,123,-1
 736 82 l 1,124,125
 784 118 784 118 815 174 c 0,126,127
 832 202 832 202 840 229 c 2,128,-1
 844 241 l 2,129,130
 845 243 845 243 845 247 c 2,131,-1
 848 253 l 2,132,133
 848 257 848 257 850 264 c 2,134,-1
 850 265 l 1,135,136
 856 299 856 299 856 326 c 0,137,138
 856 387 856 387 833 444 c 0,139,140
 832 445 832 445 832 446 c 2,141,-1
 821 468 l 2,142,143
 821 470 821 470 818.5 473.5 c 128,-1,144
 816 477 816 477 815 478 c 2,145,-1
 812 486 l 1,146,-1
 808 490 l 2,147,148
 806 495 806 495 803 498 c 2,149,-1
 795 511 l 2,150,151
 794 511 794 511 794 512 c 1,152,-1
 794 512 l 1,153,154
 758 559 758 559 704 591 c 0,155,156
 674 608 674 608 647 616 c 2,157,-1
 635 620 l 2,158,159
 633 621 633 621 629 621 c 2,160,-1
 623 624 l 2,161,162
 619 624 619 624 612 626 c 2,163,-1
 611 626 l 1,164,165
 577 632 577 632 550 632 c 0,166,167
 490 632 490 632 432 609 c 0,168,169
 432 608 432 608 430 608 c 2,170,-1
 408 597 l 2,171,172
 406 597 406 597 402.5 594.5 c 128,-1,173
 399 592 399 592 398 591 c 2,174,-1
 390 588 l 1,175,-1
 386 584 l 2,176,177
 381 582 381 582 378 579 c 2,178,-1
 365 571 l 2,179,180
 365 570 365 570 364 570 c 0,181,182
 317 534 317 534 285 480 c 0,183,184
 268 450 268 450 260 423 c 2,185,-1
 256 411 l 1,186,-1
 255 405 l 1,187,-1
 252 399 l 2,188,189
 252 395 252 395 250 388 c 2,190,-1
 250 387 l 1,191,192
 244 353 244 353 244 326 c 2,193,-1
 244 310 l 2,194,195
 248 258 248 258 267 208 c 0,196,197
 268 208 268 208 268 206 c 2,198,-1
 281 180 l 2,199,200
 283 175 283 175 285 174 c 2,201,-1
 288 166 l 1,202,-1
 305 141 l 2,203,204
 306 141 306 141 306 140 c 0,205,206
 342 92 342 92 398 61 c 0,207,208
 426 44 426 44 453 36 c 2,209,-1
 465 32 l 1,210,-1
 471 31 l 1,211,-1
 477 28 l 2,212,213
 481 28 481 28 488 26 c 2,214,-1
 489 26 l 1,215,216
 522 20 522 20 550 20 c 0,112,113
550 290 m 256,217,218
 545 290 545 290 542 291 c 2,219,-1
 533 295 l 1,220,-1
 532 295 l 1,221,-1
 526 300 l 1,222,-1
 520 307 l 1,223,-1
 515 318 l 2,224,225
 514 322 514 322 514 326 c 2,226,-1
 514 482 l 2,227,228
 514 496 514 496 525 507 c 128,-1,229
 536 518 536 518 550 518 c 128,-1,230
 564 518 564 518 575 507 c 128,-1,231
 586 496 586 496 586 482 c 2,232,-1
 586 460 l 1,233,-1
 639 552 l 2,234,235
 646 565 646 565 660.5 568.5 c 128,-1,236
 675 572 675 572 688 565 c 128,-1,237
 701 558 701 558 704.5 543.5 c 128,-1,238
 708 529 708 529 701 516 c 2,239,-1
 581 308 l 2,240,241
 579 304 579 304 575 301 c 1,242,-1
 575 301 l 1,243,244
 571 297 571 297 567.5 294.5 c 128,-1,245
 564 292 564 292 560 291 c 1,246,-1
 560 291 l 1,247,248
 555 290 555 290 550 290 c 256,217,218
EndSplineSet
EndChar

StartChar: 00:10
Encoding: 59394 59394 3
Width: 1100
VWidth: 834
GlyphClass: 1
Flags: W
LayerCount: 2
Fore
SplineSet
550 -52 m 2,0,1
 453 -52 453 -52 369 -5 c 2,2,-1
 362 -2 l 2,3,4
 360 0 360 0 354 3 c 0,5,6
 272 51 272 51 222 138 c 1,7,-1
 219 145 l 2,8,9
 218 146 218 146 218 147 c 2,10,-1
 208 164 l 1,11,-1
 203 177 l 2,12,13
 201 179 201 179 201 182 c 2,14,-1
 190 211 l 1,15,-1
 185 229 l 2,16,17
 183 234 183 234 183 237 c 2,18,-1
 180 246 l 2,19,20
 180 250 180 250 178 256 c 0,21,22
 178 261 178 261 177 264 c 2,23,-1
 174 282 l 2,24,25
 174 292 174 292 173 295 c 2,26,-1
 172 315 l 1,27,-1
 172 326 l 2,28,29
 172 423 172 423 219 507 c 2,30,-1
 222 514 l 2,31,32
 224 516 224 516 226 520 c 2,33,-1
 227 523 l 1,34,35
 276 603 276 603 362 654 c 1,36,-1
 369 657 l 2,37,38
 370 658 370 658 371 658 c 2,39,-1
 388 668 l 1,40,-1
 401 673 l 2,41,42
 403 675 403 675 405.5 676.5 c 128,-1,43
 408 678 408 678 416 679 c 2,44,-1
 443 688 l 2,45,46
 448 690 448 690 453 691.5 c 128,-1,47
 458 693 458 693 461 693 c 2,48,-1
 470 696 l 2,49,50
 474 696 474 696 480 698 c 0,51,52
 485 698 485 698 488 699 c 2,53,-1
 539 704 l 1,54,-1
 550 704 l 2,55,56
 647 704 647 704 731 657 c 2,57,-1
 747 649 l 1,58,59
 827 600 827 600 878 516 c 1,60,-1
 881 507 l 2,61,62
 882 506 882 506 882 505 c 2,63,-1
 892 488 l 1,64,-1
 897 475 l 2,65,66
 899 473 899 473 899 470 c 0,67,68
 901 465 901 465 904 458 c 2,69,-1
 912 433 l 2,70,71
 914 428 914 428 915 424 c 0,72,73
 917 417 917 417 917 415 c 2,74,-1
 920 406 l 2,75,76
 920 402 920 402 922 396 c 0,77,78
 922 391 922 391 923 388 c 2,79,-1
 928 338 l 1,80,-1
 928 326 l 2,81,82
 928 229 928 229 881 145 c 2,83,-1
 878 138 l 1,84,-1
 873 130 l 1,85,86
 825 48 825 48 740 -2 c 1,87,-1
 731 -5 l 2,88,89
 730 -6 730 -6 729 -6 c 2,90,-1
 712 -16 l 1,91,-1
 699 -21 l 2,92,93
 697 -23 697 -23 694 -23 c 2,94,-1
 689 -26 l 2,95,96
 684 -27 684 -27 682 -28 c 2,97,-1
 648 -39 l 2,98,99
 641 -41 641 -41 639 -41 c 2,100,-1
 630 -44 l 2,101,102
 626 -44 626 -44 620 -46 c 0,103,104
 615 -46 615 -46 612 -47 c 2,105,-1
 594 -50 l 2,106,107
 586 -50 586 -50 581 -51 c 2,108,-1
 562 -52 l 1,109,-1
 550 -52 l 2,0,1
550 20 m 0,110,111
 578 20 578 20 611 26 c 1,112,-1
 612 26 l 2,113,114
 619 28 619 28 623 28 c 2,115,-1
 647 36 l 2,116,117
 673 44 673 44 704 61 c 0,118,119
 758 93 758 93 794 140 c 0,120,121
 794 141 794 141 795 141 c 2,122,-1
 803 154 l 2,123,124
 805 156 805 156 808 162 c 2,125,-1
 812 166 l 1,126,-1
 815 174 l 2,127,128
 816 175 816 175 818.5 178.5 c 128,-1,129
 821 182 821 182 821 184 c 2,130,-1
 832 206 l 2,131,132
 832 208 832 208 833 208 c 0,133,134
 856 266 856 266 856 326 c 0,135,136
 856 354 856 354 850 387 c 1,137,-1
 850 388 l 2,138,139
 848 395 848 395 848 399 c 2,140,-1
 845 405 l 2,141,142
 845 409 845 409 844 411 c 2,143,-1
 840 423 l 2,144,145
 832 449 832 449 815 480 c 0,146,147
 783 534 783 534 736 570 c 1,148,-1
 736 570 l 1,149,150
 735 570 735 570 735 571 c 2,151,-1
 722 579 l 2,152,153
 720 581 720 581 714 584 c 2,154,-1
 710 588 l 1,155,-1
 702 591 l 2,156,157
 701 592 701 592 697.5 594.5 c 128,-1,158
 694 597 694 597 692 597 c 2,159,-1
 670 608 l 2,160,161
 669 608 669 608 668 609 c 0,162,163
 612 632 612 632 550 632 c 0,164,165
 522 632 522 632 489 626 c 1,166,-1
 488 626 l 2,167,168
 481 624 481 624 477 624 c 2,169,-1
 471 621 l 2,170,171
 467 621 467 621 465 620 c 2,172,-1
 453 616 l 2,173,174
 425 608 425 608 398 591 c 0,175,176
 343 560 343 560 306 512 c 1,177,-1
 306 512 l 1,178,179
 306 511 306 511 305 511 c 2,180,-1
 288 486 l 1,181,-1
 285 478 l 2,182,183
 284 477 284 477 281 472 c 2,184,-1
 268 446 l 2,185,186
 268 445 268 445 267 444 c 0,187,188
 244 388 244 388 244 326 c 2,189,-1
 244 310 l 2,190,191
 245 292 245 292 250 265 c 1,192,-1
 250 264 l 2,193,194
 252 257 252 257 252 253 c 2,195,-1
 260 229 l 2,196,197
 268 201 268 201 285 174 c 0,198,199
 316 119 316 119 364 82 c 0,200,201
 365 82 365 82 365 81 c 2,202,-1
 390 64 l 1,203,-1
 398 61 l 2,204,205
 399 60 399 60 404 57 c 2,206,-1
 430 44 l 2,207,208
 432 44 432 44 432 43 c 0,209,210
 490 20 490 20 550 20 c 0,110,111
550 290 m 256,211,212
 545 290 545 290 542 291 c 2,213,-1
 533 295 l 1,214,-1
 526 300 l 1,215,-1
 519 308 l 1,216,-1
 519 309 l 1,217,-1
 515 318 l 2,218,219
 514 322 514 322 514 326 c 2,220,-1
 514 482 l 2,221,222
 514 496 514 496 525 507 c 128,-1,223
 536 518 536 518 550 518 c 128,-1,224
 564 518 564 518 575 507 c 128,-1,225
 586 496 586 496 586 482 c 2,226,-1
 586 388 l 1,227,-1
 740 477 l 2,228,229
 753 484 753 484 767.5 480.5 c 128,-1,230
 782 477 782 477 789 464 c 128,-1,231
 796 451 796 451 792.5 436.5 c 128,-1,232
 789 422 789 422 776 415 c 2,233,-1
 568 295 l 2,234,235
 564 293 564 293 560 291 c 1,236,-1
 560 291 l 1,237,238
 555 290 555 290 550 290 c 256,211,212
EndSplineSet
EndChar

StartChar: 00:15
Encoding: 59395 59395 4
Width: 1100
VWidth: 834
GlyphClass: 1
Flags: W
LayerCount: 2
Fore
SplineSet
550 -52 m 256,0,1
 447 -52 447 -52 359 0 c 0,2,3
 274 50 274 50 224 135 c 0,4,5
 172 223 172 223 172 326 c 128,-1,6
 172 429 172 429 224 517 c 0,7,8
 274 602 274 602 359 652 c 0,9,10
 447 704 447 704 550 704 c 128,-1,11
 653 704 653 704 741 652 c 0,12,13
 826 602 826 602 876 517 c 0,14,15
 928 429 928 429 928 326 c 128,-1,16
 928 223 928 223 876 135 c 0,17,18
 826 50 826 50 741 0 c 0,19,20
 653 -52 653 -52 550 -52 c 256,0,1
550 20 m 0,21,22
 633 20 633 20 703 61.5 c 128,-1,23
 773 103 773 103 814.5 173 c 128,-1,24
 856 243 856 243 856 326 c 128,-1,25
 856 409 856 409 814.5 479 c 128,-1,26
 773 549 773 549 703 590.5 c 128,-1,27
 633 632 633 632 550 632 c 128,-1,28
 467 632 467 632 397 590.5 c 128,-1,29
 327 549 327 549 285.5 479 c 128,-1,30
 244 409 244 409 244 326 c 2,31,-1
 244 310 l 2,32,33
 248 230 248 230 290 163.5 c 128,-1,34
 332 97 332 97 401 58.5 c 128,-1,35
 470 20 470 20 550 20 c 0,21,22
550 290 m 2,36,37
 545 290 545 290 542 291 c 2,38,-1
 533 295 l 1,39,-1
 526 300 l 1,40,-1
 520 307 l 1,41,-1
 515 318 l 2,42,43
 514 322 514 322 514 326 c 2,44,-1
 514 482 l 2,45,46
 514 496 514 496 525 507 c 128,-1,47
 536 518 536 518 550 518 c 128,-1,48
 564 518 564 518 575 507 c 128,-1,49
 586 496 586 496 586 482 c 2,50,-1
 586 362 l 1,51,-1
 790 362 l 2,52,53
 804 362 804 362 815 351 c 128,-1,54
 826 340 826 340 826 326 c 128,-1,55
 826 312 826 312 815 301 c 128,-1,56
 804 290 804 290 790 290 c 2,57,-1
 550 290 l 2,36,37
EndSplineSet
EndChar

StartChar: 00:20
Encoding: 59396 59396 5
Width: 1100
VWidth: 834
GlyphClass: 1
Flags: W
LayerCount: 2
Fore
SplineSet
550 -52 m 0,0,1
 545 -52 545 -52 540 -52 c 2,2,-1
 519 -51 l 2,3,4
 515 -50 515 -50 506 -50 c 2,5,-1
 488 -47 l 2,6,7
 486 -46 486 -46 480 -46 c 0,8,9
 473 -44 473 -44 470 -44 c 2,10,-1
 461 -41 l 2,11,12
 457 -41 457 -41 453 -39 c 2,13,-1
 424 -30 l 1,14,-1
 406 -23 l 2,15,16
 404 -23 404 -23 401 -21 c 2,17,-1
 388 -16 l 1,18,-1
 371 -6 l 2,19,20
 370 -6 370 -6 369 -5 c 2,21,-1
 362 -2 l 1,22,23
 276 48 276 48 227 130 c 0,24,25
 225 135 225 135 222 138 c 2,26,-1
 219 145 l 2,27,28
 172 229 172 229 172 326 c 2,29,-1
 172 336 l 1,30,-1
 173 357 l 2,31,32
 174 362 174 362 174 370 c 2,33,-1
 177 388 l 2,34,35
 178 390 178 390 178 396 c 0,36,37
 180 403 180 403 180 406 c 2,38,-1
 183 415 l 2,39,40
 183 417 183 417 185 424 c 2,41,-1
 196 458 l 2,42,43
 197 460 197 460 198 465 c 2,44,-1
 201 470 l 2,45,46
 201 472 201 472 203 475 c 2,47,-1
 208 488 l 1,48,-1
 218 505 l 2,49,50
 218 506 218 506 219 507 c 2,51,-1
 222 516 l 1,52,53
 272 601 272 601 354 649 c 2,54,-1
 369 657 l 2,55,56
 453 704 453 704 550 704 c 2,57,-1
 560 704 l 1,58,-1
 581 703 l 1,59,-1
 612 699 l 2,60,61
 614 698 614 698 620 698 c 0,62,63
 627 696 627 696 630 696 c 2,64,-1
 639 693 l 2,65,66
 641 693 641 693 648 691 c 0,67,68
 652 691 652 691 657 688 c 2,69,-1
 682 680 l 2,70,71
 689 678 689 678 694 675 c 0,72,73
 696 675 696 675 699 673 c 2,74,-1
 712 668 l 1,75,-1
 729 658 l 2,76,77
 730 658 730 658 731 657 c 2,78,-1
 740 654 l 1,79,80
 824 604 824 604 873 523 c 1,81,-1
 881 507 l 2,82,83
 928 423 928 423 928 326 c 2,84,-1
 928 316 l 1,85,-1
 927 295 l 1,86,-1
 923 264 l 2,87,88
 922 262 922 262 922 256 c 0,89,90
 920 249 920 249 920 246 c 2,91,-1
 917 237 l 2,92,93
 917 233 917 233 916 228.5 c 128,-1,94
 915 224 915 224 912 219 c 2,95,-1
 903 192 l 2,96,97
 902 185 902 185 900.5 182.5 c 128,-1,98
 899 180 899 180 897 177 c 2,99,-1
 892 164 l 1,100,-1
 882 147 l 2,101,102
 882 146 882 146 881 145 c 2,103,-1
 878 138 l 1,104,105
 828 53 828 53 747 3 c 1,106,-1
 744 2 l 2,107,108
 740 1 740 1 738 -2 c 2,109,-1
 731 -5 l 2,110,111
 647 -52 647 -52 550 -52 c 0,0,1
550 20 m 0,112,113
 611 20 611 20 668 43 c 0,114,115
 669 44 669 44 670 44 c 2,116,-1
 696 57 l 2,117,118
 701 59 701 59 702 61 c 2,119,-1
 710 64 l 1,120,-1
 735 81 l 2,121,122
 735 82 735 82 736 82 c 1,123,-1
 736 82 l 1,124,125
 784 118 784 118 815 174 c 0,126,127
 832 202 832 202 840 229 c 2,128,-1
 844 241 l 2,129,130
 845 243 845 243 845 247 c 2,131,-1
 848 253 l 2,132,133
 848 257 848 257 850 264 c 2,134,-1
 850 265 l 1,135,136
 856 299 856 299 856 326 c 0,137,138
 856 387 856 387 833 444 c 0,139,140
 832 445 832 445 832 446 c 2,141,-1
 821 468 l 2,142,143
 821 470 821 470 818.5 473.5 c 128,-1,144
 816 477 816 477 815 478 c 2,145,-1
 812 486 l 1,146,-1
 808 490 l 2,147,148
 806 495 806 495 803 498 c 2,149,-1
 795 511 l 2,150,151
 794 511 794 511 794 512 c 1,152,-1
 794 512 l 1,153,154
 758 559 758 559 704 591 c 0,155,156
 674 608 674 608 647 616 c 2,157,-1
 635 620 l 2,158,159
 633 621 633 621 629 621 c 2,160,-1
 623 624 l 2,161,162
 619 624 619 624 612 626 c 2,163,-1
 611 626 l 1,164,165
 577 632 577 632 550 632 c 0,166,167
 490 632 490 632 432 609 c 0,168,169
 432 608 432 608 430 608 c 2,170,-1
 408 597 l 2,171,172
 406 597 406 597 402.5 594.5 c 128,-1,173
 399 592 399 592 398 591 c 2,174,-1
 390 588 l 1,175,-1
 386 584 l 2,176,177
 381 582 381 582 378 579 c 2,178,-1
 365 571 l 2,179,180
 365 570 365 570 364 570 c 0,181,182
 317 534 317 534 285 480 c 0,183,184
 268 450 268 450 260 423 c 2,185,-1
 256 411 l 1,186,-1
 255 405 l 1,187,-1
 252 399 l 2,188,189
 252 395 252 395 250 388 c 2,190,-1
 250 387 l 1,191,192
 244 353 244 353 244 326 c 2,193,-1
 244 310 l 2,194,195
 248 258 248 258 267 208 c 0,196,197
 268 208 268 208 268 206 c 2,198,-1
 281 180 l 2,199,200
 283 175 283 175 285 174 c 2,201,-1
 288 166 l 1,202,-1
 305 141 l 2,203,204
 306 141 306 141 306 140 c 0,205,206
 342 92 342 92 398 61 c 0,207,208
 426 44 426 44 453 36 c 2,209,-1
 465 32 l 1,210,-1
 471 31 l 1,211,-1
 477 28 l 2,212,213
 481 28 481 28 488 26 c 2,214,-1
 489 26 l 1,215,216
 522 20 522 20 550 20 c 0,112,113
758 170 m 256,217,218
 748 170 748 170 740 175 c 2,219,-1
 532 295 l 1,220,-1
 526 300 l 1,221,-1
 520 307 l 1,222,-1
 515 318 l 2,223,224
 514 322 514 322 514 326 c 2,225,-1
 514 482 l 2,226,227
 514 496 514 496 525 507 c 128,-1,228
 536 518 536 518 550 518 c 128,-1,229
 564 518 564 518 575 507 c 128,-1,230
 586 496 586 496 586 482 c 2,231,-1
 586 346 l 1,232,-1
 776 237 l 2,233,234
 789 230 789 230 792.5 215.5 c 128,-1,235
 796 201 796 201 789 188 c 0,236,237
 784 180 784 180 776 175 c 128,-1,238
 768 170 768 170 758 170 c 256,217,218
EndSplineSet
EndChar

StartChar: 00:25
Encoding: 59397 59397 6
Width: 1100
VWidth: 834
GlyphClass: 1
Flags: W
LayerCount: 2
Fore
SplineSet
550 -52 m 2,0,1
 453 -52 453 -52 369 -5 c 2,2,-1
 362 -2 l 2,3,4
 360 0 360 0 354 3 c 0,5,6
 272 51 272 51 222 138 c 1,7,-1
 219 145 l 2,8,9
 218 146 218 146 218 147 c 2,10,-1
 208 164 l 1,11,-1
 203 177 l 2,12,13
 201 179 201 179 201 182 c 2,14,-1
 190 211 l 1,15,-1
 185 229 l 2,16,17
 183 234 183 234 183 237 c 2,18,-1
 180 246 l 2,19,20
 180 250 180 250 178 256 c 0,21,22
 178 261 178 261 177 264 c 2,23,-1
 174 282 l 2,24,25
 174 292 174 292 173 295 c 2,26,-1
 172 315 l 1,27,-1
 172 326 l 2,28,29
 172 423 172 423 219 507 c 2,30,-1
 222 514 l 2,31,32
 224 516 224 516 226 520 c 2,33,-1
 227 523 l 1,34,35
 276 603 276 603 362 654 c 1,36,-1
 369 657 l 2,37,38
 370 658 370 658 371 658 c 2,39,-1
 388 668 l 1,40,-1
 401 673 l 2,41,42
 403 675 403 675 405.5 676.5 c 128,-1,43
 408 678 408 678 416 679 c 2,44,-1
 443 688 l 2,45,46
 448 690 448 690 453 691.5 c 128,-1,47
 458 693 458 693 461 693 c 2,48,-1
 470 696 l 2,49,50
 474 696 474 696 480 698 c 0,51,52
 485 698 485 698 488 699 c 2,53,-1
 539 704 l 1,54,-1
 550 704 l 2,55,56
 647 704 647 704 731 657 c 2,57,-1
 747 649 l 1,58,59
 827 600 827 600 878 516 c 1,60,-1
 881 507 l 2,61,62
 882 506 882 506 882 505 c 2,63,-1
 892 488 l 1,64,-1
 897 475 l 2,65,66
 899 473 899 473 899 470 c 0,67,68
 901 465 901 465 904 458 c 2,69,-1
 912 433 l 2,70,71
 914 428 914 428 915 424 c 0,72,73
 917 417 917 417 917 415 c 2,74,-1
 920 406 l 2,75,76
 920 402 920 402 922 396 c 0,77,78
 922 391 922 391 923 388 c 2,79,-1
 928 338 l 1,80,-1
 928 326 l 2,81,82
 928 229 928 229 881 145 c 2,83,-1
 878 138 l 1,84,-1
 873 130 l 1,85,86
 825 48 825 48 740 -2 c 1,87,-1
 731 -5 l 2,88,89
 730 -6 730 -6 729 -6 c 2,90,-1
 712 -16 l 1,91,-1
 699 -21 l 2,92,93
 697 -23 697 -23 694 -23 c 2,94,-1
 689 -26 l 2,95,96
 684 -27 684 -27 682 -28 c 2,97,-1
 648 -39 l 2,98,99
 641 -41 641 -41 639 -41 c 2,100,-1
 630 -44 l 2,101,102
 626 -44 626 -44 620 -46 c 0,103,104
 615 -46 615 -46 612 -47 c 2,105,-1
 594 -50 l 2,106,107
 586 -50 586 -50 581 -51 c 2,108,-1
 562 -52 l 1,109,-1
 550 -52 l 2,0,1
550 20 m 0,110,111
 578 20 578 20 611 26 c 1,112,-1
 612 26 l 2,113,114
 619 28 619 28 623 28 c 2,115,-1
 647 36 l 2,116,117
 673 44 673 44 704 61 c 0,118,119
 758 93 758 93 794 140 c 0,120,121
 794 141 794 141 795 141 c 2,122,-1
 803 154 l 2,123,124
 805 156 805 156 808 162 c 2,125,-1
 812 166 l 1,126,-1
 815 174 l 2,127,128
 816 175 816 175 818.5 178.5 c 128,-1,129
 821 182 821 182 821 184 c 2,130,-1
 832 206 l 2,131,132
 832 208 832 208 833 208 c 0,133,134
 856 266 856 266 856 326 c 0,135,136
 856 354 856 354 850 387 c 1,137,-1
 850 388 l 2,138,139
 848 395 848 395 848 399 c 2,140,-1
 845 405 l 2,141,142
 845 409 845 409 844 411 c 2,143,-1
 840 423 l 2,144,145
 832 449 832 449 815 480 c 0,146,147
 783 534 783 534 736 570 c 1,148,-1
 736 570 l 1,149,150
 735 570 735 570 735 571 c 2,151,-1
 722 579 l 2,152,153
 720 581 720 581 714 584 c 2,154,-1
 710 588 l 1,155,-1
 702 591 l 2,156,157
 701 592 701 592 697.5 594.5 c 128,-1,158
 694 597 694 597 692 597 c 2,159,-1
 670 608 l 2,160,161
 669 608 669 608 668 609 c 0,162,163
 612 632 612 632 550 632 c 0,164,165
 522 632 522 632 489 626 c 1,166,-1
 488 626 l 2,167,168
 481 624 481 624 477 624 c 2,169,-1
 471 621 l 2,170,171
 467 621 467 621 465 620 c 2,172,-1
 453 616 l 2,173,174
 425 608 425 608 398 591 c 0,175,176
 343 560 343 560 306 512 c 1,177,-1
 306 512 l 1,178,179
 306 511 306 511 305 511 c 2,180,-1
 288 486 l 1,181,-1
 285 478 l 2,182,183
 284 477 284 477 281 472 c 2,184,-1
 268 446 l 2,185,186
 268 445 268 445 267 444 c 0,187,188
 244 388 244 388 244 326 c 2,189,-1
 244 310 l 2,190,191
 245 292 245 292 250 265 c 1,192,-1
 250 264 l 2,193,194
 252 257 252 257 252 253 c 2,195,-1
 260 229 l 2,196,197
 268 201 268 201 285 174 c 0,198,199
 316 119 316 119 364 82 c 0,200,201
 365 82 365 82 365 81 c 2,202,-1
 390 64 l 1,203,-1
 398 61 l 2,204,205
 399 60 399 60 404 57 c 2,206,-1
 430 44 l 2,207,208
 432 44 432 44 432 43 c 0,209,210
 490 20 490 20 550 20 c 0,110,111
670 82 m 256,211,212
 660 82 660 82 652 87 c 128,-1,213
 644 92 644 92 639 100 c 2,214,-1
 519 308 l 1,215,-1
 519 309 l 1,216,-1
 515 318 l 2,217,218
 514 322 514 322 514 326 c 2,219,-1
 514 482 l 2,220,221
 514 496 514 496 525 507 c 128,-1,222
 536 518 536 518 550 518 c 128,-1,223
 564 518 564 518 575 507 c 128,-1,224
 586 496 586 496 586 482 c 2,225,-1
 586 336 l 1,226,-1
 701 136 l 2,227,228
 708 123 708 123 704.5 108.5 c 128,-1,229
 701 94 701 94 688 87 c 0,230,231
 680 82 680 82 670 82 c 256,211,212
EndSplineSet
EndChar

StartChar: 00:30
Encoding: 59398 59398 7
Width: 1100
VWidth: 834
GlyphClass: 1
Flags: W
LayerCount: 2
Fore
SplineSet
550 -52 m 256,0,1
 447 -52 447 -52 359 0 c 0,2,3
 274 50 274 50 224 135 c 0,4,5
 172 223 172 223 172 326 c 128,-1,6
 172 429 172 429 224 517 c 0,7,8
 274 602 274 602 359 652 c 0,9,10
 447 704 447 704 550 704 c 128,-1,11
 653 704 653 704 741 652 c 0,12,13
 826 602 826 602 876 517 c 0,14,15
 928 429 928 429 928 326 c 128,-1,16
 928 223 928 223 876 135 c 0,17,18
 826 50 826 50 741 0 c 0,19,20
 653 -52 653 -52 550 -52 c 256,0,1
550 20 m 0,21,22
 633 20 633 20 703 61.5 c 128,-1,23
 773 103 773 103 814.5 173 c 128,-1,24
 856 243 856 243 856 326 c 128,-1,25
 856 409 856 409 814.5 479 c 128,-1,26
 773 549 773 549 703 590.5 c 128,-1,27
 633 632 633 632 550 632 c 128,-1,28
 467 632 467 632 397 590.5 c 128,-1,29
 327 549 327 549 285.5 479 c 128,-1,30
 244 409 244 409 244 326 c 2,31,-1
 244 310 l 2,32,33
 248 230 248 230 290 163.5 c 128,-1,34
 332 97 332 97 401 58.5 c 128,-1,35
 470 20 470 20 550 20 c 0,21,22
550 50 m 256,36,37
 536 50 536 50 525 61 c 128,-1,38
 514 72 514 72 514 86 c 2,39,-1
 514 482 l 2,40,41
 514 496 514 496 525 507 c 128,-1,42
 536 518 536 518 550 518 c 128,-1,43
 564 518 564 518 575 507 c 128,-1,44
 586 496 586 496 586 482 c 2,45,-1
 586 86 l 2,46,47
 586 72 586 72 575 61 c 128,-1,48
 564 50 564 50 550 50 c 256,36,37
EndSplineSet
EndChar

StartChar: 00:35
Encoding: 59399 59399 8
Width: 1100
VWidth: 834
GlyphClass: 1
Flags: W
LayerCount: 2
Fore
SplineSet
550 -52 m 0,0,1
 545 -52 545 -52 540 -52 c 2,2,-1
 519 -51 l 1,3,4
 519 -51 519 -51 519 -51 c 1,5,6
 514 -50 514 -50 506 -50 c 2,7,-1
 488 -47 l 2,8,9
 486 -46 486 -46 480 -46 c 0,10,11
 473 -44 473 -44 470 -44 c 2,12,-1
 461 -41 l 2,13,14
 457 -41 457 -41 453 -39 c 2,15,-1
 443 -36 l 1,16,-1
 443 -36 l 1,17,-1
 424 -30 l 1,18,-1
 406 -23 l 1,19,20
 406 -23 406 -23 405 -23 c 128,-1,21
 404 -23 404 -23 401 -21 c 2,22,-1
 388 -16 l 1,23,24
 388 -16 388 -16 388 -16 c 1,25,-1
 371 -6 l 1,26,27
 371 -6 371 -6 370.5 -6 c 128,-1,28
 370 -6 370 -6 369 -5 c 2,29,-1
 362 -2 l 1,30,31
 276 48 276 48 227 130 c 0,32,33
 225 135 225 135 222 138 c 2,34,-1
 219 145 l 2,35,36
 172 229 172 229 172 326 c 2,37,-1
 172 338 l 1,38,39
 172 338 172 338 172 338 c 1,40,-1
 173 357 l 1,41,42
 173 357 173 357 173 357 c 1,43,44
 174 362 174 362 174 370 c 2,45,-1
 177 388 l 2,46,47
 178 390 178 390 178 396 c 0,48,49
 180 403 180 403 180 406 c 2,50,-1
 183 415 l 2,51,52
 183 417 183 417 185 424 c 2,53,-1
 188 433 l 1,54,55
 188 433 188 433 188 433 c 1,56,-1
 196 458 l 2,57,58
 197 460 197 460 198 465 c 2,59,-1
 201 470 l 2,60,61
 201 472 201 472 203 475 c 2,62,-1
 208 488 l 1,63,64
 208 488 208 488 208 488 c 1,65,-1
 218 505 l 1,66,67
 218 505 218 505 218 505.5 c 128,-1,68
 218 506 218 506 219 507 c 2,69,-1
 222 516 l 1,70,71
 272 601 272 601 354 649 c 2,72,-1
 369 657 l 2,73,74
 453 704 453 704 550 704 c 2,75,-1
 562 704 l 1,76,77
 562 704 562 704 562 704 c 1,78,-1
 581 703 l 1,79,-1
 612 699 l 2,80,81
 614 698 614 698 620 698 c 0,82,83
 627 696 627 696 630 696 c 2,84,-1
 639 693 l 2,85,86
 641 693 641 693 648 691 c 0,87,88
 652 691 652 691 657 688 c 2,89,-1
 682 680 l 2,90,91
 689 678 689 678 694 675 c 0,92,93
 696 675 696 675 699 673 c 2,94,-1
 712 668 l 1,95,-1
 729 658 l 2,96,97
 730 658 730 658 731 657 c 2,98,-1
 740 654 l 1,99,100
 824 604 824 604 873 523 c 1,101,-1
 881 507 l 2,102,103
 928 423 928 423 928 326 c 2,104,-1
 928 316 l 1,105,-1
 927 295 l 1,106,-1
 923 264 l 2,107,108
 922 262 922 262 922 256 c 0,109,110
 920 249 920 249 920 246 c 2,111,-1
 917 237 l 2,112,113
 917 233 917 233 916 228.5 c 128,-1,114
 915 224 915 224 912 219 c 2,115,-1
 903 192 l 2,116,117
 902 185 902 185 900.5 182.5 c 128,-1,118
 899 180 899 180 897 177 c 2,119,-1
 892 164 l 1,120,-1
 882 147 l 2,121,122
 882 146 882 146 881 145 c 2,123,-1
 878 138 l 1,124,125
 828 53 828 53 747 3 c 1,126,-1
 744 2 l 2,127,128
 740 1 740 1 738 -2 c 2,129,-1
 731 -5 l 2,130,131
 647 -52 647 -52 550 -52 c 0,0,1
550 20 m 0,132,133
 611 20 611 20 668 43 c 0,134,135
 669 44 669 44 669.5 44 c 128,-1,136
 670 44 670 44 670 44 c 1,137,-1
 696 57 l 1,138,139
 696 57 696 57 696 57 c 1,140,141
 701 59 701 59 702 61 c 2,142,-1
 710 64 l 1,143,144
 710 64 710 64 710 64 c 1,145,-1
 722 73 l 1,146,147
 722 73 722 73 722 73 c 1,148,-1
 735 81 l 2,149,150
 735 82 735 82 736 82 c 1,151,-1
 736 82 l 1,152,153
 784 118 784 118 815 174 c 0,154,155
 832 202 832 202 840 229 c 2,156,-1
 844 241 l 1,157,158
 844 241 844 241 844 241 c 1,159,160
 845 243 845 243 845 247 c 0,161,162
 846 248 846 248 846 252 c 2,163,-1
 848 253 l 2,164,165
 848 257 848 257 850 264 c 2,166,-1
 850 265 l 1,167,168
 856 299 856 299 856 326 c 0,169,170
 856 387 856 387 833 444 c 0,171,172
 832 445 832 445 832 445.5 c 128,-1,173
 832 446 832 446 832 446 c 1,174,-1
 821 468 l 2,175,176
 821 470 821 470 819 472 c 1,177,178
 819 472 819 472 819 472 c 1,179,180
 817 477 817 477 815 478 c 2,181,-1
 812 486 l 1,182,183
 812 486 812 486 812 486 c 1,184,-1
 808 490 l 2,185,186
 806 495 806 495 803 498 c 1,187,188
 803 498 803 498 803 498 c 1,189,-1
 801 501 l 2,190,191
 799 506 799 506 796 508 c 2,192,-1
 795 511 l 2,193,194
 794 511 794 511 794 512 c 1,195,-1
 794 512 l 1,196,197
 758 559 758 559 704 591 c 0,198,199
 674 608 674 608 647 616 c 2,200,-1
 635 620 l 1,201,202
 635 620 635 620 635 620 c 1,203,204
 633 621 633 621 629 621 c 0,205,206
 628 622 628 622 624 622 c 1,207,-1
 624 624 l 1,208,209
 624 624 624 624 623 624 c 0,210,211
 619 624 619 624 612 626 c 2,212,-1
 611 626 l 1,213,214
 577 632 577 632 550 632 c 0,215,216
 490 632 490 632 432 609 c 0,217,218
 432 608 432 608 430 608 c 2,219,-1
 408 597 l 2,220,221
 406 597 406 597 402.5 594.5 c 128,-1,222
 399 592 399 592 398 591 c 2,223,-1
 390 588 l 1,224,-1
 386 584 l 2,225,226
 381 582 381 582 378 579 c 2,227,-1
 375 577 l 2,228,229
 370 575 370 575 368 572 c 2,230,-1
 365 571 l 2,231,232
 365 570 365 570 364 570 c 0,233,234
 317 534 317 534 285 480 c 0,235,236
 268 450 268 450 260 423 c 2,237,-1
 256 411 l 1,238,-1
 255 405 l 2,239,240
 254 404 254 404 254 400 c 2,241,-1
 252 399 l 2,242,243
 252 395 252 395 250 388 c 2,244,-1
 250 387 l 1,245,246
 244 353 244 353 244 326 c 0,247,248
 244 266 244 266 267 208 c 0,249,250
 268 208 268 208 268 206 c 2,251,-1
 281 180 l 2,252,253
 283 175 283 175 285 174 c 2,254,-1
 288 166 l 1,255,-1
 305 141 l 2,256,257
 306 141 306 141 306 140 c 0,258,259
 342 92 342 92 398 61 c 0,260,261
 426 44 426 44 453 36 c 2,262,-1
 465 32 l 1,263,-1
 471 31 l 2,264,265
 472 30 472 30 476 30 c 2,266,-1
 477 30 l 1,267,268
 477 30 477 30 477 28 c 1,269,270
 481 28 481 28 488 26 c 2,271,-1
 489 26 l 1,272,273
 522 20 522 20 550 20 c 0,132,133
430 82 m 256,274,275
 420 82 420 82 412 87 c 0,276,277
 399 94 399 94 395.5 108.5 c 128,-1,278
 392 123 392 123 399 136 c 2,279,-1
 597 480 l 2,280,281
 604 493 604 493 618.5 496.5 c 128,-1,282
 633 500 633 500 646 493 c 128,-1,283
 659 486 659 486 662.5 471.5 c 128,-1,284
 666 457 666 457 659 444 c 2,285,-1
 461 100 l 2,286,287
 456 92 456 92 448 87 c 128,-1,288
 440 82 440 82 430 82 c 256,274,275
EndSplineSet
EndChar

StartChar: 00:40
Encoding: 59400 59400 9
Width: 1100
VWidth: 834
GlyphClass: 1
Flags: W
LayerCount: 2
Fore
SplineSet
550 -52 m 2,0,1
 545 -52 545 -52 540 -52 c 2,2,-1
 519 -51 l 2,3,4
 515 -50 515 -50 506 -50 c 2,5,-1
 488 -47 l 2,6,7
 486 -46 486 -46 480 -46 c 0,8,9
 473 -44 473 -44 470 -44 c 2,10,-1
 461 -41 l 2,11,12
 457 -41 457 -41 453 -39 c 2,13,-1
 424 -30 l 1,14,-1
 406 -23 l 2,15,16
 404 -23 404 -23 401 -21 c 2,17,-1
 388 -16 l 1,18,-1
 371 -6 l 2,19,20
 370 -6 370 -6 369 -5 c 2,21,-1
 353 3 l 2,22,23
 353 4 353 4 351 4 c 2,24,-1
 335 15 l 2,25,26
 328 20 328 20 324 24 c 0,27,28
 322 25 322 25 320 27 c 0,29,30
 313 32 313 32 310 34 c 2,31,-1
 304 39 l 2,32,33
 299 44 299 44 296 46 c 2,34,-1
 290 52 l 1,35,-1
 282 58 l 1,36,-1
 270 72 l 2,37,38
 268 76 268 76 263 80 c 2,39,-1
 258 86 l 2,40,41
 256 88 256 88 251 96 c 0,42,43
 249 98 249 98 248 100 c 0,44,45
 244 104 244 104 239 111 c 2,46,-1
 228 127 l 2,47,48
 228 129 228 129 227 129 c 2,49,-1
 219 145 l 2,50,51
 218 146 218 146 218 147 c 2,52,-1
 208 164 l 1,53,-1
 203 177 l 2,54,55
 201 179 201 179 201 182 c 2,56,-1
 190 211 l 1,57,-1
 185 229 l 2,58,59
 183 234 183 234 183 237 c 2,60,-1
 180 246 l 2,61,62
 180 250 180 250 178 256 c 0,63,64
 178 261 178 261 177 264 c 2,65,-1
 174 282 l 2,66,67
 174 292 174 292 173 295 c 2,68,-1
 172 315 l 1,69,-1
 172 336 l 1,70,-1
 173 357 l 2,71,72
 174 362 174 362 174 370 c 2,73,-1
 177 388 l 2,74,75
 178 390 178 390 178 396 c 0,76,77
 180 403 180 403 180 406 c 2,78,-1
 183 415 l 2,79,80
 183 417 183 417 185 424 c 2,81,-1
 196 458 l 2,82,83
 197 460 197 460 198 465 c 2,84,-1
 201 470 l 2,85,86
 201 472 201 472 203 475 c 2,87,-1
 208 488 l 1,88,-1
 218 505 l 2,89,90
 218 506 218 506 219 507 c 2,91,-1
 222 516 l 2,92,93
 224 518 224 518 227 523 c 0,94,95
 228 524 228 524 228 525 c 2,96,-1
 248 553 l 1,97,-1
 251 556 l 2,98,99
 256 563 256 563 258 566 c 2,100,-1
 270 580 l 2,101,102
 271 581 271 581 274 584 c 2,103,-1
 276 586 l 1,104,-1
 282 594 l 2,105,106
 287 599 287 599 290 600 c 2,107,-1
 296 606 l 2,108,109
 300 608 300 608 304 612 c 128,-1,110
 308 616 308 616 310 618 c 128,-1,111
 312 620 312 620 320 625 c 0,112,113
 322 627 322 627 324 628 c 0,114,115
 328 632 328 632 335 637 c 2,116,-1
 356 650 l 2,117,118
 360 652 360 652 362 654 c 2,119,-1
 369 657 l 2,120,121
 370 658 370 658 371 658 c 2,122,-1
 388 668 l 1,123,-1
 401 673 l 2,124,125
 403 675 403 675 405.5 676.5 c 128,-1,126
 408 678 408 678 416 679 c 2,127,-1
 443 688 l 2,128,129
 448 690 448 690 453 691.5 c 128,-1,130
 458 693 458 693 461 693 c 2,131,-1
 470 696 l 2,132,133
 474 696 474 696 480 698 c 0,134,135
 485 698 485 698 488 699 c 2,136,-1
 539 704 l 1,137,-1
 560 704 l 1,138,-1
 581 703 l 1,139,-1
 612 699 l 2,140,141
 614 698 614 698 620 698 c 0,142,143
 627 696 627 696 630 696 c 2,144,-1
 639 693 l 2,145,146
 641 693 641 693 648 691 c 0,147,148
 652 691 652 691 657 688 c 2,149,-1
 682 680 l 2,150,151
 689 678 689 678 694 675 c 0,152,153
 696 675 696 675 699 673 c 2,154,-1
 712 668 l 1,155,-1
 729 658 l 2,156,157
 730 658 730 658 731 657 c 2,158,-1
 740 654 l 1,159,-1
 777 628 l 1,160,-1
 780 625 l 2,161,162
 787 620 787 620 789.5 618 c 128,-1,163
 792 616 792 616 796 613 c 2,164,-1
 804 606 l 2,165,166
 805 605 805 605 808 602 c 2,167,-1
 810 600 l 2,168,169
 812 599 812 599 817 594 c 128,-1,170
 822 589 822 589 824 586 c 2,171,-1
 826 584 l 2,172,173
 828 582 828 582 830 580 c 2,174,-1
 837 572 l 2,175,176
 841 568 841 568 842.5 566 c 128,-1,177
 844 564 844 564 849 556 c 2,178,-1
 852 553 l 1,179,-1
 878 516 l 1,180,-1
 881 507 l 2,181,182
 882 506 882 506 882 505 c 2,183,-1
 892 488 l 1,184,-1
 897 475 l 2,185,186
 899 473 899 473 899 470 c 0,187,188
 901 465 901 465 904 458 c 2,189,-1
 912 433 l 2,190,191
 914 428 914 428 915 424 c 0,192,193
 917 417 917 417 917 415 c 2,194,-1
 920 406 l 2,195,196
 920 402 920 402 922 396 c 0,197,198
 922 391 922 391 923 388 c 2,199,-1
 928 338 l 1,200,-1
 928 316 l 1,201,-1
 927 295 l 1,202,-1
 923 264 l 2,203,204
 922 262 922 262 922 256 c 0,205,206
 920 249 920 249 920 246 c 2,207,-1
 917 237 l 2,208,209
 917 233 917 233 916 228.5 c 128,-1,210
 915 224 915 224 912 219 c 2,211,-1
 903 192 l 2,212,213
 902 185 902 185 900.5 182.5 c 128,-1,214
 899 180 899 180 897 177 c 2,215,-1
 892 164 l 1,216,-1
 882 147 l 2,217,218
 882 146 882 146 881 145 c 2,219,-1
 878 138 l 2,220,221
 877 136 877 136 874 132 c 2,222,-1
 861 111 l 2,223,224
 856 104 856 104 852 100 c 0,225,226
 851 98 851 98 849 96 c 0,227,228
 844 89 844 89 842 86.5 c 128,-1,229
 840 84 840 84 836 79.5 c 128,-1,230
 832 75 832 75 830 72 c 2,231,-1
 824 66 l 2,232,233
 823 64 823 64 818 58 c 2,234,-1
 808 50 l 2,235,236
 806 48 806 48 804 46 c 2,237,-1
 790 34 l 2,238,239
 788 32 788 32 780 27 c 2,240,-1
 777 24 l 1,241,-1
 749 4 l 2,242,243
 748 4 748 4 747 3 c 0,244,245
 742 1 742 1 740 -2 c 2,246,-1
 731 -5 l 2,247,248
 730 -6 730 -6 729 -6 c 2,249,-1
 712 -16 l 1,250,-1
 699 -21 l 2,251,252
 697 -23 697 -23 694 -23 c 2,253,-1
 689 -26 l 2,254,255
 684 -27 684 -27 682 -28 c 2,256,-1
 648 -39 l 2,257,258
 641 -41 641 -41 639 -41 c 2,259,-1
 630 -44 l 2,260,261
 626 -44 626 -44 620 -46 c 0,262,263
 615 -46 615 -46 612 -47 c 2,264,-1
 594 -50 l 2,265,266
 586 -50 586 -50 581 -51 c 2,267,-1
 562 -52 l 1,268,-1
 550 -52 l 2,0,1
550 20 m 256,269,270
 578 20 578 20 611 26 c 1,271,-1
 612 26 l 2,272,273
 619 28 619 28 623 28 c 2,274,-1
 647 36 l 2,275,276
 673 44 673 44 702.5 61 c 128,-1,277
 732 78 732 78 753 97 c 2,278,-1
 754 98 l 2,279,280
 759 103 759 103 762 105.5 c 128,-1,281
 765 108 765 108 766.5 109.5 c 128,-1,282
 768 111 768 111 770.5 114 c 128,-1,283
 773 117 773 117 778 122 c 0,284,285
 779 122 779 122 779 123 c 1,286,-1
 779 123 l 1,287,288
 802 149 802 149 815 174 c 0,289,290
 832 202 832 202 840 229 c 2,291,-1
 844 241 l 2,292,293
 845 243 845 243 845 247 c 2,294,-1
 848 253 l 2,295,296
 848 257 848 257 850 264 c 2,297,-1
 850 265 l 1,298,299
 856 299 856 299 856 326.5 c 128,-1,300
 856 354 856 354 850 387 c 1,301,-1
 850 388 l 2,302,303
 848 395 848 395 848 399 c 2,304,-1
 845 405 l 2,305,306
 845 409 845 409 844 411 c 2,307,-1
 840 423 l 2,308,309
 832 449 832 449 815 478.5 c 128,-1,310
 798 508 798 508 779 529 c 1,311,-1
 779 530 l 1,312,313
 779 530 779 530 778 530 c 0,314,315
 773 535 773 535 770.5 538 c 128,-1,316
 768 541 768 541 766.5 542.5 c 128,-1,317
 765 544 765 544 762 546.5 c 128,-1,318
 759 549 759 549 754 554 c 0,319,320
 754 555 754 555 754 555 c 1,321,-1
 753 555 l 1,322,323
 733 574 733 574 703.5 591 c 128,-1,324
 674 608 674 608 647 616 c 2,325,-1
 635 620 l 2,326,327
 633 621 633 621 629 621 c 2,328,-1
 623 624 l 2,329,330
 619 624 619 624 612 626 c 2,331,-1
 611 626 l 1,332,333
 577 632 577 632 549.5 632 c 128,-1,334
 522 632 522 632 489 626 c 1,335,-1
 488 626 l 2,336,337
 481 624 481 624 477 624 c 2,338,-1
 471 621 l 2,339,340
 467 621 467 621 465 620 c 2,341,-1
 453 616 l 2,342,343
 425 608 425 608 398 591 c 0,344,345
 374 578 374 578 347 555 c 1,346,-1
 347 555 l 1,347,348
 346 555 346 555 346 554 c 0,349,350
 341 549 341 549 338 546.5 c 128,-1,351
 335 544 335 544 333.5 542.5 c 128,-1,352
 332 541 332 541 329.5 538 c 128,-1,353
 327 535 327 535 322 530 c 2,354,-1
 321 529 l 2,355,356
 302 509 302 509 285 479.5 c 128,-1,357
 268 450 268 450 260 423 c 2,358,-1
 256 411 l 1,359,-1
 255 405 l 1,360,-1
 252 399 l 2,361,362
 252 395 252 395 250 388 c 2,363,-1
 250 387 l 1,364,365
 244 353 244 353 244 325.5 c 128,-1,366
 244 298 244 298 250 265 c 1,367,-1
 250 264 l 2,368,369
 252 257 252 257 252 253 c 2,370,-1
 260 229 l 2,371,372
 268 201 268 201 285 174 c 0,373,374
 298 150 298 150 321 123 c 2,375,-1
 322 122 l 2,376,377
 327 117 327 117 329.5 114 c 128,-1,378
 332 111 332 111 333.5 109.5 c 128,-1,379
 335 108 335 108 338 105.5 c 128,-1,380
 341 103 341 103 346 98 c 2,381,-1
 347 97 l 2,382,383
 373 74 373 74 398 61 c 0,384,385
 426 44 426 44 453 36 c 2,386,-1
 465 32 l 1,387,-1
 471 31 l 1,388,-1
 477 28 l 2,389,390
 481 28 481 28 488 26 c 2,391,-1
 489 26 l 1,392,393
 522 20 522 20 550 20 c 256,269,270
342 170 m 256,394,395
 332 170 332 170 324 175 c 128,-1,396
 316 180 316 180 311 188 c 0,397,398
 304 201 304 201 307.5 215.5 c 128,-1,399
 311 230 311 230 324 237 c 2,400,-1
 524 352 l 1,401,-1
 597 480 l 2,402,403
 604 493 604 493 618.5 496.5 c 128,-1,404
 633 500 633 500 646 493 c 128,-1,405
 659 486 659 486 662.5 471.5 c 128,-1,406
 666 457 666 457 659 444 c 2,407,-1
 581 308 l 2,408,409
 579 304 579 304 576 302 c 2,410,-1
 576 301 l 2,411,412
 574 299 574 299 570 296 c 2,413,-1
 360 175 l 2,414,415
 352 170 352 170 342 170 c 256,394,395
EndSplineSet
EndChar

StartChar: 00:45
Encoding: 59401 59401 10
Width: 1100
VWidth: 834
GlyphClass: 1
Flags: W
LayerCount: 2
Fore
SplineSet
550 -52 m 0,0,1
 545 -52 545 -52 540 -52 c 2,2,-1
 524 -51 l 1,3,-1
 524 -51 l 1,4,-1
 519 -51 l 2,5,6
 515 -50 515 -50 506 -50 c 2,7,-1
 488 -47 l 2,8,9
 486 -46 486 -46 480 -46 c 0,10,11
 473 -44 473 -44 470 -44 c 2,12,-1
 461 -41 l 2,13,14
 457 -41 457 -41 453 -39 c 2,15,-1
 435 -34 l 1,16,17
 435 -34 435 -34 435 -34 c 1,18,-1
 424 -30 l 1,19,-1
 406 -23 l 2,20,21
 404 -23 404 -23 401 -21 c 1,22,23
 401 -21 401 -21 401 -21 c 1,24,-1
 388 -16 l 1,25,-1
 371 -6 l 2,26,27
 370 -6 370 -6 369.5 -5.5 c 128,-1,28
 369 -5 369 -5 369 -5 c 1,29,-1
 362 -2 l 1,30,31
 276 48 276 48 227 130 c 0,32,33
 225 135 225 135 222 138 c 1,34,35
 222 138 222 138 222 138 c 1,36,-1
 219 145 l 2,37,38
 172 229 172 229 172 326 c 2,39,-1
 172 336 l 1,40,-1
 173 352 l 1,41,42
 173 352 173 352 173 352 c 1,43,-1
 173 357 l 2,44,45
 174 362 174 362 174 370 c 2,46,-1
 177 388 l 2,47,48
 178 390 178 390 178 396 c 0,49,50
 180 403 180 403 180 406 c 2,51,-1
 183 415 l 2,52,53
 183 417 183 417 185 424 c 2,54,-1
 190 441 l 1,55,56
 190 441 190 441 190 441 c 1,57,-1
 196 458 l 2,58,59
 197 460 197 460 198 465 c 2,60,-1
 201 470 l 2,61,62
 201 472 201 472 203 475 c 1,63,64
 203 475 203 475 203 475 c 1,65,-1
 208 488 l 1,66,-1
 218 505 l 2,67,68
 218 506 218 506 218.5 506.5 c 128,-1,69
 219 507 219 507 219 507 c 1,70,-1
 222 516 l 1,71,72
 272 601 272 601 354 649 c 1,73,-1
 362 654 l 1,74,75
 362 654 362 654 362 654 c 1,76,-1
 369 657 l 2,77,78
 453 704 453 704 550 704 c 2,79,-1
 560 704 l 1,80,-1
 581 703 l 2,81,82
 586 703 586 703 588 702 c 2,83,-1
 594 702 l 1,84,-1
 600 700 l 2,85,86
 605 700 605 700 608 699 c 2,87,-1
 612 699 l 2,88,89
 614 698 614 698 620 698 c 0,90,91
 627 696 627 696 630 696 c 2,92,-1
 639 693 l 2,93,94
 643 693 643 693 645 692.5 c 128,-1,95
 647 692 647 692 648 691 c 0,96,97
 652 691 652 691 657 688 c 2,98,-1
 682 680 l 2,99,100
 689 678 689 678 694 675 c 0,101,102
 696 675 696 675 699 673 c 2,103,-1
 712 668 l 2,104,105
 712 667 712 667 713 667 c 2,106,-1
 729 658 l 2,107,108
 730 658 730 658 731 657 c 2,109,-1
 740 654 l 1,110,111
 824 604 824 604 873 523 c 1,112,-1
 881 507 l 2,113,114
 928 423 928 423 928 326 c 2,115,-1
 928 316 l 1,116,-1
 927 295 l 1,117,-1
 923 264 l 2,118,119
 922 262 922 262 922 256 c 0,120,121
 920 249 920 249 920 246 c 2,122,-1
 917 237 l 2,123,124
 917 233 917 233 916 228.5 c 128,-1,125
 915 224 915 224 912 219 c 2,126,-1
 903 192 l 2,127,128
 902 185 902 185 900.5 182.5 c 128,-1,129
 899 180 899 180 897 177 c 2,130,-1
 892 164 l 1,131,-1
 882 147 l 2,132,133
 882 146 882 146 881 145 c 2,134,-1
 878 138 l 1,135,136
 828 53 828 53 747 3 c 1,137,-1
 744 2 l 2,138,139
 740 1 740 1 738 -2 c 2,140,-1
 731 -5 l 2,141,142
 647 -52 647 -52 550 -52 c 0,0,1
550 20 m 0,143,144
 611 20 611 20 668 43 c 1,145,-1
 668 44 l 1,146,-1
 670 44 l 1,147,-1
 696 57 l 2,148,149
 701 59 701 59 702 61 c 2,150,-1
 704 61 l 2,151,152
 705 62 705 62 710 64 c 0,153,154
 710 65 710 65 711 66 c 2,155,-1
 725 75 l 1,156,157
 725 75 725 75 725 75 c 1,158,-1
 735 81 l 2,159,160
 735 82 735 82 736 82 c 1,161,-1
 736 82 l 1,162,163
 736 82 736 82 736 82 c 1,164,165
 784 118 784 118 815 174 c 0,166,167
 832 202 832 202 840 229 c 1,168,-1
 840 230 l 1,169,170
 840 230 840 230 840 230 c 1,171,-1
 844 241 l 2,172,173
 845 243 845 243 845 247 c 1,174,175
 845 247 845 247 845 247 c 1,176,-1
 848 253 l 2,177,178
 848 257 848 257 850 264 c 2,179,-1
 850 265 l 1,180,181
 856 299 856 299 856 326 c 0,182,183
 856 387 856 387 833 444 c 1,184,185
 833 444 833 444 832.5 444.5 c 128,-1,186
 832 445 832 445 832 446 c 2,187,-1
 821 468 l 2,188,189
 821 470 821 470 818.5 473.5 c 128,-1,190
 816 477 816 477 815 478 c 2,191,-1
 815 480 l 2,192,193
 814 481 814 481 812 486 c 2,194,-1
 808 490 l 2,195,196
 806 495 806 495 803 498 c 2,197,-1
 801 501 l 1,198,199
 801 501 801 501 801 501 c 1,200,-1
 795 511 l 2,201,202
 794 511 794 511 794 512 c 1,203,-1
 794 512 l 1,204,205
 794 512 794 512 794 512 c 1,206,207
 758 559 758 559 704 591 c 0,208,209
 674 608 674 608 647 616 c 1,210,-1
 646 616 l 1,211,212
 646 616 646 616 646 616 c 1,213,-1
 635 620 l 2,214,215
 633 621 633 621 629 621 c 1,216,217
 629 621 629 621 629 621 c 1,218,-1
 623 624 l 2,219,220
 619 624 619 624 612 626 c 2,221,-1
 611 626 l 1,222,223
 577 632 577 632 550 632 c 0,224,225
 490 632 490 632 432 609 c 0,226,227
 432 608 432 608 430 608 c 2,228,-1
 408 597 l 2,229,230
 406 597 406 597 402.5 594.5 c 128,-1,231
 399 592 399 592 398 591 c 2,232,-1
 390 588 l 1,233,-1
 386 584 l 2,234,235
 381 582 381 582 378 579 c 2,236,-1
 365 571 l 2,237,238
 365 570 365 570 364 570 c 0,239,240
 317 534 317 534 285 480 c 0,241,242
 268 450 268 450 260 423 c 2,243,-1
 256 411 l 1,244,-1
 255 405 l 1,245,-1
 252 399 l 2,246,247
 252 395 252 395 250 388 c 2,248,-1
 250 387 l 1,249,250
 244 353 244 353 244 326 c 2,251,-1
 244 310 l 2,252,253
 248 258 248 258 267 208 c 0,254,255
 268 208 268 208 268 206 c 2,256,-1
 281 180 l 2,257,258
 283 175 283 175 285 174 c 2,259,-1
 288 166 l 2,260,261
 289 166 289 166 290 166 c 1,262,-1
 305 141 l 2,263,264
 306 141 306 141 306 140 c 0,265,266
 342 92 342 92 398 61 c 0,267,268
 426 44 426 44 453 36 c 2,269,-1
 465 32 l 1,270,-1
 471 31 l 1,271,-1
 477 28 l 2,272,273
 481 28 481 28 488 26 c 2,274,-1
 489 26 l 1,275,276
 522 20 522 20 550 20 c 0,143,144
310 290 m 2,277,278
 296 290 296 290 285 301 c 128,-1,279
 274 312 274 312 274 326 c 128,-1,280
 274 340 274 340 285 351 c 128,-1,281
 296 362 296 362 310 362 c 2,282,-1
 530 362 l 1,283,-1
 597 480 l 2,284,285
 604 493 604 493 618.5 496.5 c 128,-1,286
 633 500 633 500 646 493 c 128,-1,287
 659 486 659 486 662.5 471.5 c 128,-1,288
 666 457 666 457 659 444 c 2,289,-1
 581 308 l 2,290,291
 579 304 579 304 576 302 c 2,292,-1
 576 301 l 2,293,294
 574 299 574 299 570 296 c 1,295,-1
 570 296 l 1,296,297
 566 294 566 294 563 292 c 1,298,-1
 563 292 l 1,299,300
 559 291 559 291 556 290 c 2,301,-1
 310 290 l 2,277,278
EndSplineSet
EndChar

StartChar: 00:50
Encoding: 59402 59402 11
Width: 1100
VWidth: 834
GlyphClass: 1
Flags: W
LayerCount: 2
Fore
SplineSet
550 -52 m 0,0,1
 545 -52 545 -52 540 -52 c 2,2,-1
 519 -51 l 1,3,4
 519 -51 519 -51 519 -51 c 1,5,6
 514 -50 514 -50 506 -50 c 2,7,-1
 488 -47 l 2,8,9
 486 -46 486 -46 480 -46 c 0,10,11
 473 -44 473 -44 470 -44 c 2,12,-1
 461 -41 l 2,13,14
 457 -41 457 -41 453 -39 c 2,15,-1
 443 -36 l 1,16,-1
 443 -36 l 1,17,-1
 424 -30 l 1,18,-1
 406 -23 l 1,19,20
 406 -23 406 -23 405 -23 c 128,-1,21
 404 -23 404 -23 401 -21 c 2,22,-1
 388 -16 l 1,23,24
 388 -16 388 -16 388 -16 c 1,25,-1
 371 -6 l 1,26,27
 371 -6 371 -6 370.5 -6 c 128,-1,28
 370 -6 370 -6 369 -5 c 2,29,-1
 362 -2 l 1,30,31
 276 48 276 48 227 130 c 0,32,33
 225 135 225 135 222 138 c 2,34,-1
 219 145 l 2,35,36
 172 229 172 229 172 326 c 2,37,-1
 172 338 l 1,38,39
 172 338 172 338 172 338 c 1,40,-1
 173 357 l 1,41,42
 173 357 173 357 173 357 c 1,43,44
 174 362 174 362 174 370 c 2,45,-1
 177 388 l 2,46,47
 178 390 178 390 178 396 c 0,48,49
 180 403 180 403 180 406 c 2,50,-1
 183 415 l 2,51,52
 183 417 183 417 185 424 c 2,53,-1
 188 433 l 1,54,55
 188 433 188 433 188 433 c 1,56,-1
 196 458 l 2,57,58
 197 460 197 460 198 465 c 2,59,-1
 201 470 l 2,60,61
 201 472 201 472 203 475 c 2,62,-1
 208 488 l 1,63,64
 208 488 208 488 208 488 c 1,65,-1
 218 505 l 1,66,67
 218 505 218 505 218 505.5 c 128,-1,68
 218 506 218 506 219 507 c 2,69,-1
 222 516 l 1,70,71
 272 601 272 601 354 649 c 2,72,-1
 369 657 l 2,73,74
 453 704 453 704 550 704 c 2,75,-1
 562 704 l 1,76,77
 562 704 562 704 562 704 c 1,78,-1
 581 703 l 1,79,-1
 612 699 l 2,80,81
 614 698 614 698 620 698 c 0,82,83
 627 696 627 696 630 696 c 2,84,-1
 639 693 l 2,85,86
 641 693 641 693 648 691 c 0,87,88
 652 691 652 691 657 688 c 2,89,-1
 682 680 l 2,90,91
 689 678 689 678 694 675 c 0,92,93
 696 675 696 675 699 673 c 2,94,-1
 712 668 l 1,95,-1
 729 658 l 2,96,97
 730 658 730 658 731 657 c 2,98,-1
 740 654 l 1,99,100
 824 604 824 604 873 523 c 1,101,-1
 881 507 l 2,102,103
 928 423 928 423 928 326 c 2,104,-1
 928 316 l 1,105,-1
 927 295 l 1,106,-1
 923 264 l 2,107,108
 922 262 922 262 922 256 c 0,109,110
 920 249 920 249 920 246 c 2,111,-1
 917 237 l 2,112,113
 917 233 917 233 916 228.5 c 128,-1,114
 915 224 915 224 912 219 c 2,115,-1
 903 192 l 2,116,117
 902 185 902 185 900.5 182.5 c 128,-1,118
 899 180 899 180 897 177 c 2,119,-1
 892 164 l 1,120,-1
 882 147 l 2,121,122
 882 146 882 146 881 145 c 2,123,-1
 878 138 l 1,124,125
 828 53 828 53 747 3 c 1,126,-1
 744 2 l 2,127,128
 740 1 740 1 738 -2 c 2,129,-1
 731 -5 l 2,130,131
 647 -52 647 -52 550 -52 c 0,0,1
550 20 m 0,132,133
 611 20 611 20 668 43 c 0,134,135
 669 44 669 44 669.5 44 c 128,-1,136
 670 44 670 44 670 44 c 1,137,-1
 696 57 l 1,138,139
 696 57 696 57 696 57 c 1,140,141
 701 59 701 59 702 61 c 2,142,-1
 710 64 l 1,143,144
 710 64 710 64 710 64 c 1,145,-1
 722 73 l 1,146,147
 722 73 722 73 722 73 c 1,148,-1
 735 81 l 2,149,150
 735 82 735 82 736 82 c 1,151,-1
 736 82 l 1,152,153
 784 118 784 118 815 174 c 0,154,155
 832 202 832 202 840 229 c 2,156,-1
 844 241 l 1,157,158
 844 241 844 241 844 241 c 1,159,160
 845 243 845 243 845 247 c 0,161,162
 846 248 846 248 846 252 c 2,163,-1
 848 253 l 2,164,165
 848 257 848 257 850 264 c 2,166,-1
 850 265 l 1,167,168
 856 299 856 299 856 326 c 0,169,170
 856 387 856 387 833 444 c 0,171,172
 832 445 832 445 832 445.5 c 128,-1,173
 832 446 832 446 832 446 c 1,174,-1
 821 468 l 2,175,176
 821 470 821 470 819 472 c 1,177,178
 819 472 819 472 819 472 c 1,179,180
 817 477 817 477 815 478 c 2,181,-1
 812 486 l 1,182,183
 812 486 812 486 812 486 c 1,184,-1
 808 490 l 2,185,186
 806 495 806 495 803 498 c 1,187,188
 803 498 803 498 803 498 c 1,189,-1
 801 501 l 2,190,191
 799 506 799 506 796 508 c 2,192,-1
 795 511 l 2,193,194
 794 511 794 511 794 512 c 1,195,-1
 794 512 l 1,196,197
 758 559 758 559 704 591 c 0,198,199
 674 608 674 608 647 616 c 2,200,-1
 635 620 l 1,201,202
 635 620 635 620 635 620 c 1,203,204
 633 621 633 621 629 621 c 0,205,206
 628 622 628 622 624 622 c 1,207,-1
 624 624 l 1,208,209
 624 624 624 624 623 624 c 0,210,211
 619 624 619 624 612 626 c 2,212,-1
 611 626 l 1,213,214
 577 632 577 632 550 632 c 0,215,216
 490 632 490 632 432 609 c 0,217,218
 432 608 432 608 430 608 c 2,219,-1
 408 597 l 2,220,221
 406 597 406 597 402.5 594.5 c 128,-1,222
 399 592 399 592 398 591 c 2,223,-1
 390 588 l 1,224,-1
 386 584 l 2,225,226
 381 582 381 582 378 579 c 2,227,-1
 375 577 l 2,228,229
 370 575 370 575 368 572 c 2,230,-1
 365 571 l 2,231,232
 365 570 365 570 364 570 c 0,233,234
 317 534 317 534 285 480 c 0,235,236
 268 450 268 450 260 423 c 2,237,-1
 256 411 l 1,238,-1
 255 405 l 2,239,240
 254 404 254 404 254 400 c 2,241,-1
 252 399 l 2,242,243
 252 395 252 395 250 388 c 2,244,-1
 250 387 l 1,245,246
 244 353 244 353 244 326 c 0,247,248
 244 266 244 266 267 208 c 0,249,250
 268 208 268 208 268 206 c 2,251,-1
 281 180 l 2,252,253
 283 175 283 175 285 174 c 2,254,-1
 288 166 l 1,255,-1
 305 141 l 2,256,257
 306 141 306 141 306 140 c 0,258,259
 342 92 342 92 398 61 c 0,260,261
 426 44 426 44 453 36 c 2,262,-1
 465 32 l 1,263,-1
 471 31 l 2,264,265
 472 30 472 30 476 30 c 2,266,-1
 477 30 l 1,267,268
 477 30 477 30 477 28 c 1,269,270
 481 28 481 28 488 26 c 2,271,-1
 489 26 l 1,272,273
 522 20 522 20 550 20 c 0,132,133
550 290 m 1,274,275
 550 290 550 290 549 290 c 2,276,-1
 540 291 l 2,277,278
 535 292 535 292 532 295 c 2,279,-1
 324 415 l 2,280,281
 311 422 311 422 307.5 436.5 c 128,-1,282
 304 451 304 451 311 464 c 128,-1,283
 318 477 318 477 332.5 480.5 c 128,-1,284
 347 484 347 484 360 477 c 2,285,-1
 537 375 l 1,286,-1
 597 480 l 2,287,288
 604 493 604 493 618.5 496.5 c 128,-1,289
 633 500 633 500 646 493 c 128,-1,290
 659 486 659 486 662.5 471.5 c 128,-1,291
 666 457 666 457 659 444 c 2,292,-1
 581 308 l 2,293,294
 579 304 579 304 576 301 c 2,295,-1
 566 294 l 1,296,-1
 552 290 l 1,297,-1
 550 290 l 1,274,275
EndSplineSet
EndChar

StartChar: 00:55
Encoding: 59403 59403 12
Width: 1100
VWidth: 834
GlyphClass: 1
Flags: W
LayerCount: 2
Fore
SplineSet
550 -52 m 2,0,1
 545 -52 545 -52 540 -52 c 2,2,-1
 519 -51 l 2,3,4
 515 -50 515 -50 506 -50 c 2,5,-1
 488 -47 l 2,6,7
 486 -46 486 -46 480 -46 c 0,8,9
 473 -44 473 -44 470 -44 c 2,10,-1
 461 -41 l 2,11,12
 457 -41 457 -41 453 -39 c 2,13,-1
 424 -30 l 1,14,-1
 406 -23 l 2,15,16
 404 -23 404 -23 401 -21 c 2,17,-1
 388 -16 l 1,18,-1
 371 -6 l 2,19,20
 370 -6 370 -6 369 -5 c 2,21,-1
 353 3 l 2,22,23
 353 4 353 4 351 4 c 2,24,-1
 335 15 l 2,25,26
 328 20 328 20 324 24 c 0,27,28
 322 25 322 25 320 27 c 0,29,30
 313 32 313 32 310 34 c 2,31,-1
 304 39 l 2,32,33
 299 44 299 44 296 46 c 2,34,-1
 290 52 l 1,35,-1
 282 58 l 1,36,-1
 270 72 l 2,37,38
 268 76 268 76 263 80 c 2,39,-1
 258 86 l 2,40,41
 256 88 256 88 251 96 c 0,42,43
 249 98 249 98 248 100 c 0,44,45
 244 104 244 104 239 111 c 2,46,-1
 228 127 l 2,47,48
 228 129 228 129 227 129 c 2,49,-1
 219 145 l 2,50,51
 218 146 218 146 218 147 c 2,52,-1
 208 164 l 1,53,-1
 203 177 l 2,54,55
 201 179 201 179 201 182 c 2,56,-1
 190 211 l 1,57,-1
 185 229 l 2,58,59
 183 234 183 234 183 237 c 2,60,-1
 180 246 l 2,61,62
 180 250 180 250 178 256 c 0,63,64
 178 261 178 261 177 264 c 2,65,-1
 174 282 l 2,66,67
 174 292 174 292 173 295 c 2,68,-1
 172 315 l 1,69,-1
 172 336 l 1,70,-1
 173 357 l 2,71,72
 174 362 174 362 174 370 c 2,73,-1
 177 388 l 2,74,75
 178 390 178 390 178 396 c 0,76,77
 180 403 180 403 180 406 c 2,78,-1
 183 415 l 2,79,80
 183 417 183 417 185 424 c 2,81,-1
 196 458 l 2,82,83
 197 460 197 460 198 465 c 2,84,-1
 201 470 l 2,85,86
 201 472 201 472 203 475 c 2,87,-1
 208 488 l 1,88,-1
 218 505 l 2,89,90
 218 506 218 506 219 507 c 2,91,-1
 222 516 l 2,92,93
 224 518 224 518 227 523 c 0,94,95
 228 524 228 524 228 525 c 2,96,-1
 248 553 l 1,97,-1
 251 556 l 2,98,99
 256 563 256 563 258 566 c 2,100,-1
 270 580 l 2,101,102
 271 581 271 581 274 584 c 2,103,-1
 276 586 l 1,104,-1
 282 594 l 2,105,106
 287 599 287 599 290 600 c 2,107,-1
 296 606 l 2,108,109
 300 608 300 608 304 612 c 128,-1,110
 308 616 308 616 310 618 c 128,-1,111
 312 620 312 620 320 625 c 0,112,113
 322 627 322 627 324 628 c 0,114,115
 328 632 328 632 335 637 c 2,116,-1
 356 650 l 2,117,118
 360 652 360 652 362 654 c 2,119,-1
 369 657 l 2,120,121
 370 658 370 658 371 658 c 2,122,-1
 388 668 l 1,123,-1
 401 673 l 2,124,125
 403 675 403 675 405.5 676.5 c 128,-1,126
 408 678 408 678 416 679 c 2,127,-1
 443 688 l 2,128,129
 448 690 448 690 453 691.5 c 128,-1,130
 458 693 458 693 461 693 c 2,131,-1
 470 696 l 2,132,133
 474 696 474 696 480 698 c 0,134,135
 485 698 485 698 488 699 c 2,136,-1
 539 704 l 1,137,-1
 560 704 l 1,138,-1
 581 703 l 1,139,-1
 612 699 l 2,140,141
 614 698 614 698 620 698 c 0,142,143
 627 696 627 696 630 696 c 2,144,-1
 639 693 l 2,145,146
 641 693 641 693 648 691 c 0,147,148
 652 691 652 691 657 688 c 2,149,-1
 682 680 l 2,150,151
 689 678 689 678 694 675 c 0,152,153
 696 675 696 675 699 673 c 2,154,-1
 712 668 l 1,155,-1
 729 658 l 2,156,157
 730 658 730 658 731 657 c 2,158,-1
 740 654 l 1,159,-1
 777 628 l 1,160,-1
 780 625 l 2,161,162
 787 620 787 620 789.5 618 c 128,-1,163
 792 616 792 616 796 613 c 2,164,-1
 804 606 l 2,165,166
 805 605 805 605 808 602 c 2,167,-1
 810 600 l 2,168,169
 812 599 812 599 817 594 c 128,-1,170
 822 589 822 589 824 586 c 2,171,-1
 826 584 l 2,172,173
 828 582 828 582 830 580 c 2,174,-1
 837 572 l 2,175,176
 841 568 841 568 842.5 566 c 128,-1,177
 844 564 844 564 849 556 c 2,178,-1
 852 553 l 1,179,-1
 878 516 l 1,180,-1
 881 507 l 2,181,182
 882 506 882 506 882 505 c 2,183,-1
 892 488 l 1,184,-1
 897 475 l 2,185,186
 899 473 899 473 899 470 c 0,187,188
 901 465 901 465 904 458 c 2,189,-1
 912 433 l 2,190,191
 914 428 914 428 915 424 c 0,192,193
 917 417 917 417 917 415 c 2,194,-1
 920 406 l 2,195,196
 920 402 920 402 922 396 c 0,197,198
 922 391 922 391 923 388 c 2,199,-1
 928 338 l 1,200,-1
 928 316 l 1,201,-1
 927 295 l 1,202,-1
 923 264 l 2,203,204
 922 262 922 262 922 256 c 0,205,206
 920 249 920 249 920 246 c 2,207,-1
 917 237 l 2,208,209
 917 233 917 233 916 228.5 c 128,-1,210
 915 224 915 224 912 219 c 2,211,-1
 903 192 l 2,212,213
 902 185 902 185 900.5 182.5 c 128,-1,214
 899 180 899 180 897 177 c 2,215,-1
 892 164 l 1,216,-1
 882 147 l 2,217,218
 882 146 882 146 881 145 c 2,219,-1
 878 138 l 2,220,221
 877 136 877 136 874 132 c 2,222,-1
 861 111 l 2,223,224
 856 104 856 104 852 100 c 0,225,226
 851 98 851 98 849 96 c 0,227,228
 844 89 844 89 842 86.5 c 128,-1,229
 840 84 840 84 836 79.5 c 128,-1,230
 832 75 832 75 830 72 c 2,231,-1
 824 66 l 2,232,233
 823 64 823 64 818 58 c 2,234,-1
 808 50 l 2,235,236
 806 48 806 48 804 46 c 2,237,-1
 790 34 l 2,238,239
 788 32 788 32 780 27 c 2,240,-1
 777 24 l 1,241,-1
 749 4 l 2,242,243
 748 4 748 4 747 3 c 0,244,245
 742 1 742 1 740 -2 c 2,246,-1
 731 -5 l 2,247,248
 730 -6 730 -6 729 -6 c 2,249,-1
 712 -16 l 1,250,-1
 699 -21 l 2,251,252
 697 -23 697 -23 694 -23 c 2,253,-1
 689 -26 l 2,254,255
 684 -27 684 -27 682 -28 c 2,256,-1
 648 -39 l 2,257,258
 641 -41 641 -41 639 -41 c 2,259,-1
 630 -44 l 2,260,261
 626 -44 626 -44 620 -46 c 0,262,263
 615 -46 615 -46 612 -47 c 2,264,-1
 594 -50 l 2,265,266
 586 -50 586 -50 581 -51 c 2,267,-1
 562 -52 l 1,268,-1
 550 -52 l 2,0,1
550 20 m 256,269,270
 578 20 578 20 611 26 c 1,271,-1
 612 26 l 2,272,273
 619 28 619 28 623 28 c 2,274,-1
 647 36 l 2,275,276
 673 44 673 44 702.5 61 c 128,-1,277
 732 78 732 78 753 97 c 2,278,-1
 754 98 l 2,279,280
 759 103 759 103 762 105.5 c 128,-1,281
 765 108 765 108 766.5 109.5 c 128,-1,282
 768 111 768 111 770.5 114 c 128,-1,283
 773 117 773 117 778 122 c 0,284,285
 779 122 779 122 779 123 c 1,286,-1
 779 123 l 1,287,288
 802 149 802 149 815 174 c 0,289,290
 832 202 832 202 840 229 c 2,291,-1
 844 241 l 2,292,293
 845 243 845 243 845 247 c 2,294,-1
 848 253 l 2,295,296
 848 257 848 257 850 264 c 2,297,-1
 850 265 l 1,298,299
 856 299 856 299 856 326.5 c 128,-1,300
 856 354 856 354 850 387 c 1,301,-1
 850 388 l 2,302,303
 848 395 848 395 848 399 c 2,304,-1
 845 405 l 2,305,306
 845 409 845 409 844 411 c 2,307,-1
 840 423 l 2,308,309
 832 449 832 449 815 478.5 c 128,-1,310
 798 508 798 508 779 529 c 1,311,-1
 779 530 l 1,312,313
 779 530 779 530 778 530 c 0,314,315
 773 535 773 535 770.5 538 c 128,-1,316
 768 541 768 541 766.5 542.5 c 128,-1,317
 765 544 765 544 762 546.5 c 128,-1,318
 759 549 759 549 754 554 c 0,319,320
 754 555 754 555 754 555 c 1,321,-1
 753 555 l 1,322,323
 733 574 733 574 703.5 591 c 128,-1,324
 674 608 674 608 647 616 c 2,325,-1
 635 620 l 2,326,327
 633 621 633 621 629 621 c 2,328,-1
 623 624 l 2,329,330
 619 624 619 624 612 626 c 2,331,-1
 611 626 l 1,332,333
 577 632 577 632 549.5 632 c 128,-1,334
 522 632 522 632 489 626 c 1,335,-1
 488 626 l 2,336,337
 481 624 481 624 477 624 c 2,338,-1
 471 621 l 2,339,340
 467 621 467 621 465 620 c 2,341,-1
 453 616 l 2,342,343
 425 608 425 608 398 591 c 0,344,345
 374 578 374 578 347 555 c 1,346,-1
 347 555 l 1,347,348
 346 555 346 555 346 554 c 0,349,350
 341 549 341 549 338 546.5 c 128,-1,351
 335 544 335 544 333.5 542.5 c 128,-1,352
 332 541 332 541 329.5 538 c 128,-1,353
 327 535 327 535 322 530 c 2,354,-1
 321 529 l 2,355,356
 302 509 302 509 285 479.5 c 128,-1,357
 268 450 268 450 260 423 c 2,358,-1
 256 411 l 1,359,-1
 255 405 l 1,360,-1
 252 399 l 2,361,362
 252 395 252 395 250 388 c 2,363,-1
 250 387 l 1,364,365
 244 353 244 353 244 325.5 c 128,-1,366
 244 298 244 298 250 265 c 1,367,-1
 250 264 l 2,368,369
 252 257 252 257 252 253 c 2,370,-1
 260 229 l 2,371,372
 268 201 268 201 285 174 c 0,373,374
 298 150 298 150 321 123 c 2,375,-1
 322 122 l 2,376,377
 327 117 327 117 329.5 114 c 128,-1,378
 332 111 332 111 333.5 109.5 c 128,-1,379
 335 108 335 108 338 105.5 c 128,-1,380
 341 103 341 103 346 98 c 2,381,-1
 347 97 l 2,382,383
 373 74 373 74 398 61 c 0,384,385
 426 44 426 44 453 36 c 2,386,-1
 465 32 l 1,387,-1
 471 31 l 1,388,-1
 477 28 l 2,389,390
 481 28 481 28 488 26 c 2,391,-1
 489 26 l 1,392,393
 522 20 522 20 550 20 c 256,269,270
550 290 m 1,394,395
 550 290 550 290 549 290 c 2,396,-1
 540 291 l 2,397,398
 535 292 535 292 531.5 294.5 c 128,-1,399
 528 297 528 297 525 301 c 2,400,-1
 519 308 l 1,401,-1
 399 516 l 2,402,403
 392 529 392 529 395.5 543.5 c 128,-1,404
 399 558 399 558 412 565 c 128,-1,405
 425 572 425 572 439.5 568.5 c 128,-1,406
 454 565 454 565 461 552 c 2,407,-1
 550 398 l 1,408,-1
 597 480 l 2,409,410
 604 493 604 493 618.5 496.5 c 128,-1,411
 633 500 633 500 646 493 c 128,-1,412
 659 486 659 486 662.5 471.5 c 128,-1,413
 666 457 666 457 659 444 c 2,414,-1
 581 308 l 2,415,416
 579 304 579 304 576 302 c 2,417,-1
 576 301 l 2,418,419
 574 299 574 299 570 296 c 2,420,-1
 566 294 l 1,421,-1
 552 290 l 1,422,-1
 550 290 l 1,394,395
EndSplineSet
EndChar

StartChar: 01:00
Encoding: 59404 59404 13
Width: 1100
VWidth: 834
GlyphClass: 1
Flags: W
LayerCount: 2
Fore
SplineSet
550 -52 m 0,0,1
 545 -52 545 -52 540 -52 c 2,2,-1
 524 -51 l 1,3,-1
 524 -51 l 1,4,-1
 519 -51 l 2,5,6
 515 -50 515 -50 506 -50 c 2,7,-1
 488 -47 l 2,8,9
 486 -46 486 -46 480 -46 c 0,10,11
 473 -44 473 -44 470 -44 c 2,12,-1
 461 -41 l 2,13,14
 457 -41 457 -41 453 -39 c 2,15,-1
 435 -34 l 1,16,17
 435 -34 435 -34 435 -34 c 1,18,-1
 424 -30 l 1,19,-1
 406 -23 l 2,20,21
 404 -23 404 -23 401 -21 c 1,22,23
 401 -21 401 -21 401 -21 c 1,24,-1
 388 -16 l 1,25,-1
 371 -6 l 2,26,27
 370 -6 370 -6 369.5 -5.5 c 128,-1,28
 369 -5 369 -5 369 -5 c 1,29,-1
 362 -2 l 1,30,31
 276 48 276 48 227 130 c 0,32,33
 225 135 225 135 222 138 c 1,34,35
 222 138 222 138 222 138 c 1,36,-1
 219 145 l 2,37,38
 172 229 172 229 172 326 c 2,39,-1
 172 336 l 1,40,-1
 173 352 l 1,41,42
 173 352 173 352 173 352 c 1,43,-1
 173 357 l 2,44,45
 174 362 174 362 174 370 c 2,46,-1
 177 388 l 2,47,48
 178 390 178 390 178 396 c 0,49,50
 180 403 180 403 180 406 c 2,51,-1
 183 415 l 2,52,53
 183 417 183 417 185 424 c 2,54,-1
 190 441 l 1,55,56
 190 441 190 441 190 441 c 1,57,-1
 196 458 l 2,58,59
 197 460 197 460 198 465 c 2,60,-1
 201 470 l 2,61,62
 201 472 201 472 203 475 c 1,63,64
 203 475 203 475 203 475 c 1,65,-1
 208 488 l 1,66,-1
 218 505 l 2,67,68
 218 506 218 506 218.5 506.5 c 128,-1,69
 219 507 219 507 219 507 c 1,70,-1
 222 516 l 1,71,72
 272 601 272 601 354 649 c 1,73,-1
 362 654 l 1,74,75
 362 654 362 654 362 654 c 1,76,-1
 369 657 l 2,77,78
 453 704 453 704 550 704 c 2,79,-1
 560 704 l 1,80,-1
 581 703 l 2,81,82
 586 703 586 703 588 702 c 2,83,-1
 594 702 l 1,84,-1
 600 700 l 2,85,86
 605 700 605 700 608 699 c 2,87,-1
 612 699 l 2,88,89
 614 698 614 698 620 698 c 0,90,91
 627 696 627 696 630 696 c 2,92,-1
 639 693 l 2,93,94
 643 693 643 693 645 692.5 c 128,-1,95
 647 692 647 692 648 691 c 0,96,97
 652 691 652 691 657 688 c 2,98,-1
 682 680 l 2,99,100
 689 678 689 678 694 675 c 0,101,102
 696 675 696 675 699 673 c 2,103,-1
 712 668 l 2,104,105
 712 667 712 667 713 667 c 2,106,-1
 729 658 l 2,107,108
 730 658 730 658 731 657 c 2,109,-1
 740 654 l 1,110,111
 824 604 824 604 873 523 c 1,112,-1
 881 507 l 2,113,114
 928 423 928 423 928 326 c 2,115,-1
 928 316 l 1,116,-1
 927 295 l 1,117,-1
 923 264 l 2,118,119
 922 262 922 262 922 256 c 0,120,121
 920 249 920 249 920 246 c 2,122,-1
 917 237 l 2,123,124
 917 233 917 233 916 228.5 c 128,-1,125
 915 224 915 224 912 219 c 2,126,-1
 903 192 l 2,127,128
 902 185 902 185 900.5 182.5 c 128,-1,129
 899 180 899 180 897 177 c 2,130,-1
 892 164 l 1,131,-1
 882 147 l 2,132,133
 882 146 882 146 881 145 c 2,134,-1
 878 138 l 1,135,136
 828 53 828 53 747 3 c 1,137,-1
 744 2 l 2,138,139
 740 1 740 1 738 -2 c 2,140,-1
 731 -5 l 2,141,142
 647 -52 647 -52 550 -52 c 0,0,1
550 20 m 0,143,144
 611 20 611 20 668 43 c 1,145,-1
 668 44 l 1,146,-1
 670 44 l 1,147,-1
 696 57 l 2,148,149
 701 59 701 59 702 61 c 2,150,-1
 704 61 l 2,151,152
 705 62 705 62 710 64 c 0,153,154
 710 65 710 65 711 66 c 2,155,-1
 725 75 l 1,156,157
 725 75 725 75 725 75 c 1,158,-1
 735 81 l 2,159,160
 735 82 735 82 736 82 c 1,161,-1
 736 82 l 1,162,163
 736 82 736 82 736 82 c 1,164,165
 784 118 784 118 815 174 c 0,166,167
 832 202 832 202 840 229 c 1,168,-1
 840 230 l 1,169,170
 840 230 840 230 840 230 c 1,171,-1
 844 241 l 2,172,173
 845 243 845 243 845 247 c 1,174,175
 845 247 845 247 845 247 c 1,176,-1
 848 253 l 2,177,178
 848 257 848 257 850 264 c 2,179,-1
 850 265 l 1,180,181
 856 299 856 299 856 326 c 0,182,183
 856 387 856 387 833 444 c 1,184,185
 833 444 833 444 832.5 444.5 c 128,-1,186
 832 445 832 445 832 446 c 2,187,-1
 821 468 l 2,188,189
 821 470 821 470 818.5 473.5 c 128,-1,190
 816 477 816 477 815 478 c 2,191,-1
 815 480 l 2,192,193
 814 481 814 481 812 486 c 2,194,-1
 808 490 l 2,195,196
 806 495 806 495 803 498 c 2,197,-1
 801 501 l 1,198,199
 801 501 801 501 801 501 c 1,200,-1
 795 511 l 2,201,202
 794 511 794 511 794 512 c 1,203,-1
 794 512 l 1,204,205
 794 512 794 512 794 512 c 1,206,207
 758 559 758 559 704 591 c 0,208,209
 674 608 674 608 647 616 c 1,210,-1
 646 616 l 1,211,212
 646 616 646 616 646 616 c 1,213,-1
 635 620 l 2,214,215
 633 621 633 621 629 621 c 1,216,217
 629 621 629 621 629 621 c 1,218,-1
 623 624 l 2,219,220
 619 624 619 624 612 626 c 2,221,-1
 611 626 l 1,222,223
 577 632 577 632 550 632 c 0,224,225
 490 632 490 632 432 609 c 0,226,227
 432 608 432 608 430 608 c 2,228,-1
 408 597 l 2,229,230
 406 597 406 597 402.5 594.5 c 128,-1,231
 399 592 399 592 398 591 c 2,232,-1
 390 588 l 1,233,-1
 386 584 l 2,234,235
 381 582 381 582 378 579 c 2,236,-1
 365 571 l 2,237,238
 365 570 365 570 364 570 c 0,239,240
 317 534 317 534 285 480 c 0,241,242
 268 450 268 450 260 423 c 2,243,-1
 256 411 l 1,244,-1
 255 405 l 1,245,-1
 252 399 l 2,246,247
 252 395 252 395 250 388 c 2,248,-1
 250 387 l 1,249,250
 244 353 244 353 244 326 c 2,251,-1
 244 310 l 2,252,253
 248 258 248 258 267 208 c 0,254,255
 268 208 268 208 268 206 c 2,256,-1
 281 180 l 2,257,258
 283 175 283 175 285 174 c 2,259,-1
 288 166 l 2,260,261
 289 166 289 166 290 166 c 1,262,-1
 305 141 l 2,263,264
 306 141 306 141 306 140 c 0,265,266
 342 92 342 92 398 61 c 0,267,268
 426 44 426 44 453 36 c 2,269,-1
 465 32 l 1,270,-1
 471 31 l 1,271,-1
 477 28 l 2,272,273
 481 28 481 28 488 26 c 2,274,-1
 489 26 l 1,275,276
 522 20 522 20 550 20 c 0,143,144
550 290 m 1,277,278
 550 290 550 290 549 290 c 2,279,-1
 540 291 l 2,280,281
 535 292 535 292 531.5 294.5 c 128,-1,282
 528 297 528 297 525 301 c 2,283,-1
 518 310 l 1,284,-1
 514 324 l 1,285,-1
 514 566 l 2,286,287
 514 580 514 580 525 591 c 128,-1,288
 536 602 536 602 550 602 c 128,-1,289
 564 602 564 602 575 591 c 128,-1,290
 586 580 586 580 586 566 c 2,291,-1
 586 460 l 1,292,-1
 597 480 l 2,293,294
 604 493 604 493 618.5 496.5 c 128,-1,295
 633 500 633 500 646 493 c 128,-1,296
 659 486 659 486 662.5 471.5 c 128,-1,297
 666 457 666 457 659 444 c 2,298,-1
 581 308 l 2,299,300
 579 304 579 304 576 302 c 2,301,-1
 576 301 l 2,302,303
 574 299 574 299 570 296 c 1,304,-1
 570 296 l 1,305,306
 566 294 566 294 563 292 c 1,307,-1
 563 292 l 1,308,309
 559 291 559 291 556 290 c 2,310,-1
 550 290 l 1,277,278
EndSplineSet
EndChar

StartChar: 01:05
Encoding: 59405 59405 14
Width: 1100
VWidth: 834
GlyphClass: 1
Flags: W
LayerCount: 2
Fore
SplineSet
550 -52 m 0,0,1
 545 -52 545 -52 540 -52 c 2,2,-1
 519 -51 l 1,3,4
 519 -51 519 -51 519 -51 c 1,5,6
 514 -50 514 -50 506 -50 c 2,7,-1
 488 -47 l 2,8,9
 486 -46 486 -46 480 -46 c 0,10,11
 473 -44 473 -44 470 -44 c 2,12,-1
 461 -41 l 2,13,14
 457 -41 457 -41 453 -39 c 2,15,-1
 443 -36 l 1,16,-1
 443 -36 l 1,17,-1
 424 -30 l 1,18,-1
 406 -23 l 1,19,20
 406 -23 406 -23 405 -23 c 128,-1,21
 404 -23 404 -23 401 -21 c 2,22,-1
 388 -16 l 1,23,24
 388 -16 388 -16 388 -16 c 1,25,-1
 371 -6 l 1,26,27
 371 -6 371 -6 370.5 -6 c 128,-1,28
 370 -6 370 -6 369 -5 c 2,29,-1
 362 -2 l 1,30,31
 276 48 276 48 227 130 c 0,32,33
 225 135 225 135 222 138 c 2,34,-1
 219 145 l 2,35,36
 172 229 172 229 172 326 c 2,37,-1
 172 338 l 1,38,39
 172 338 172 338 172 338 c 1,40,-1
 173 357 l 1,41,42
 173 357 173 357 173 357 c 1,43,44
 174 362 174 362 174 370 c 2,45,-1
 177 388 l 2,46,47
 178 390 178 390 178 396 c 0,48,49
 180 403 180 403 180 406 c 2,50,-1
 183 415 l 2,51,52
 183 417 183 417 185 424 c 2,53,-1
 188 433 l 1,54,55
 188 433 188 433 188 433 c 1,56,-1
 196 458 l 2,57,58
 197 460 197 460 198 465 c 2,59,-1
 201 470 l 2,60,61
 201 472 201 472 203 475 c 2,62,-1
 208 488 l 1,63,64
 208 488 208 488 208 488 c 1,65,-1
 218 505 l 1,66,67
 218 505 218 505 218 505.5 c 128,-1,68
 218 506 218 506 219 507 c 2,69,-1
 222 516 l 1,70,71
 272 601 272 601 354 649 c 2,72,-1
 369 657 l 2,73,74
 453 704 453 704 550 704 c 2,75,-1
 562 704 l 1,76,77
 562 704 562 704 562 704 c 1,78,-1
 581 703 l 1,79,-1
 612 699 l 2,80,81
 614 698 614 698 620 698 c 0,82,83
 627 696 627 696 630 696 c 2,84,-1
 639 693 l 2,85,86
 641 693 641 693 648 691 c 0,87,88
 652 691 652 691 657 688 c 2,89,-1
 682 680 l 2,90,91
 689 678 689 678 694 675 c 0,92,93
 696 675 696 675 699 673 c 2,94,-1
 712 668 l 1,95,-1
 729 658 l 2,96,97
 730 658 730 658 731 657 c 2,98,-1
 740 654 l 1,99,100
 824 604 824 604 873 523 c 1,101,-1
 881 507 l 2,102,103
 928 423 928 423 928 326 c 2,104,-1
 928 316 l 1,105,-1
 927 295 l 1,106,-1
 923 264 l 2,107,108
 922 262 922 262 922 256 c 0,109,110
 920 249 920 249 920 246 c 2,111,-1
 917 237 l 2,112,113
 917 233 917 233 916 228.5 c 128,-1,114
 915 224 915 224 912 219 c 2,115,-1
 903 192 l 2,116,117
 902 185 902 185 900.5 182.5 c 128,-1,118
 899 180 899 180 897 177 c 2,119,-1
 892 164 l 1,120,-1
 882 147 l 2,121,122
 882 146 882 146 881 145 c 2,123,-1
 878 138 l 1,124,125
 828 53 828 53 747 3 c 1,126,-1
 744 2 l 2,127,128
 740 1 740 1 738 -2 c 2,129,-1
 731 -5 l 2,130,131
 647 -52 647 -52 550 -52 c 0,0,1
550 20 m 0,132,133
 611 20 611 20 668 43 c 0,134,135
 669 44 669 44 669.5 44 c 128,-1,136
 670 44 670 44 670 44 c 1,137,-1
 696 57 l 1,138,139
 696 57 696 57 696 57 c 1,140,141
 701 59 701 59 702 61 c 2,142,-1
 710 64 l 1,143,144
 710 64 710 64 710 64 c 1,145,-1
 722 73 l 1,146,147
 722 73 722 73 722 73 c 1,148,-1
 735 81 l 2,149,150
 735 82 735 82 736 82 c 1,151,-1
 736 82 l 1,152,153
 784 118 784 118 815 174 c 0,154,155
 832 202 832 202 840 229 c 2,156,-1
 844 241 l 1,157,158
 844 241 844 241 844 241 c 1,159,160
 845 243 845 243 845 247 c 0,161,162
 846 248 846 248 846 252 c 2,163,-1
 848 253 l 2,164,165
 848 257 848 257 850 264 c 2,166,-1
 850 265 l 1,167,168
 856 299 856 299 856 326 c 0,169,170
 856 387 856 387 833 444 c 0,171,172
 832 445 832 445 832 445.5 c 128,-1,173
 832 446 832 446 832 446 c 1,174,-1
 821 468 l 2,175,176
 821 470 821 470 819 472 c 1,177,178
 819 472 819 472 819 472 c 1,179,180
 817 477 817 477 815 478 c 2,181,-1
 812 486 l 1,182,183
 812 486 812 486 812 486 c 1,184,-1
 808 490 l 2,185,186
 806 495 806 495 803 498 c 1,187,188
 803 498 803 498 803 498 c 1,189,-1
 801 501 l 2,190,191
 799 506 799 506 796 508 c 2,192,-1
 795 511 l 2,193,194
 794 511 794 511 794 512 c 1,195,-1
 794 512 l 1,196,197
 758 559 758 559 704 591 c 0,198,199
 674 608 674 608 647 616 c 2,200,-1
 635 620 l 1,201,202
 635 620 635 620 635 620 c 1,203,204
 633 621 633 621 629 621 c 0,205,206
 628 622 628 622 624 622 c 1,207,-1
 624 624 l 1,208,209
 624 624 624 624 623 624 c 0,210,211
 619 624 619 624 612 626 c 2,212,-1
 611 626 l 1,213,214
 577 632 577 632 550 632 c 0,215,216
 490 632 490 632 432 609 c 0,217,218
 432 608 432 608 430 608 c 2,219,-1
 408 597 l 2,220,221
 406 597 406 597 402.5 594.5 c 128,-1,222
 399 592 399 592 398 591 c 2,223,-1
 390 588 l 1,224,-1
 386 584 l 2,225,226
 381 582 381 582 378 579 c 2,227,-1
 375 577 l 2,228,229
 370 575 370 575 368 572 c 2,230,-1
 365 571 l 2,231,232
 365 570 365 570 364 570 c 0,233,234
 317 534 317 534 285 480 c 0,235,236
 268 450 268 450 260 423 c 2,237,-1
 256 411 l 1,238,-1
 255 405 l 2,239,240
 254 404 254 404 254 400 c 2,241,-1
 252 399 l 2,242,243
 252 395 252 395 250 388 c 2,244,-1
 250 387 l 1,245,246
 244 353 244 353 244 326 c 0,247,248
 244 266 244 266 267 208 c 0,249,250
 268 208 268 208 268 206 c 2,251,-1
 281 180 l 2,252,253
 283 175 283 175 285 174 c 2,254,-1
 288 166 l 1,255,-1
 305 141 l 2,256,257
 306 141 306 141 306 140 c 0,258,259
 342 92 342 92 398 61 c 0,260,261
 426 44 426 44 453 36 c 2,262,-1
 465 32 l 1,263,-1
 471 31 l 2,264,265
 472 30 472 30 476 30 c 2,266,-1
 477 30 l 1,267,268
 477 30 477 30 477 28 c 1,269,270
 481 28 481 28 488 26 c 2,271,-1
 489 26 l 1,272,273
 522 20 522 20 550 20 c 0,132,133
550 290 m 1,274,275
 550 290 550 290 549 290 c 2,276,-1
 540 291 l 2,277,278
 535 292 535 292 531.5 294.5 c 128,-1,279
 528 297 528 297 525 301 c 2,280,-1
 518 310 l 1,281,-1
 514 324 l 1,282,-1
 515 336 l 2,283,284
 516 341 516 341 519 344 c 2,285,-1
 639 552 l 2,286,287
 646 565 646 565 660.5 568.5 c 128,-1,288
 675 572 675 572 688 565 c 128,-1,289
 701 558 701 558 704.5 543.5 c 128,-1,290
 708 529 708 529 701 516 c 2,291,-1
 581 308 l 2,292,293
 579 304 579 304 576 301 c 2,294,-1
 566 294 l 1,295,-1
 552 290 l 1,296,-1
 550 290 l 1,274,275
EndSplineSet
EndChar

StartChar: 01:10
Encoding: 59406 59406 15
Width: 1100
VWidth: 834
GlyphClass: 1
Flags: W
LayerCount: 2
Fore
SplineSet
550 -52 m 2,0,1
 545 -52 545 -52 540 -52 c 2,2,-1
 519 -51 l 2,3,4
 515 -50 515 -50 506 -50 c 2,5,-1
 488 -47 l 2,6,7
 486 -46 486 -46 480 -46 c 0,8,9
 473 -44 473 -44 470 -44 c 2,10,-1
 461 -41 l 2,11,12
 457 -41 457 -41 453 -39 c 2,13,-1
 424 -30 l 1,14,-1
 406 -23 l 2,15,16
 404 -23 404 -23 401 -21 c 2,17,-1
 388 -16 l 1,18,-1
 371 -6 l 2,19,20
 370 -6 370 -6 369 -5 c 2,21,-1
 353 3 l 2,22,23
 353 4 353 4 351 4 c 2,24,-1
 335 15 l 2,25,26
 328 20 328 20 324 24 c 0,27,28
 322 25 322 25 320 27 c 0,29,30
 313 32 313 32 310 34 c 2,31,-1
 304 39 l 2,32,33
 299 44 299 44 296 46 c 2,34,-1
 290 52 l 1,35,-1
 282 58 l 1,36,-1
 270 72 l 2,37,38
 268 76 268 76 263 80 c 2,39,-1
 258 86 l 2,40,41
 256 88 256 88 251 96 c 0,42,43
 249 98 249 98 248 100 c 0,44,45
 244 104 244 104 239 111 c 2,46,-1
 228 127 l 2,47,48
 228 129 228 129 227 129 c 2,49,-1
 219 145 l 2,50,51
 218 146 218 146 218 147 c 2,52,-1
 208 164 l 1,53,-1
 203 177 l 2,54,55
 201 179 201 179 201 182 c 2,56,-1
 190 211 l 1,57,-1
 185 229 l 2,58,59
 183 234 183 234 183 237 c 2,60,-1
 180 246 l 2,61,62
 180 250 180 250 178 256 c 0,63,64
 178 261 178 261 177 264 c 2,65,-1
 174 282 l 2,66,67
 174 292 174 292 173 295 c 2,68,-1
 172 315 l 1,69,-1
 172 336 l 1,70,-1
 173 357 l 2,71,72
 174 362 174 362 174 370 c 2,73,-1
 177 388 l 2,74,75
 178 390 178 390 178 396 c 0,76,77
 180 403 180 403 180 406 c 2,78,-1
 183 415 l 2,79,80
 183 417 183 417 185 424 c 2,81,-1
 196 458 l 2,82,83
 197 460 197 460 198 465 c 2,84,-1
 201 470 l 2,85,86
 201 472 201 472 203 475 c 2,87,-1
 208 488 l 1,88,-1
 218 505 l 2,89,90
 218 506 218 506 219 507 c 2,91,-1
 222 516 l 2,92,93
 224 518 224 518 227 523 c 0,94,95
 228 524 228 524 228 525 c 2,96,-1
 248 553 l 1,97,-1
 251 556 l 2,98,99
 256 563 256 563 258 566 c 2,100,-1
 270 580 l 2,101,102
 271 581 271 581 274 584 c 2,103,-1
 276 586 l 1,104,-1
 282 594 l 2,105,106
 287 599 287 599 290 600 c 2,107,-1
 296 606 l 2,108,109
 300 608 300 608 304 612 c 128,-1,110
 308 616 308 616 310 618 c 128,-1,111
 312 620 312 620 320 625 c 0,112,113
 322 627 322 627 324 628 c 0,114,115
 328 632 328 632 335 637 c 2,116,-1
 356 650 l 2,117,118
 360 652 360 652 362 654 c 2,119,-1
 369 657 l 2,120,121
 370 658 370 658 371 658 c 2,122,-1
 388 668 l 1,123,-1
 401 673 l 2,124,125
 403 675 403 675 405.5 676.5 c 128,-1,126
 408 678 408 678 416 679 c 2,127,-1
 443 688 l 2,128,129
 448 690 448 690 453 691.5 c 128,-1,130
 458 693 458 693 461 693 c 2,131,-1
 470 696 l 2,132,133
 474 696 474 696 480 698 c 0,134,135
 485 698 485 698 488 699 c 2,136,-1
 539 704 l 1,137,-1
 560 704 l 1,138,-1
 581 703 l 1,139,-1
 612 699 l 2,140,141
 614 698 614 698 620 698 c 0,142,143
 627 696 627 696 630 696 c 2,144,-1
 639 693 l 2,145,146
 641 693 641 693 648 691 c 0,147,148
 652 691 652 691 657 688 c 2,149,-1
 682 680 l 2,150,151
 689 678 689 678 694 675 c 0,152,153
 696 675 696 675 699 673 c 2,154,-1
 712 668 l 1,155,-1
 729 658 l 2,156,157
 730 658 730 658 731 657 c 2,158,-1
 740 654 l 1,159,-1
 777 628 l 1,160,-1
 780 625 l 2,161,162
 787 620 787 620 789.5 618 c 128,-1,163
 792 616 792 616 796 613 c 2,164,-1
 804 606 l 2,165,166
 805 605 805 605 808 602 c 2,167,-1
 810 600 l 2,168,169
 812 599 812 599 817 594 c 128,-1,170
 822 589 822 589 824 586 c 2,171,-1
 826 584 l 2,172,173
 828 582 828 582 830 580 c 2,174,-1
 837 572 l 2,175,176
 841 568 841 568 842.5 566 c 128,-1,177
 844 564 844 564 849 556 c 2,178,-1
 852 553 l 1,179,-1
 878 516 l 1,180,-1
 881 507 l 2,181,182
 882 506 882 506 882 505 c 2,183,-1
 892 488 l 1,184,-1
 897 475 l 2,185,186
 899 473 899 473 899 470 c 0,187,188
 901 465 901 465 904 458 c 2,189,-1
 912 433 l 2,190,191
 914 428 914 428 915 424 c 0,192,193
 917 417 917 417 917 415 c 2,194,-1
 920 406 l 2,195,196
 920 402 920 402 922 396 c 0,197,198
 922 391 922 391 923 388 c 2,199,-1
 928 338 l 1,200,-1
 928 316 l 1,201,-1
 927 295 l 1,202,-1
 923 264 l 2,203,204
 922 262 922 262 922 256 c 0,205,206
 920 249 920 249 920 246 c 2,207,-1
 917 237 l 2,208,209
 917 233 917 233 916 228.5 c 128,-1,210
 915 224 915 224 912 219 c 2,211,-1
 903 192 l 2,212,213
 902 185 902 185 900.5 182.5 c 128,-1,214
 899 180 899 180 897 177 c 2,215,-1
 892 164 l 1,216,-1
 882 147 l 2,217,218
 882 146 882 146 881 145 c 2,219,-1
 878 138 l 2,220,221
 877 136 877 136 874 132 c 2,222,-1
 861 111 l 2,223,224
 856 104 856 104 852 100 c 0,225,226
 851 98 851 98 849 96 c 0,227,228
 844 89 844 89 842 86.5 c 128,-1,229
 840 84 840 84 836 79.5 c 128,-1,230
 832 75 832 75 830 72 c 2,231,-1
 824 66 l 2,232,233
 823 64 823 64 818 58 c 2,234,-1
 808 50 l 2,235,236
 806 48 806 48 804 46 c 2,237,-1
 790 34 l 2,238,239
 788 32 788 32 780 27 c 2,240,-1
 777 24 l 1,241,-1
 749 4 l 2,242,243
 748 4 748 4 747 3 c 0,244,245
 742 1 742 1 740 -2 c 2,246,-1
 731 -5 l 2,247,248
 730 -6 730 -6 729 -6 c 2,249,-1
 712 -16 l 1,250,-1
 699 -21 l 2,251,252
 697 -23 697 -23 694 -23 c 2,253,-1
 689 -26 l 2,254,255
 684 -27 684 -27 682 -28 c 2,256,-1
 648 -39 l 2,257,258
 641 -41 641 -41 639 -41 c 2,259,-1
 630 -44 l 2,260,261
 626 -44 626 -44 620 -46 c 0,262,263
 615 -46 615 -46 612 -47 c 2,264,-1
 594 -50 l 2,265,266
 586 -50 586 -50 581 -51 c 2,267,-1
 562 -52 l 1,268,-1
 550 -52 l 2,0,1
550 20 m 256,269,270
 578 20 578 20 611 26 c 1,271,-1
 612 26 l 2,272,273
 619 28 619 28 623 28 c 2,274,-1
 647 36 l 2,275,276
 673 44 673 44 702.5 61 c 128,-1,277
 732 78 732 78 753 97 c 2,278,-1
 754 98 l 2,279,280
 759 103 759 103 762 105.5 c 128,-1,281
 765 108 765 108 766.5 109.5 c 128,-1,282
 768 111 768 111 770.5 114 c 128,-1,283
 773 117 773 117 778 122 c 0,284,285
 779 122 779 122 779 123 c 1,286,-1
 779 123 l 1,287,288
 802 149 802 149 815 174 c 0,289,290
 832 202 832 202 840 229 c 2,291,-1
 844 241 l 2,292,293
 845 243 845 243 845 247 c 2,294,-1
 848 253 l 2,295,296
 848 257 848 257 850 264 c 2,297,-1
 850 265 l 1,298,299
 856 299 856 299 856 326.5 c 128,-1,300
 856 354 856 354 850 387 c 1,301,-1
 850 388 l 2,302,303
 848 395 848 395 848 399 c 2,304,-1
 845 405 l 2,305,306
 845 409 845 409 844 411 c 2,307,-1
 840 423 l 2,308,309
 832 449 832 449 815 478.5 c 128,-1,310
 798 508 798 508 779 529 c 1,311,-1
 779 530 l 1,312,313
 779 530 779 530 778 530 c 0,314,315
 773 535 773 535 770.5 538 c 128,-1,316
 768 541 768 541 766.5 542.5 c 128,-1,317
 765 544 765 544 762 546.5 c 128,-1,318
 759 549 759 549 754 554 c 0,319,320
 754 555 754 555 754 555 c 1,321,-1
 753 555 l 1,322,323
 733 574 733 574 703.5 591 c 128,-1,324
 674 608 674 608 647 616 c 2,325,-1
 635 620 l 2,326,327
 633 621 633 621 629 621 c 2,328,-1
 623 624 l 2,329,330
 619 624 619 624 612 626 c 2,331,-1
 611 626 l 1,332,333
 577 632 577 632 549.5 632 c 128,-1,334
 522 632 522 632 489 626 c 1,335,-1
 488 626 l 2,336,337
 481 624 481 624 477 624 c 2,338,-1
 471 621 l 2,339,340
 467 621 467 621 465 620 c 2,341,-1
 453 616 l 2,342,343
 425 608 425 608 398 591 c 0,344,345
 374 578 374 578 347 555 c 1,346,-1
 347 555 l 1,347,348
 346 555 346 555 346 554 c 0,349,350
 341 549 341 549 338 546.5 c 128,-1,351
 335 544 335 544 333.5 542.5 c 128,-1,352
 332 541 332 541 329.5 538 c 128,-1,353
 327 535 327 535 322 530 c 2,354,-1
 321 529 l 2,355,356
 302 509 302 509 285 479.5 c 128,-1,357
 268 450 268 450 260 423 c 2,358,-1
 256 411 l 1,359,-1
 255 405 l 1,360,-1
 252 399 l 2,361,362
 252 395 252 395 250 388 c 2,363,-1
 250 387 l 1,364,365
 244 353 244 353 244 325.5 c 128,-1,366
 244 298 244 298 250 265 c 1,367,-1
 250 264 l 2,368,369
 252 257 252 257 252 253 c 2,370,-1
 260 229 l 2,371,372
 268 201 268 201 285 174 c 0,373,374
 298 150 298 150 321 123 c 2,375,-1
 322 122 l 2,376,377
 327 117 327 117 329.5 114 c 128,-1,378
 332 111 332 111 333.5 109.5 c 128,-1,379
 335 108 335 108 338 105.5 c 128,-1,380
 341 103 341 103 346 98 c 2,381,-1
 347 97 l 2,382,383
 373 74 373 74 398 61 c 0,384,385
 426 44 426 44 453 36 c 2,386,-1
 465 32 l 1,387,-1
 471 31 l 1,388,-1
 477 28 l 2,389,390
 481 28 481 28 488 26 c 2,391,-1
 489 26 l 1,392,393
 522 20 522 20 550 20 c 256,269,270
550 290 m 1,394,395
 550 290 550 290 549 290 c 2,396,-1
 540 291 l 2,397,398
 535 292 535 292 531.5 294.5 c 128,-1,399
 528 297 528 297 525 301 c 2,400,-1
 518 310 l 1,401,-1
 514 324 l 1,402,-1
 515 336 l 2,403,404
 516 341 516 341 519 344 c 2,405,-1
 597 480 l 2,406,407
 604 493 604 493 618.5 496.5 c 128,-1,408
 633 500 633 500 646 493 c 128,-1,409
 659 486 659 486 662.5 471.5 c 128,-1,410
 666 457 666 457 659 444 c 2,411,-1
 648 424 l 1,412,-1
 740 477 l 2,413,414
 753 484 753 484 767.5 480.5 c 128,-1,415
 782 477 782 477 789 464 c 128,-1,416
 796 451 796 451 792.5 436.5 c 128,-1,417
 789 422 789 422 776 415 c 2,418,-1
 566 294 l 1,419,-1
 552 290 l 1,420,-1
 550 290 l 1,394,395
EndSplineSet
EndChar

StartChar: 01:15
Encoding: 59407 59407 16
Width: 1100
VWidth: 834
GlyphClass: 1
Flags: W
LayerCount: 2
Fore
SplineSet
550 -52 m 0,0,1
 545 -52 545 -52 540 -52 c 2,2,-1
 524 -51 l 1,3,-1
 524 -51 l 1,4,-1
 519 -51 l 2,5,6
 515 -50 515 -50 506 -50 c 2,7,-1
 488 -47 l 2,8,9
 486 -46 486 -46 480 -46 c 0,10,11
 473 -44 473 -44 470 -44 c 2,12,-1
 461 -41 l 2,13,14
 457 -41 457 -41 453 -39 c 2,15,-1
 435 -34 l 1,16,17
 435 -34 435 -34 435 -34 c 1,18,-1
 424 -30 l 1,19,-1
 406 -23 l 2,20,21
 404 -23 404 -23 401 -21 c 1,22,23
 401 -21 401 -21 401 -21 c 1,24,-1
 388 -16 l 1,25,-1
 371 -6 l 2,26,27
 370 -6 370 -6 369.5 -5.5 c 128,-1,28
 369 -5 369 -5 369 -5 c 1,29,-1
 362 -2 l 1,30,31
 276 48 276 48 227 130 c 0,32,33
 225 135 225 135 222 138 c 1,34,35
 222 138 222 138 222 138 c 1,36,-1
 219 145 l 2,37,38
 172 229 172 229 172 326 c 2,39,-1
 172 336 l 1,40,-1
 173 352 l 1,41,42
 173 352 173 352 173 352 c 1,43,-1
 173 357 l 2,44,45
 174 362 174 362 174 370 c 2,46,-1
 177 388 l 2,47,48
 178 390 178 390 178 396 c 0,49,50
 180 403 180 403 180 406 c 2,51,-1
 183 415 l 2,52,53
 183 417 183 417 185 424 c 2,54,-1
 190 441 l 1,55,56
 190 441 190 441 190 441 c 1,57,-1
 196 458 l 2,58,59
 197 460 197 460 198 465 c 2,60,-1
 201 470 l 2,61,62
 201 472 201 472 203 475 c 1,63,64
 203 475 203 475 203 475 c 1,65,-1
 208 488 l 1,66,-1
 218 505 l 2,67,68
 218 506 218 506 218.5 506.5 c 128,-1,69
 219 507 219 507 219 507 c 1,70,-1
 222 516 l 1,71,72
 272 601 272 601 354 649 c 1,73,-1
 362 654 l 1,74,75
 362 654 362 654 362 654 c 1,76,-1
 369 657 l 2,77,78
 453 704 453 704 550 704 c 2,79,-1
 560 704 l 1,80,-1
 581 703 l 2,81,82
 586 703 586 703 588 702 c 2,83,-1
 594 702 l 1,84,-1
 600 700 l 2,85,86
 605 700 605 700 608 699 c 2,87,-1
 612 699 l 2,88,89
 614 698 614 698 620 698 c 0,90,91
 627 696 627 696 630 696 c 2,92,-1
 639 693 l 2,93,94
 643 693 643 693 645 692.5 c 128,-1,95
 647 692 647 692 648 691 c 0,96,97
 652 691 652 691 657 688 c 2,98,-1
 682 680 l 2,99,100
 689 678 689 678 694 675 c 0,101,102
 696 675 696 675 699 673 c 2,103,-1
 712 668 l 2,104,105
 712 667 712 667 713 667 c 2,106,-1
 729 658 l 2,107,108
 730 658 730 658 731 657 c 2,109,-1
 740 654 l 1,110,111
 824 604 824 604 873 523 c 1,112,-1
 881 507 l 2,113,114
 928 423 928 423 928 326 c 2,115,-1
 928 316 l 1,116,-1
 927 295 l 1,117,-1
 923 264 l 2,118,119
 922 262 922 262 922 256 c 0,120,121
 920 249 920 249 920 246 c 2,122,-1
 917 237 l 2,123,124
 917 233 917 233 916 228.5 c 128,-1,125
 915 224 915 224 912 219 c 2,126,-1
 903 192 l 2,127,128
 902 185 902 185 900.5 182.5 c 128,-1,129
 899 180 899 180 897 177 c 2,130,-1
 892 164 l 1,131,-1
 882 147 l 2,132,133
 882 146 882 146 881 145 c 2,134,-1
 878 138 l 1,135,136
 828 53 828 53 747 3 c 1,137,-1
 744 2 l 2,138,139
 740 1 740 1 738 -2 c 2,140,-1
 731 -5 l 2,141,142
 647 -52 647 -52 550 -52 c 0,0,1
550 20 m 0,143,144
 611 20 611 20 668 43 c 1,145,-1
 668 44 l 1,146,-1
 670 44 l 1,147,-1
 696 57 l 2,148,149
 701 59 701 59 702 61 c 2,150,-1
 704 61 l 2,151,152
 705 62 705 62 710 64 c 0,153,154
 710 65 710 65 711 66 c 2,155,-1
 725 75 l 1,156,157
 725 75 725 75 725 75 c 1,158,-1
 735 81 l 2,159,160
 735 82 735 82 736 82 c 1,161,-1
 736 82 l 1,162,163
 736 82 736 82 736 82 c 1,164,165
 784 118 784 118 815 174 c 0,166,167
 832 202 832 202 840 229 c 1,168,-1
 840 230 l 1,169,170
 840 230 840 230 840 230 c 1,171,-1
 844 241 l 2,172,173
 845 243 845 243 845 247 c 1,174,175
 845 247 845 247 845 247 c 1,176,-1
 848 253 l 2,177,178
 848 257 848 257 850 264 c 2,179,-1
 850 265 l 1,180,181
 856 299 856 299 856 326 c 0,182,183
 856 387 856 387 833 444 c 1,184,185
 833 444 833 444 832.5 444.5 c 128,-1,186
 832 445 832 445 832 446 c 2,187,-1
 821 468 l 2,188,189
 821 470 821 470 818.5 473.5 c 128,-1,190
 816 477 816 477 815 478 c 2,191,-1
 815 480 l 2,192,193
 814 481 814 481 812 486 c 2,194,-1
 808 490 l 2,195,196
 806 495 806 495 803 498 c 2,197,-1
 801 501 l 1,198,199
 801 501 801 501 801 501 c 1,200,-1
 795 511 l 2,201,202
 794 511 794 511 794 512 c 1,203,-1
 794 512 l 1,204,205
 794 512 794 512 794 512 c 1,206,207
 758 559 758 559 704 591 c 0,208,209
 674 608 674 608 647 616 c 1,210,-1
 646 616 l 1,211,212
 646 616 646 616 646 616 c 1,213,-1
 635 620 l 2,214,215
 633 621 633 621 629 621 c 1,216,217
 629 621 629 621 629 621 c 1,218,-1
 623 624 l 2,219,220
 619 624 619 624 612 626 c 2,221,-1
 611 626 l 1,222,223
 577 632 577 632 550 632 c 0,224,225
 490 632 490 632 432 609 c 0,226,227
 432 608 432 608 430 608 c 2,228,-1
 408 597 l 2,229,230
 406 597 406 597 402.5 594.5 c 128,-1,231
 399 592 399 592 398 591 c 2,232,-1
 390 588 l 1,233,-1
 386 584 l 2,234,235
 381 582 381 582 378 579 c 2,236,-1
 365 571 l 2,237,238
 365 570 365 570 364 570 c 0,239,240
 317 534 317 534 285 480 c 0,241,242
 268 450 268 450 260 423 c 2,243,-1
 256 411 l 1,244,-1
 255 405 l 1,245,-1
 252 399 l 2,246,247
 252 395 252 395 250 388 c 2,248,-1
 250 387 l 1,249,250
 244 353 244 353 244 326 c 2,251,-1
 244 310 l 2,252,253
 248 258 248 258 267 208 c 0,254,255
 268 208 268 208 268 206 c 2,256,-1
 281 180 l 2,257,258
 283 175 283 175 285 174 c 2,259,-1
 288 166 l 2,260,261
 289 166 289 166 290 166 c 1,262,-1
 305 141 l 2,263,264
 306 141 306 141 306 140 c 0,265,266
 342 92 342 92 398 61 c 0,267,268
 426 44 426 44 453 36 c 2,269,-1
 465 32 l 1,270,-1
 471 31 l 1,271,-1
 477 28 l 2,272,273
 481 28 481 28 488 26 c 2,274,-1
 489 26 l 1,275,276
 522 20 522 20 550 20 c 0,143,144
550 290 m 1,277,278
 550 290 550 290 549 290 c 2,279,-1
 540 291 l 2,280,281
 535 292 535 292 531.5 294.5 c 128,-1,282
 528 297 528 297 525 301 c 2,283,-1
 518 310 l 1,284,-1
 514 324 l 1,285,-1
 515 336 l 2,286,287
 516 341 516 341 519 344 c 2,288,-1
 597 480 l 2,289,290
 604 493 604 493 618.5 496.5 c 128,-1,291
 633 500 633 500 646 493 c 128,-1,292
 659 486 659 486 662.5 471.5 c 128,-1,293
 666 457 666 457 659 444 c 2,294,-1
 612 362 l 1,295,-1
 790 362 l 2,296,297
 804 362 804 362 815 351 c 128,-1,298
 826 340 826 340 826 326 c 128,-1,299
 826 312 826 312 815 301 c 128,-1,300
 804 290 804 290 790 290 c 2,301,-1
 550 290 l 1,277,278
EndSplineSet
EndChar

StartChar: 01:20
Encoding: 59408 59408 17
Width: 1100
VWidth: 834
GlyphClass: 1
Flags: W
LayerCount: 2
Fore
SplineSet
550 -52 m 0,0,1
 545 -52 545 -52 540 -52 c 2,2,-1
 519 -51 l 1,3,4
 519 -51 519 -51 519 -51 c 1,5,6
 514 -50 514 -50 506 -50 c 2,7,-1
 488 -47 l 2,8,9
 486 -46 486 -46 480 -46 c 0,10,11
 473 -44 473 -44 470 -44 c 2,12,-1
 461 -41 l 2,13,14
 457 -41 457 -41 453 -39 c 2,15,-1
 443 -36 l 1,16,-1
 443 -36 l 1,17,-1
 424 -30 l 1,18,-1
 406 -23 l 1,19,20
 406 -23 406 -23 405 -23 c 128,-1,21
 404 -23 404 -23 401 -21 c 2,22,-1
 388 -16 l 1,23,24
 388 -16 388 -16 388 -16 c 1,25,-1
 371 -6 l 1,26,27
 371 -6 371 -6 370.5 -6 c 128,-1,28
 370 -6 370 -6 369 -5 c 2,29,-1
 362 -2 l 1,30,31
 276 48 276 48 227 130 c 0,32,33
 225 135 225 135 222 138 c 2,34,-1
 219 145 l 2,35,36
 172 229 172 229 172 326 c 2,37,-1
 172 338 l 1,38,39
 172 338 172 338 172 338 c 1,40,-1
 173 357 l 1,41,42
 173 357 173 357 173 357 c 1,43,44
 174 362 174 362 174 370 c 2,45,-1
 177 388 l 2,46,47
 178 390 178 390 178 396 c 0,48,49
 180 403 180 403 180 406 c 2,50,-1
 183 415 l 2,51,52
 183 417 183 417 185 424 c 2,53,-1
 188 433 l 1,54,55
 188 433 188 433 188 433 c 1,56,-1
 196 458 l 2,57,58
 197 460 197 460 198 465 c 2,59,-1
 201 470 l 2,60,61
 201 472 201 472 203 475 c 2,62,-1
 208 488 l 1,63,64
 208 488 208 488 208 488 c 1,65,-1
 218 505 l 1,66,67
 218 505 218 505 218 505.5 c 128,-1,68
 218 506 218 506 219 507 c 2,69,-1
 222 516 l 1,70,71
 272 601 272 601 354 649 c 2,72,-1
 369 657 l 2,73,74
 453 704 453 704 550 704 c 2,75,-1
 562 704 l 1,76,77
 562 704 562 704 562 704 c 1,78,-1
 581 703 l 1,79,-1
 612 699 l 2,80,81
 614 698 614 698 620 698 c 0,82,83
 627 696 627 696 630 696 c 2,84,-1
 639 693 l 2,85,86
 641 693 641 693 648 691 c 0,87,88
 652 691 652 691 657 688 c 2,89,-1
 682 680 l 2,90,91
 689 678 689 678 694 675 c 0,92,93
 696 675 696 675 699 673 c 2,94,-1
 712 668 l 1,95,-1
 729 658 l 2,96,97
 730 658 730 658 731 657 c 2,98,-1
 740 654 l 1,99,100
 824 604 824 604 873 523 c 1,101,-1
 881 507 l 2,102,103
 928 423 928 423 928 326 c 2,104,-1
 928 316 l 1,105,-1
 927 295 l 1,106,-1
 923 264 l 2,107,108
 922 262 922 262 922 256 c 0,109,110
 920 249 920 249 920 246 c 2,111,-1
 917 237 l 2,112,113
 917 233 917 233 916 228.5 c 128,-1,114
 915 224 915 224 912 219 c 2,115,-1
 903 192 l 2,116,117
 902 185 902 185 900.5 182.5 c 128,-1,118
 899 180 899 180 897 177 c 2,119,-1
 892 164 l 1,120,-1
 882 147 l 2,121,122
 882 146 882 146 881 145 c 2,123,-1
 878 138 l 1,124,125
 828 53 828 53 747 3 c 1,126,-1
 744 2 l 2,127,128
 740 1 740 1 738 -2 c 2,129,-1
 731 -5 l 2,130,131
 647 -52 647 -52 550 -52 c 0,0,1
550 20 m 0,132,133
 611 20 611 20 668 43 c 0,134,135
 669 44 669 44 669.5 44 c 128,-1,136
 670 44 670 44 670 44 c 1,137,-1
 696 57 l 1,138,139
 696 57 696 57 696 57 c 1,140,141
 701 59 701 59 702 61 c 2,142,-1
 710 64 l 1,143,144
 710 64 710 64 710 64 c 1,145,-1
 722 73 l 1,146,147
 722 73 722 73 722 73 c 1,148,-1
 735 81 l 2,149,150
 735 82 735 82 736 82 c 1,151,-1
 736 82 l 1,152,153
 784 118 784 118 815 174 c 0,154,155
 832 202 832 202 840 229 c 2,156,-1
 844 241 l 1,157,158
 844 241 844 241 844 241 c 1,159,160
 845 243 845 243 845 247 c 0,161,162
 846 248 846 248 846 252 c 2,163,-1
 848 253 l 2,164,165
 848 257 848 257 850 264 c 2,166,-1
 850 265 l 1,167,168
 856 299 856 299 856 326 c 0,169,170
 856 387 856 387 833 444 c 0,171,172
 832 445 832 445 832 445.5 c 128,-1,173
 832 446 832 446 832 446 c 1,174,-1
 821 468 l 2,175,176
 821 470 821 470 819 472 c 1,177,178
 819 472 819 472 819 472 c 1,179,180
 817 477 817 477 815 478 c 2,181,-1
 812 486 l 1,182,183
 812 486 812 486 812 486 c 1,184,-1
 808 490 l 2,185,186
 806 495 806 495 803 498 c 1,187,188
 803 498 803 498 803 498 c 1,189,-1
 801 501 l 2,190,191
 799 506 799 506 796 508 c 2,192,-1
 795 511 l 2,193,194
 794 511 794 511 794 512 c 1,195,-1
 794 512 l 1,196,197
 758 559 758 559 704 591 c 0,198,199
 674 608 674 608 647 616 c 2,200,-1
 635 620 l 1,201,202
 635 620 635 620 635 620 c 1,203,204
 633 621 633 621 629 621 c 0,205,206
 628 622 628 622 624 622 c 1,207,-1
 624 624 l 1,208,209
 624 624 624 624 623 624 c 0,210,211
 619 624 619 624 612 626 c 2,212,-1
 611 626 l 1,213,214
 577 632 577 632 550 632 c 0,215,216
 490 632 490 632 432 609 c 0,217,218
 432 608 432 608 430 608 c 2,219,-1
 408 597 l 2,220,221
 406 597 406 597 402.5 594.5 c 128,-1,222
 399 592 399 592 398 591 c 2,223,-1
 390 588 l 1,224,-1
 386 584 l 2,225,226
 381 582 381 582 378 579 c 2,227,-1
 375 577 l 2,228,229
 370 575 370 575 368 572 c 2,230,-1
 365 571 l 2,231,232
 365 570 365 570 364 570 c 0,233,234
 317 534 317 534 285 480 c 0,235,236
 268 450 268 450 260 423 c 2,237,-1
 256 411 l 1,238,-1
 255 405 l 2,239,240
 254 404 254 404 254 400 c 2,241,-1
 252 399 l 2,242,243
 252 395 252 395 250 388 c 2,244,-1
 250 387 l 1,245,246
 244 353 244 353 244 326 c 0,247,248
 244 266 244 266 267 208 c 0,249,250
 268 208 268 208 268 206 c 2,251,-1
 281 180 l 2,252,253
 283 175 283 175 285 174 c 2,254,-1
 288 166 l 1,255,-1
 305 141 l 2,256,257
 306 141 306 141 306 140 c 0,258,259
 342 92 342 92 398 61 c 0,260,261
 426 44 426 44 453 36 c 2,262,-1
 465 32 l 1,263,-1
 471 31 l 2,264,265
 472 30 472 30 476 30 c 2,266,-1
 477 30 l 1,267,268
 477 30 477 30 477 28 c 1,269,270
 481 28 481 28 488 26 c 2,271,-1
 489 26 l 1,272,273
 522 20 522 20 550 20 c 0,132,133
758 170 m 256,274,275
 748 170 748 170 740 175 c 2,276,-1
 532 295 l 2,277,278
 528 297 528 297 525 301 c 2,279,-1
 518 310 l 1,280,-1
 514 324 l 1,281,-1
 515 336 l 2,282,283
 516 341 516 341 519 344 c 2,284,-1
 597 480 l 2,285,286
 604 493 604 493 618.5 496.5 c 128,-1,287
 633 500 633 500 646 493 c 128,-1,288
 659 486 659 486 662.5 471.5 c 128,-1,289
 666 457 666 457 659 444 c 2,290,-1
 599 339 l 1,291,-1
 776 237 l 2,292,293
 789 230 789 230 792.5 215.5 c 128,-1,294
 796 201 796 201 789 188 c 0,295,296
 784 180 784 180 776 175 c 128,-1,297
 768 170 768 170 758 170 c 256,274,275
EndSplineSet
EndChar

StartChar: 01:25
Encoding: 59409 59409 18
Width: 1100
VWidth: 834
GlyphClass: 1
Flags: W
LayerCount: 2
Fore
SplineSet
550 -52 m 2,0,1
 545 -52 545 -52 540 -52 c 2,2,-1
 519 -51 l 2,3,4
 515 -50 515 -50 506 -50 c 2,5,-1
 488 -47 l 2,6,7
 486 -46 486 -46 480 -46 c 0,8,9
 473 -44 473 -44 470 -44 c 2,10,-1
 461 -41 l 2,11,12
 457 -41 457 -41 453 -39 c 2,13,-1
 424 -30 l 1,14,-1
 406 -23 l 2,15,16
 404 -23 404 -23 401 -21 c 2,17,-1
 388 -16 l 1,18,-1
 371 -6 l 2,19,20
 370 -6 370 -6 369 -5 c 2,21,-1
 353 3 l 2,22,23
 353 4 353 4 351 4 c 2,24,-1
 335 15 l 2,25,26
 328 20 328 20 324 24 c 0,27,28
 322 25 322 25 320 27 c 0,29,30
 313 32 313 32 310 34 c 2,31,-1
 304 39 l 2,32,33
 299 44 299 44 296 46 c 2,34,-1
 290 52 l 1,35,-1
 282 58 l 1,36,-1
 270 72 l 2,37,38
 268 76 268 76 263 80 c 2,39,-1
 258 86 l 2,40,41
 256 88 256 88 251 96 c 0,42,43
 249 98 249 98 248 100 c 0,44,45
 244 104 244 104 239 111 c 2,46,-1
 228 127 l 2,47,48
 228 129 228 129 227 129 c 2,49,-1
 219 145 l 2,50,51
 218 146 218 146 218 147 c 2,52,-1
 208 164 l 1,53,-1
 203 177 l 2,54,55
 201 179 201 179 201 182 c 2,56,-1
 190 211 l 1,57,-1
 185 229 l 2,58,59
 183 234 183 234 183 237 c 2,60,-1
 180 246 l 2,61,62
 180 250 180 250 178 256 c 0,63,64
 178 261 178 261 177 264 c 2,65,-1
 174 282 l 2,66,67
 174 292 174 292 173 295 c 2,68,-1
 172 315 l 1,69,-1
 172 336 l 1,70,-1
 173 357 l 2,71,72
 174 362 174 362 174 370 c 2,73,-1
 177 388 l 2,74,75
 178 390 178 390 178 396 c 0,76,77
 180 403 180 403 180 406 c 2,78,-1
 183 415 l 2,79,80
 183 417 183 417 185 424 c 2,81,-1
 196 458 l 2,82,83
 197 460 197 460 198 465 c 2,84,-1
 201 470 l 2,85,86
 201 472 201 472 203 475 c 2,87,-1
 208 488 l 1,88,-1
 218 505 l 2,89,90
 218 506 218 506 219 507 c 2,91,-1
 222 516 l 2,92,93
 224 518 224 518 227 523 c 0,94,95
 228 524 228 524 228 525 c 2,96,-1
 248 553 l 1,97,-1
 251 556 l 2,98,99
 256 563 256 563 258 566 c 2,100,-1
 270 580 l 2,101,102
 271 581 271 581 274 584 c 2,103,-1
 276 586 l 1,104,-1
 282 594 l 2,105,106
 287 599 287 599 290 600 c 2,107,-1
 296 606 l 2,108,109
 300 608 300 608 304 612 c 128,-1,110
 308 616 308 616 310 618 c 128,-1,111
 312 620 312 620 320 625 c 0,112,113
 322 627 322 627 324 628 c 0,114,115
 328 632 328 632 335 637 c 2,116,-1
 356 650 l 2,117,118
 360 652 360 652 362 654 c 2,119,-1
 369 657 l 2,120,121
 370 658 370 658 371 658 c 2,122,-1
 388 668 l 1,123,-1
 401 673 l 2,124,125
 403 675 403 675 405.5 676.5 c 128,-1,126
 408 678 408 678 416 679 c 2,127,-1
 443 688 l 2,128,129
 448 690 448 690 453 691.5 c 128,-1,130
 458 693 458 693 461 693 c 2,131,-1
 470 696 l 2,132,133
 474 696 474 696 480 698 c 0,134,135
 485 698 485 698 488 699 c 2,136,-1
 539 704 l 1,137,-1
 560 704 l 1,138,-1
 581 703 l 1,139,-1
 612 699 l 2,140,141
 614 698 614 698 620 698 c 0,142,143
 627 696 627 696 630 696 c 2,144,-1
 639 693 l 2,145,146
 641 693 641 693 648 691 c 0,147,148
 652 691 652 691 657 688 c 2,149,-1
 682 680 l 2,150,151
 689 678 689 678 694 675 c 0,152,153
 696 675 696 675 699 673 c 2,154,-1
 712 668 l 1,155,-1
 729 658 l 2,156,157
 730 658 730 658 731 657 c 2,158,-1
 740 654 l 1,159,-1
 777 628 l 1,160,-1
 780 625 l 2,161,162
 787 620 787 620 789.5 618 c 128,-1,163
 792 616 792 616 796 613 c 2,164,-1
 804 606 l 2,165,166
 805 605 805 605 808 602 c 2,167,-1
 810 600 l 2,168,169
 812 599 812 599 817 594 c 128,-1,170
 822 589 822 589 824 586 c 2,171,-1
 826 584 l 2,172,173
 828 582 828 582 830 580 c 2,174,-1
 837 572 l 2,175,176
 841 568 841 568 842.5 566 c 128,-1,177
 844 564 844 564 849 556 c 2,178,-1
 852 553 l 1,179,-1
 878 516 l 1,180,-1
 881 507 l 2,181,182
 882 506 882 506 882 505 c 2,183,-1
 892 488 l 1,184,-1
 897 475 l 2,185,186
 899 473 899 473 899 470 c 0,187,188
 901 465 901 465 904 458 c 2,189,-1
 912 433 l 2,190,191
 914 428 914 428 915 424 c 0,192,193
 917 417 917 417 917 415 c 2,194,-1
 920 406 l 2,195,196
 920 402 920 402 922 396 c 0,197,198
 922 391 922 391 923 388 c 2,199,-1
 928 338 l 1,200,-1
 928 316 l 1,201,-1
 927 295 l 1,202,-1
 923 264 l 2,203,204
 922 262 922 262 922 256 c 0,205,206
 920 249 920 249 920 246 c 2,207,-1
 917 237 l 2,208,209
 917 233 917 233 916 228.5 c 128,-1,210
 915 224 915 224 912 219 c 2,211,-1
 903 192 l 2,212,213
 902 185 902 185 900.5 182.5 c 128,-1,214
 899 180 899 180 897 177 c 2,215,-1
 892 164 l 1,216,-1
 882 147 l 2,217,218
 882 146 882 146 881 145 c 2,219,-1
 878 138 l 2,220,221
 877 136 877 136 874 132 c 2,222,-1
 861 111 l 2,223,224
 856 104 856 104 852 100 c 0,225,226
 851 98 851 98 849 96 c 0,227,228
 844 89 844 89 842 86.5 c 128,-1,229
 840 84 840 84 836 79.5 c 128,-1,230
 832 75 832 75 830 72 c 2,231,-1
 824 66 l 2,232,233
 823 64 823 64 818 58 c 2,234,-1
 808 50 l 2,235,236
 806 48 806 48 804 46 c 2,237,-1
 790 34 l 2,238,239
 788 32 788 32 780 27 c 2,240,-1
 777 24 l 1,241,-1
 749 4 l 2,242,243
 748 4 748 4 747 3 c 0,244,245
 742 1 742 1 740 -2 c 2,246,-1
 731 -5 l 2,247,248
 730 -6 730 -6 729 -6 c 2,249,-1
 712 -16 l 1,250,-1
 699 -21 l 2,251,252
 697 -23 697 -23 694 -23 c 2,253,-1
 689 -26 l 2,254,255
 684 -27 684 -27 682 -28 c 2,256,-1
 648 -39 l 2,257,258
 641 -41 641 -41 639 -41 c 2,259,-1
 630 -44 l 2,260,261
 626 -44 626 -44 620 -46 c 0,262,263
 615 -46 615 -46 612 -47 c 2,264,-1
 594 -50 l 2,265,266
 586 -50 586 -50 581 -51 c 2,267,-1
 562 -52 l 1,268,-1
 550 -52 l 2,0,1
550 20 m 256,269,270
 578 20 578 20 611 26 c 1,271,-1
 612 26 l 2,272,273
 619 28 619 28 623 28 c 2,274,-1
 647 36 l 2,275,276
 673 44 673 44 702.5 61 c 128,-1,277
 732 78 732 78 753 97 c 2,278,-1
 754 98 l 2,279,280
 759 103 759 103 762 105.5 c 128,-1,281
 765 108 765 108 766.5 109.5 c 128,-1,282
 768 111 768 111 770.5 114 c 128,-1,283
 773 117 773 117 778 122 c 0,284,285
 779 122 779 122 779 123 c 1,286,-1
 779 123 l 1,287,288
 802 149 802 149 815 174 c 0,289,290
 832 202 832 202 840 229 c 2,291,-1
 844 241 l 2,292,293
 845 243 845 243 845 247 c 2,294,-1
 848 253 l 2,295,296
 848 257 848 257 850 264 c 2,297,-1
 850 265 l 1,298,299
 856 299 856 299 856 326.5 c 128,-1,300
 856 354 856 354 850 387 c 1,301,-1
 850 388 l 2,302,303
 848 395 848 395 848 399 c 2,304,-1
 845 405 l 2,305,306
 845 409 845 409 844 411 c 2,307,-1
 840 423 l 2,308,309
 832 449 832 449 815 478.5 c 128,-1,310
 798 508 798 508 779 529 c 1,311,-1
 779 530 l 1,312,313
 779 530 779 530 778 530 c 0,314,315
 773 535 773 535 770.5 538 c 128,-1,316
 768 541 768 541 766.5 542.5 c 128,-1,317
 765 544 765 544 762 546.5 c 128,-1,318
 759 549 759 549 754 554 c 0,319,320
 754 555 754 555 754 555 c 1,321,-1
 753 555 l 1,322,323
 733 574 733 574 703.5 591 c 128,-1,324
 674 608 674 608 647 616 c 2,325,-1
 635 620 l 2,326,327
 633 621 633 621 629 621 c 2,328,-1
 623 624 l 2,329,330
 619 624 619 624 612 626 c 2,331,-1
 611 626 l 1,332,333
 577 632 577 632 549.5 632 c 128,-1,334
 522 632 522 632 489 626 c 1,335,-1
 488 626 l 2,336,337
 481 624 481 624 477 624 c 2,338,-1
 471 621 l 2,339,340
 467 621 467 621 465 620 c 2,341,-1
 453 616 l 2,342,343
 425 608 425 608 398 591 c 0,344,345
 374 578 374 578 347 555 c 1,346,-1
 347 555 l 1,347,348
 346 555 346 555 346 554 c 0,349,350
 341 549 341 549 338 546.5 c 128,-1,351
 335 544 335 544 333.5 542.5 c 128,-1,352
 332 541 332 541 329.5 538 c 128,-1,353
 327 535 327 535 322 530 c 2,354,-1
 321 529 l 2,355,356
 302 509 302 509 285 479.5 c 128,-1,357
 268 450 268 450 260 423 c 2,358,-1
 256 411 l 1,359,-1
 255 405 l 1,360,-1
 252 399 l 2,361,362
 252 395 252 395 250 388 c 2,363,-1
 250 387 l 1,364,365
 244 353 244 353 244 325.5 c 128,-1,366
 244 298 244 298 250 265 c 1,367,-1
 250 264 l 2,368,369
 252 257 252 257 252 253 c 2,370,-1
 260 229 l 2,371,372
 268 201 268 201 285 174 c 0,373,374
 298 150 298 150 321 123 c 2,375,-1
 322 122 l 2,376,377
 327 117 327 117 329.5 114 c 128,-1,378
 332 111 332 111 333.5 109.5 c 128,-1,379
 335 108 335 108 338 105.5 c 128,-1,380
 341 103 341 103 346 98 c 2,381,-1
 347 97 l 2,382,383
 373 74 373 74 398 61 c 0,384,385
 426 44 426 44 453 36 c 2,386,-1
 465 32 l 1,387,-1
 471 31 l 1,388,-1
 477 28 l 2,389,390
 481 28 481 28 488 26 c 2,391,-1
 489 26 l 1,392,393
 522 20 522 20 550 20 c 256,269,270
670 82 m 256,394,395
 660 82 660 82 652 87 c 128,-1,396
 644 92 644 92 639 100 c 2,397,-1
 518 310 l 1,398,-1
 514 324 l 1,399,-1
 515 336 l 2,400,401
 516 341 516 341 519 344 c 2,402,-1
 597 480 l 2,403,404
 604 493 604 493 618.5 496.5 c 128,-1,405
 633 500 633 500 646 493 c 128,-1,406
 659 486 659 486 662.5 471.5 c 128,-1,407
 666 457 666 457 659 444 c 2,408,-1
 592 326 l 1,409,-1
 701 136 l 2,410,411
 708 123 708 123 704.5 108.5 c 128,-1,412
 701 94 701 94 688 87 c 0,413,414
 680 82 680 82 670 82 c 256,394,395
EndSplineSet
EndChar

StartChar: 01:30
Encoding: 59410 59410 19
Width: 1100
VWidth: 834
GlyphClass: 1
Flags: W
LayerCount: 2
Fore
SplineSet
550 -52 m 0,0,1
 545 -52 545 -52 540 -52 c 2,2,-1
 524 -51 l 1,3,-1
 524 -51 l 1,4,-1
 519 -51 l 2,5,6
 515 -50 515 -50 506 -50 c 2,7,-1
 488 -47 l 2,8,9
 486 -46 486 -46 480 -46 c 0,10,11
 473 -44 473 -44 470 -44 c 2,12,-1
 461 -41 l 2,13,14
 457 -41 457 -41 453 -39 c 2,15,-1
 435 -34 l 1,16,17
 435 -34 435 -34 435 -34 c 1,18,-1
 424 -30 l 1,19,-1
 406 -23 l 2,20,21
 404 -23 404 -23 401 -21 c 1,22,23
 401 -21 401 -21 401 -21 c 1,24,-1
 388 -16 l 1,25,-1
 371 -6 l 2,26,27
 370 -6 370 -6 369.5 -5.5 c 128,-1,28
 369 -5 369 -5 369 -5 c 1,29,-1
 362 -2 l 1,30,31
 276 48 276 48 227 130 c 0,32,33
 225 135 225 135 222 138 c 1,34,35
 222 138 222 138 222 138 c 1,36,-1
 219 145 l 2,37,38
 172 229 172 229 172 326 c 2,39,-1
 172 336 l 1,40,-1
 173 352 l 1,41,42
 173 352 173 352 173 352 c 1,43,-1
 173 357 l 2,44,45
 174 362 174 362 174 370 c 2,46,-1
 177 388 l 2,47,48
 178 390 178 390 178 396 c 0,49,50
 180 403 180 403 180 406 c 2,51,-1
 183 415 l 2,52,53
 183 417 183 417 185 424 c 2,54,-1
 190 441 l 1,55,56
 190 441 190 441 190 441 c 1,57,-1
 196 458 l 2,58,59
 197 460 197 460 198 465 c 2,60,-1
 201 470 l 2,61,62
 201 472 201 472 203 475 c 1,63,64
 203 475 203 475 203 475 c 1,65,-1
 208 488 l 1,66,-1
 218 505 l 2,67,68
 218 506 218 506 218.5 506.5 c 128,-1,69
 219 507 219 507 219 507 c 1,70,-1
 222 516 l 1,71,72
 272 601 272 601 354 649 c 1,73,-1
 362 654 l 1,74,75
 362 654 362 654 362 654 c 1,76,-1
 369 657 l 2,77,78
 453 704 453 704 550 704 c 2,79,-1
 560 704 l 1,80,-1
 581 703 l 2,81,82
 586 703 586 703 588 702 c 2,83,-1
 594 702 l 1,84,-1
 600 700 l 2,85,86
 605 700 605 700 608 699 c 2,87,-1
 612 699 l 2,88,89
 614 698 614 698 620 698 c 0,90,91
 627 696 627 696 630 696 c 2,92,-1
 639 693 l 2,93,94
 643 693 643 693 645 692.5 c 128,-1,95
 647 692 647 692 648 691 c 0,96,97
 652 691 652 691 657 688 c 2,98,-1
 682 680 l 2,99,100
 689 678 689 678 694 675 c 0,101,102
 696 675 696 675 699 673 c 2,103,-1
 712 668 l 2,104,105
 712 667 712 667 713 667 c 2,106,-1
 729 658 l 2,107,108
 730 658 730 658 731 657 c 2,109,-1
 740 654 l 1,110,111
 824 604 824 604 873 523 c 1,112,-1
 881 507 l 2,113,114
 928 423 928 423 928 326 c 2,115,-1
 928 316 l 1,116,-1
 927 295 l 1,117,-1
 923 264 l 2,118,119
 922 262 922 262 922 256 c 0,120,121
 920 249 920 249 920 246 c 2,122,-1
 917 237 l 2,123,124
 917 233 917 233 916 228.5 c 128,-1,125
 915 224 915 224 912 219 c 2,126,-1
 903 192 l 2,127,128
 902 185 902 185 900.5 182.5 c 128,-1,129
 899 180 899 180 897 177 c 2,130,-1
 892 164 l 1,131,-1
 882 147 l 2,132,133
 882 146 882 146 881 145 c 2,134,-1
 878 138 l 1,135,136
 828 53 828 53 747 3 c 1,137,-1
 744 2 l 2,138,139
 740 1 740 1 738 -2 c 2,140,-1
 731 -5 l 2,141,142
 647 -52 647 -52 550 -52 c 0,0,1
550 20 m 0,143,144
 611 20 611 20 668 43 c 1,145,-1
 668 44 l 1,146,-1
 670 44 l 1,147,-1
 696 57 l 2,148,149
 701 59 701 59 702 61 c 2,150,-1
 704 61 l 2,151,152
 705 62 705 62 710 64 c 0,153,154
 710 65 710 65 711 66 c 2,155,-1
 725 75 l 1,156,157
 725 75 725 75 725 75 c 1,158,-1
 735 81 l 2,159,160
 735 82 735 82 736 82 c 1,161,-1
 736 82 l 1,162,163
 736 82 736 82 736 82 c 1,164,165
 784 118 784 118 815 174 c 0,166,167
 832 202 832 202 840 229 c 1,168,-1
 840 230 l 1,169,170
 840 230 840 230 840 230 c 1,171,-1
 844 241 l 2,172,173
 845 243 845 243 845 247 c 1,174,175
 845 247 845 247 845 247 c 1,176,-1
 848 253 l 2,177,178
 848 257 848 257 850 264 c 2,179,-1
 850 265 l 1,180,181
 856 299 856 299 856 326 c 0,182,183
 856 387 856 387 833 444 c 1,184,185
 833 444 833 444 832.5 444.5 c 128,-1,186
 832 445 832 445 832 446 c 2,187,-1
 821 468 l 2,188,189
 821 470 821 470 818.5 473.5 c 128,-1,190
 816 477 816 477 815 478 c 2,191,-1
 815 480 l 2,192,193
 814 481 814 481 812 486 c 2,194,-1
 808 490 l 2,195,196
 806 495 806 495 803 498 c 2,197,-1
 801 501 l 1,198,199
 801 501 801 501 801 501 c 1,200,-1
 795 511 l 2,201,202
 794 511 794 511 794 512 c 1,203,-1
 794 512 l 1,204,205
 794 512 794 512 794 512 c 1,206,207
 758 559 758 559 704 591 c 0,208,209
 674 608 674 608 647 616 c 1,210,-1
 646 616 l 1,211,212
 646 616 646 616 646 616 c 1,213,-1
 635 620 l 2,214,215
 633 621 633 621 629 621 c 1,216,217
 629 621 629 621 629 621 c 1,218,-1
 623 624 l 2,219,220
 619 624 619 624 612 626 c 2,221,-1
 611 626 l 1,222,223
 577 632 577 632 550 632 c 0,224,225
 490 632 490 632 432 609 c 0,226,227
 432 608 432 608 430 608 c 2,228,-1
 408 597 l 2,229,230
 406 597 406 597 402.5 594.5 c 128,-1,231
 399 592 399 592 398 591 c 2,232,-1
 390 588 l 1,233,-1
 386 584 l 2,234,235
 381 582 381 582 378 579 c 2,236,-1
 365 571 l 2,237,238
 365 570 365 570 364 570 c 0,239,240
 317 534 317 534 285 480 c 0,241,242
 268 450 268 450 260 423 c 2,243,-1
 256 411 l 1,244,-1
 255 405 l 1,245,-1
 252 399 l 2,246,247
 252 395 252 395 250 388 c 2,248,-1
 250 387 l 1,249,250
 244 353 244 353 244 326 c 2,251,-1
 244 310 l 2,252,253
 248 258 248 258 267 208 c 0,254,255
 268 208 268 208 268 206 c 2,256,-1
 281 180 l 2,257,258
 283 175 283 175 285 174 c 2,259,-1
 288 166 l 2,260,261
 289 166 289 166 290 166 c 1,262,-1
 305 141 l 2,263,264
 306 141 306 141 306 140 c 0,265,266
 342 92 342 92 398 61 c 0,267,268
 426 44 426 44 453 36 c 2,269,-1
 465 32 l 1,270,-1
 471 31 l 1,271,-1
 477 28 l 2,272,273
 481 28 481 28 488 26 c 2,274,-1
 489 26 l 1,275,276
 522 20 522 20 550 20 c 0,143,144
550 50 m 256,277,278
 536 50 536 50 525 61 c 128,-1,279
 514 72 514 72 514 86 c 2,280,-1
 514 327 l 1,281,-1
 515 336 l 2,282,283
 516 341 516 341 519 344 c 2,284,-1
 597 480 l 2,285,286
 604 493 604 493 618.5 496.5 c 128,-1,287
 633 500 633 500 646 493 c 128,-1,288
 659 486 659 486 662.5 471.5 c 128,-1,289
 666 457 666 457 659 444 c 2,290,-1
 586 316 l 1,291,-1
 586 86 l 2,292,293
 586 72 586 72 575 61 c 128,-1,294
 564 50 564 50 550 50 c 256,277,278
EndSplineSet
EndChar

StartChar: 01:35
Encoding: 59411 59411 20
Width: 1100
VWidth: 834
GlyphClass: 1
Flags: W
LayerCount: 2
Fore
SplineSet
550 -52 m 2,0,1
 545 -52 545 -52 540 -52 c 2,2,-1
 519 -51 l 2,3,4
 515 -50 515 -50 506 -50 c 2,5,-1
 488 -47 l 2,6,7
 486 -46 486 -46 480 -46 c 0,8,9
 473 -44 473 -44 470 -44 c 2,10,-1
 461 -41 l 2,11,12
 457 -41 457 -41 453 -39 c 2,13,-1
 424 -30 l 1,14,-1
 406 -23 l 2,15,16
 404 -23 404 -23 401 -21 c 2,17,-1
 388 -16 l 1,18,-1
 371 -6 l 2,19,20
 370 -6 370 -6 369 -5 c 2,21,-1
 353 3 l 2,22,23
 353 4 353 4 351 4 c 2,24,-1
 335 15 l 2,25,26
 328 20 328 20 324 24 c 0,27,28
 322 25 322 25 320 27 c 0,29,30
 313 32 313 32 310 34 c 2,31,-1
 304 39 l 2,32,33
 299 44 299 44 296 46 c 2,34,-1
 290 52 l 1,35,-1
 282 58 l 1,36,-1
 270 72 l 2,37,38
 268 76 268 76 263 80 c 2,39,-1
 258 86 l 2,40,41
 256 88 256 88 251 96 c 0,42,43
 249 98 249 98 248 100 c 0,44,45
 244 104 244 104 239 111 c 2,46,-1
 228 127 l 2,47,48
 228 129 228 129 227 129 c 2,49,-1
 219 145 l 2,50,51
 218 146 218 146 218 147 c 2,52,-1
 208 164 l 1,53,-1
 203 177 l 2,54,55
 201 179 201 179 201 182 c 2,56,-1
 190 211 l 1,57,-1
 185 229 l 2,58,59
 183 234 183 234 183 237 c 2,60,-1
 180 246 l 2,61,62
 180 250 180 250 178 256 c 0,63,64
 178 261 178 261 177 264 c 2,65,-1
 174 282 l 2,66,67
 174 292 174 292 173 295 c 2,68,-1
 172 315 l 1,69,-1
 172 336 l 1,70,-1
 173 357 l 2,71,72
 174 362 174 362 174 370 c 2,73,-1
 177 388 l 2,74,75
 178 390 178 390 178 396 c 0,76,77
 180 403 180 403 180 406 c 2,78,-1
 183 415 l 2,79,80
 183 417 183 417 185 424 c 2,81,-1
 196 458 l 2,82,83
 197 460 197 460 198 465 c 2,84,-1
 201 470 l 2,85,86
 201 472 201 472 203 475 c 2,87,-1
 208 488 l 1,88,-1
 218 505 l 2,89,90
 218 506 218 506 219 507 c 2,91,-1
 222 516 l 2,92,93
 224 518 224 518 227 523 c 0,94,95
 228 524 228 524 228 525 c 2,96,-1
 248 553 l 1,97,-1
 251 556 l 2,98,99
 256 563 256 563 258 566 c 2,100,-1
 270 580 l 2,101,102
 271 581 271 581 274 584 c 2,103,-1
 276 586 l 1,104,-1
 282 594 l 2,105,106
 287 599 287 599 290 600 c 2,107,-1
 296 606 l 2,108,109
 300 608 300 608 304 612 c 128,-1,110
 308 616 308 616 310 618 c 128,-1,111
 312 620 312 620 320 625 c 0,112,113
 322 627 322 627 324 628 c 0,114,115
 328 632 328 632 335 637 c 2,116,-1
 356 650 l 2,117,118
 360 652 360 652 362 654 c 2,119,-1
 369 657 l 2,120,121
 370 658 370 658 371 658 c 2,122,-1
 388 668 l 1,123,-1
 401 673 l 2,124,125
 403 675 403 675 405.5 676.5 c 128,-1,126
 408 678 408 678 416 679 c 2,127,-1
 443 688 l 2,128,129
 448 690 448 690 453 691.5 c 128,-1,130
 458 693 458 693 461 693 c 2,131,-1
 470 696 l 2,132,133
 474 696 474 696 480 698 c 0,134,135
 485 698 485 698 488 699 c 2,136,-1
 539 704 l 1,137,-1
 560 704 l 1,138,-1
 581 703 l 1,139,-1
 612 699 l 2,140,141
 614 698 614 698 620 698 c 0,142,143
 627 696 627 696 630 696 c 2,144,-1
 639 693 l 2,145,146
 641 693 641 693 648 691 c 0,147,148
 652 691 652 691 657 688 c 2,149,-1
 682 680 l 2,150,151
 689 678 689 678 694 675 c 0,152,153
 696 675 696 675 699 673 c 2,154,-1
 712 668 l 1,155,-1
 729 658 l 2,156,157
 730 658 730 658 731 657 c 2,158,-1
 740 654 l 1,159,-1
 777 628 l 1,160,-1
 780 625 l 2,161,162
 787 620 787 620 789.5 618 c 128,-1,163
 792 616 792 616 796 613 c 2,164,-1
 804 606 l 2,165,166
 805 605 805 605 808 602 c 2,167,-1
 810 600 l 2,168,169
 812 599 812 599 817 594 c 128,-1,170
 822 589 822 589 824 586 c 2,171,-1
 826 584 l 2,172,173
 828 582 828 582 830 580 c 2,174,-1
 837 572 l 2,175,176
 841 568 841 568 842.5 566 c 128,-1,177
 844 564 844 564 849 556 c 2,178,-1
 852 553 l 1,179,-1
 878 516 l 1,180,-1
 881 507 l 2,181,182
 882 506 882 506 882 505 c 2,183,-1
 892 488 l 1,184,-1
 897 475 l 2,185,186
 899 473 899 473 899 470 c 0,187,188
 901 465 901 465 904 458 c 2,189,-1
 912 433 l 2,190,191
 914 428 914 428 915 424 c 0,192,193
 917 417 917 417 917 415 c 2,194,-1
 920 406 l 2,195,196
 920 402 920 402 922 396 c 0,197,198
 922 391 922 391 923 388 c 2,199,-1
 928 338 l 1,200,-1
 928 316 l 1,201,-1
 927 295 l 1,202,-1
 923 264 l 2,203,204
 922 262 922 262 922 256 c 0,205,206
 920 249 920 249 920 246 c 2,207,-1
 917 237 l 2,208,209
 917 233 917 233 916 228.5 c 128,-1,210
 915 224 915 224 912 219 c 2,211,-1
 903 192 l 2,212,213
 902 185 902 185 900.5 182.5 c 128,-1,214
 899 180 899 180 897 177 c 2,215,-1
 892 164 l 1,216,-1
 882 147 l 2,217,218
 882 146 882 146 881 145 c 2,219,-1
 878 138 l 2,220,221
 877 136 877 136 874 132 c 2,222,-1
 861 111 l 2,223,224
 856 104 856 104 852 100 c 0,225,226
 851 98 851 98 849 96 c 0,227,228
 844 89 844 89 842 86.5 c 128,-1,229
 840 84 840 84 836 79.5 c 128,-1,230
 832 75 832 75 830 72 c 2,231,-1
 824 66 l 2,232,233
 823 64 823 64 818 58 c 2,234,-1
 808 50 l 2,235,236
 806 48 806 48 804 46 c 2,237,-1
 790 34 l 2,238,239
 788 32 788 32 780 27 c 2,240,-1
 777 24 l 1,241,-1
 749 4 l 2,242,243
 748 4 748 4 747 3 c 0,244,245
 742 1 742 1 740 -2 c 2,246,-1
 731 -5 l 2,247,248
 730 -6 730 -6 729 -6 c 2,249,-1
 712 -16 l 1,250,-1
 699 -21 l 2,251,252
 697 -23 697 -23 694 -23 c 2,253,-1
 689 -26 l 2,254,255
 684 -27 684 -27 682 -28 c 2,256,-1
 648 -39 l 2,257,258
 641 -41 641 -41 639 -41 c 2,259,-1
 630 -44 l 2,260,261
 626 -44 626 -44 620 -46 c 0,262,263
 615 -46 615 -46 612 -47 c 2,264,-1
 594 -50 l 2,265,266
 586 -50 586 -50 581 -51 c 2,267,-1
 562 -52 l 1,268,-1
 550 -52 l 2,0,1
550 20 m 256,269,270
 578 20 578 20 611 26 c 1,271,-1
 612 26 l 2,272,273
 619 28 619 28 623 28 c 2,274,-1
 647 36 l 2,275,276
 673 44 673 44 702.5 61 c 128,-1,277
 732 78 732 78 753 97 c 2,278,-1
 754 98 l 2,279,280
 759 103 759 103 762 105.5 c 128,-1,281
 765 108 765 108 766.5 109.5 c 128,-1,282
 768 111 768 111 770.5 114 c 128,-1,283
 773 117 773 117 778 122 c 0,284,285
 779 122 779 122 779 123 c 1,286,-1
 779 123 l 1,287,288
 802 149 802 149 815 174 c 0,289,290
 832 202 832 202 840 229 c 2,291,-1
 844 241 l 2,292,293
 845 243 845 243 845 247 c 2,294,-1
 848 253 l 2,295,296
 848 257 848 257 850 264 c 2,297,-1
 850 265 l 1,298,299
 856 299 856 299 856 326.5 c 128,-1,300
 856 354 856 354 850 387 c 1,301,-1
 850 388 l 2,302,303
 848 395 848 395 848 399 c 2,304,-1
 845 405 l 2,305,306
 845 409 845 409 844 411 c 2,307,-1
 840 423 l 2,308,309
 832 449 832 449 815 478.5 c 128,-1,310
 798 508 798 508 779 529 c 1,311,-1
 779 530 l 1,312,313
 779 530 779 530 778 530 c 0,314,315
 773 535 773 535 770.5 538 c 128,-1,316
 768 541 768 541 766.5 542.5 c 128,-1,317
 765 544 765 544 762 546.5 c 128,-1,318
 759 549 759 549 754 554 c 0,319,320
 754 555 754 555 754 555 c 1,321,-1
 753 555 l 1,322,323
 733 574 733 574 703.5 591 c 128,-1,324
 674 608 674 608 647 616 c 2,325,-1
 635 620 l 2,326,327
 633 621 633 621 629 621 c 2,328,-1
 623 624 l 2,329,330
 619 624 619 624 612 626 c 2,331,-1
 611 626 l 1,332,333
 577 632 577 632 549.5 632 c 128,-1,334
 522 632 522 632 489 626 c 1,335,-1
 488 626 l 2,336,337
 481 624 481 624 477 624 c 2,338,-1
 471 621 l 2,339,340
 467 621 467 621 465 620 c 2,341,-1
 453 616 l 2,342,343
 425 608 425 608 398 591 c 0,344,345
 374 578 374 578 347 555 c 1,346,-1
 347 555 l 1,347,348
 346 555 346 555 346 554 c 0,349,350
 341 549 341 549 338 546.5 c 128,-1,351
 335 544 335 544 333.5 542.5 c 128,-1,352
 332 541 332 541 329.5 538 c 128,-1,353
 327 535 327 535 322 530 c 2,354,-1
 321 529 l 2,355,356
 302 509 302 509 285 479.5 c 128,-1,357
 268 450 268 450 260 423 c 2,358,-1
 256 411 l 1,359,-1
 255 405 l 1,360,-1
 252 399 l 2,361,362
 252 395 252 395 250 388 c 2,363,-1
 250 387 l 1,364,365
 244 353 244 353 244 325.5 c 128,-1,366
 244 298 244 298 250 265 c 1,367,-1
 250 264 l 2,368,369
 252 257 252 257 252 253 c 2,370,-1
 260 229 l 2,371,372
 268 201 268 201 285 174 c 0,373,374
 298 150 298 150 321 123 c 2,375,-1
 322 122 l 2,376,377
 327 117 327 117 329.5 114 c 128,-1,378
 332 111 332 111 333.5 109.5 c 128,-1,379
 335 108 335 108 338 105.5 c 128,-1,380
 341 103 341 103 346 98 c 2,381,-1
 347 97 l 2,382,383
 373 74 373 74 398 61 c 0,384,385
 426 44 426 44 453 36 c 2,386,-1
 465 32 l 1,387,-1
 471 31 l 1,388,-1
 477 28 l 2,389,390
 481 28 481 28 488 26 c 2,391,-1
 489 26 l 1,392,393
 522 20 522 20 550 20 c 256,269,270
430 82 m 256,394,395
 420 82 420 82 412 87 c 0,396,397
 399 94 399 94 395.5 108.5 c 128,-1,398
 392 123 392 123 399 136 c 2,399,-1
 519 344 l 1,400,-1
 525 352 l 2,401,402
 529 354 529 354 532 357 c 2,403,-1
 668 435 l 2,404,405
 681 442 681 442 695.5 438.5 c 128,-1,406
 710 435 710 435 717 422 c 128,-1,407
 724 409 724 409 720.5 394.5 c 128,-1,408
 717 380 717 380 704 373 c 2,409,-1
 576 300 l 1,410,-1
 461 100 l 2,411,412
 456 92 456 92 448 87 c 128,-1,413
 440 82 440 82 430 82 c 256,394,395
EndSplineSet
EndChar

StartChar: 01:40
Encoding: 59412 59412 21
Width: 1100
VWidth: 834
GlyphClass: 1
Flags: W
LayerCount: 2
Fore
SplineSet
550 -52 m 2,0,1
 453 -52 453 -52 369 -5 c 2,2,-1
 362 -2 l 1,3,-1
 360 0 l 2,4,5
 359 1 359 1 354 3 c 0,6,7
 272 51 272 51 222 138 c 1,8,-1
 219 145 l 1,9,10
 219 145 219 145 218.5 145.5 c 128,-1,11
 218 146 218 146 218 147 c 2,12,-1
 208 164 l 1,13,-1
 203 177 l 1,14,15
 203 177 203 177 203 177 c 1,16,17
 201 179 201 179 201 182 c 2,18,-1
 190 211 l 1,19,20
 190 211 190 211 190 211 c 1,21,-1
 185 229 l 2,22,23
 183 234 183 234 183 237 c 2,24,-1
 180 246 l 2,25,26
 180 250 180 250 178 256 c 0,27,28
 178 261 178 261 177 264 c 2,29,-1
 174 282 l 2,30,31
 174 292 174 292 173 295 c 2,32,-1
 173 300 l 1,33,34
 173 300 173 300 173 300 c 1,35,-1
 172 315 l 1,36,-1
 172 326 l 2,37,38
 172 423 172 423 219 507 c 1,39,-1
 222 516 l 1,40,41
 222 516 222 516 224 516 c 2,42,-1
 227 523 l 1,43,44
 276 603 276 603 362 654 c 1,45,-1
 369 657 l 1,46,47
 369 657 369 657 369.5 657.5 c 128,-1,48
 370 658 370 658 371 658 c 2,49,-1
 388 668 l 1,50,-1
 401 673 l 1,51,52
 401 673 401 673 401 673 c 1,53,54
 403 675 403 675 405.5 676.5 c 128,-1,55
 408 678 408 678 416 679 c 2,56,-1
 435 686 l 1,57,58
 435 686 435 686 435 686 c 1,59,-1
 443 688 l 2,60,61
 448 690 448 690 453 691.5 c 128,-1,62
 458 693 458 693 461 693 c 2,63,-1
 470 696 l 2,64,65
 474 696 474 696 480 698 c 0,66,67
 485 698 485 698 488 699 c 2,68,-1
 524 703 l 1,69,70
 524 703 524 703 524 703 c 1,71,-1
 539 704 l 1,72,-1
 550 704 l 2,73,74
 647 704 647 704 731 657 c 2,75,-1
 747 649 l 1,76,77
 827 600 827 600 878 516 c 1,78,-1
 881 507 l 2,79,80
 882 506 882 506 882 505 c 2,81,-1
 892 488 l 1,82,-1
 897 475 l 2,83,84
 899 473 899 473 899 470 c 0,85,86
 901 465 901 465 904 458 c 2,87,-1
 912 433 l 2,88,89
 914 428 914 428 915 424 c 0,90,91
 917 417 917 417 917 415 c 2,92,-1
 920 406 l 2,93,94
 920 402 920 402 922 396 c 0,95,96
 922 391 922 391 923 388 c 2,97,-1
 928 338 l 1,98,-1
 928 326 l 2,99,100
 928 229 928 229 881 145 c 2,101,-1
 878 138 l 1,102,-1
 873 130 l 1,103,104
 825 48 825 48 740 -2 c 1,105,-1
 731 -5 l 2,106,107
 730 -6 730 -6 729 -6 c 2,108,-1
 712 -16 l 1,109,-1
 699 -21 l 2,110,111
 697 -23 697 -23 694 -23 c 2,112,-1
 689 -26 l 2,113,114
 684 -27 684 -27 682 -28 c 2,115,-1
 648 -39 l 2,116,117
 641 -41 641 -41 639 -41 c 2,118,-1
 630 -44 l 2,119,120
 626 -44 626 -44 620 -46 c 0,121,122
 615 -46 615 -46 612 -47 c 2,123,-1
 594 -50 l 2,124,125
 586 -50 586 -50 581 -51 c 2,126,-1
 562 -52 l 1,127,128
 562 -52 562 -52 562 -52 c 1,129,-1
 550 -52 l 2,0,1
550 20 m 0,130,131
 578 20 578 20 611 26 c 1,132,-1
 612 26 l 2,133,134
 619 28 619 28 623 28 c 2,135,-1
 629 31 l 1,136,137
 629 31 629 31 629 31 c 1,138,-1
 646 36 l 1,139,140
 646 36 646 36 646 36 c 1,141,-1
 647 36 l 1,142,143
 673 44 673 44 704 61 c 0,144,145
 758 93 758 93 794 140 c 1,146,147
 794 140 794 140 794 140.5 c 128,-1,148
 794 141 794 141 795 141 c 2,149,-1
 801 151 l 1,150,151
 801 151 801 151 801 151 c 1,152,153
 803 153 803 153 803.5 153.5 c 128,-1,154
 804 154 804 154 804 156 c 2,155,-1
 812 166 l 1,156,-1
 815 174 l 1,157,158
 815 174 815 174 815.5 174.5 c 128,-1,159
 816 175 816 175 819 180 c 2,160,-1
 821 183 l 1,161,-1
 821 184 l 1,162,-1
 832 206 l 2,163,164
 832 208 832 208 832.5 208 c 128,-1,165
 833 208 833 208 833 208 c 1,166,167
 856 266 856 266 856 326 c 0,168,169
 856 354 856 354 850 387 c 1,170,-1
 850 388 l 2,171,172
 848 395 848 395 848 399 c 2,173,-1
 845 405 l 1,174,175
 845 405 845 405 845 405 c 1,176,177
 845 409 845 409 844 411 c 2,178,-1
 840 422 l 1,179,180
 840 422 840 422 840 422 c 1,181,-1
 840 423 l 1,182,183
 832 449 832 449 815 480 c 0,184,185
 783 534 783 534 736 570 c 1,186,187
 736 570 736 570 736 570 c 1,188,-1
 736 570 l 1,189,190
 735 570 735 570 735 571 c 2,191,-1
 725 577 l 1,192,193
 725 577 725 577 725 577 c 1,194,195
 723 579 723 579 722.5 579.5 c 128,-1,196
 722 580 722 580 720 580 c 2,197,-1
 710 588 l 1,198,-1
 702 591 l 1,199,200
 702 591 702 591 701.5 591.5 c 128,-1,201
 701 592 701 592 696 595 c 2,202,-1
 693 597 l 1,203,-1
 692 597 l 1,204,-1
 670 608 l 2,205,206
 669 608 669 608 668.5 608.5 c 128,-1,207
 668 609 668 609 668 609 c 1,208,209
 612 632 612 632 550 632 c 0,210,211
 522 632 522 632 489 626 c 1,212,-1
 488 626 l 2,213,214
 481 624 481 624 477 624 c 2,215,-1
 471 621 l 2,216,217
 467 621 467 621 465 620 c 2,218,-1
 453 616 l 2,219,220
 425 608 425 608 398 591 c 0,221,222
 343 560 343 560 306 512 c 1,223,-1
 306 512 l 1,224,225
 306 511 306 511 305 511 c 2,226,-1
 297 498 l 2,227,228
 296 498 296 498 296 496 c 2,229,-1
 294 495 l 2,230,231
 294 493 294 493 292 490 c 2,232,-1
 288 486 l 1,233,-1
 285 478 l 2,234,235
 284 477 284 477 281 472 c 2,236,-1
 279 469 l 1,237,-1
 279 468 l 1,238,-1
 268 446 l 2,239,240
 268 445 268 445 267 444 c 0,241,242
 244 388 244 388 244 326 c 0,243,244
 244 298 244 298 250 265 c 1,245,-1
 250 264 l 2,246,247
 252 257 252 257 252 253 c 2,248,-1
 260 229 l 2,249,250
 268 201 268 201 285 174 c 0,251,252
 316 119 316 119 364 82 c 0,253,254
 365 82 365 82 365 81 c 2,255,-1
 378 73 l 2,256,257
 378 72 378 72 380 72 c 2,258,-1
 381 70 l 2,259,260
 383 70 383 70 386 68 c 2,261,-1
 390 64 l 1,262,-1
 398 61 l 2,263,264
 399 60 399 60 404 57 c 2,265,-1
 407 55 l 1,266,-1
 408 55 l 1,267,-1
 430 44 l 2,268,269
 432 44 432 44 432 43 c 0,270,271
 490 20 490 20 550 20 c 0,130,131
342 170 m 256,272,273
 332 170 332 170 324 175 c 128,-1,274
 316 180 316 180 311 188 c 0,275,276
 304 201 304 201 307.5 215.5 c 128,-1,277
 311 230 311 230 324 237 c 2,278,-1
 668 435 l 2,279,280
 681 442 681 442 695.5 438.5 c 128,-1,281
 710 435 710 435 717 422 c 128,-1,282
 724 409 724 409 720.5 394.5 c 128,-1,283
 717 380 717 380 704 373 c 2,284,-1
 360 175 l 2,285,286
 352 170 352 170 342 170 c 256,272,273
EndSplineSet
EndChar

StartChar: 01:45
Encoding: 59413 59413 22
Width: 1100
VWidth: 834
GlyphClass: 1
Flags: W
LayerCount: 2
Fore
SplineSet
550 -52 m 2,0,1
 453 -52 453 -52 369 -5 c 2,2,-1
 362 -2 l 2,3,4
 360 0 360 0 354 3 c 0,5,6
 272 51 272 51 222 138 c 1,7,-1
 219 145 l 2,8,9
 218 146 218 146 218 146.5 c 128,-1,10
 218 147 218 147 218 147 c 1,11,-1
 208 164 l 1,12,13
 208 164 208 164 208 164 c 1,14,-1
 203 177 l 2,15,16
 201 179 201 179 201 180.5 c 128,-1,17
 201 182 201 182 201 182 c 1,18,-1
 188 219 l 1,19,20
 188 219 188 219 188 219 c 1,21,-1
 185 229 l 2,22,23
 183 234 183 234 183 237 c 2,24,-1
 180 246 l 2,25,26
 180 250 180 250 178 256 c 0,27,28
 178 261 178 261 177 264 c 2,29,-1
 174 282 l 2,30,31
 174 292 174 292 173 295 c 1,32,33
 173 295 173 295 173 295 c 1,34,-1
 172 315 l 1,35,-1
 172 315 l 1,36,-1
 172 326 l 2,37,38
 172 423 172 423 219 507 c 2,39,-1
 222 514 l 2,40,41
 224 516 224 516 226 520 c 2,42,-1
 227 523 l 1,43,44
 276 603 276 603 362 654 c 1,45,-1
 369 657 l 2,46,47
 370 658 370 658 370.5 658 c 128,-1,48
 371 658 371 658 371 658 c 1,49,-1
 388 668 l 1,50,51
 388 668 388 668 388 668 c 1,52,-1
 401 673 l 2,53,54
 403 675 403 675 404.5 675 c 128,-1,55
 406 675 406 675 406 675 c 2,56,57
 408 677 408 677 416 679 c 2,58,-1
 443 688 l 1,59,60
 443 688 443 688 443 688 c 1,61,62
 448 690 448 690 453 691.5 c 128,-1,63
 458 693 458 693 461 693 c 2,64,-1
 470 696 l 2,65,66
 474 696 474 696 480 698 c 0,67,68
 485 698 485 698 488 699 c 2,69,-1
 519 703 l 1,70,-1
 519 703 l 1,71,-1
 539 704 l 1,72,-1
 539 704 l 1,73,-1
 569 704 l 1,74,75
 655 699 655 699 731 657 c 2,76,-1
 738 654 l 2,77,78
 743 652 743 652 746 649 c 2,79,-1
 747 649 l 1,80,81
 827 600 827 600 878 516 c 1,82,-1
 881 507 l 2,83,84
 882 506 882 506 882 505 c 2,85,-1
 892 488 l 1,86,-1
 897 475 l 2,87,88
 899 473 899 473 899 470 c 0,89,90
 901 465 901 465 904 458 c 2,91,-1
 912 433 l 2,92,93
 914 428 914 428 915 424 c 0,94,95
 917 417 917 417 917 415 c 2,96,-1
 920 406 l 2,97,98
 920 402 920 402 922 396 c 0,99,100
 922 391 922 391 923 388 c 2,101,-1
 928 338 l 1,102,-1
 928 307 l 1,103,104
 923 221 923 221 881 145 c 2,105,-1
 878 138 l 1,106,-1
 873 130 l 1,107,108
 825 48 825 48 740 -2 c 1,109,-1
 731 -5 l 2,110,111
 730 -6 730 -6 729 -6 c 2,112,-1
 712 -16 l 1,113,-1
 699 -21 l 2,114,115
 697 -23 697 -23 694 -23 c 2,116,-1
 689 -26 l 2,117,118
 684 -27 684 -27 682 -28 c 2,119,-1
 665 -34 l 1,120,-1
 630 -44 l 2,121,122
 628 -44 628 -44 625 -44.5 c 128,-1,123
 622 -45 622 -45 620 -46 c 0,124,125
 615 -46 615 -46 612 -47 c 2,126,-1
 608 -47 l 2,127,128
 606 -48 606 -48 600 -48 c 2,129,-1
 594 -50 l 2,130,131
 586 -50 586 -50 581 -51 c 2,132,-1
 562 -52 l 1,133,-1
 550 -52 l 2,0,1
550 20 m 0,134,135
 578 20 578 20 611 26 c 1,136,-1
 612 26 l 2,137,138
 619 28 619 28 623 28 c 2,139,-1
 629 31 l 1,140,-1
 635 32 l 1,141,142
 635 32 635 32 635 32 c 1,143,-1
 646 36 l 1,144,145
 646 36 646 36 646 36 c 1,146,-1
 647 36 l 1,147,148
 673 44 673 44 704 61 c 0,149,150
 758 93 758 93 794 140 c 1,151,-1
 794 141 l 1,152,-1
 795 141 l 1,153,-1
 803 154 l 1,154,155
 803 154 803 154 803 154 c 1,156,157
 805 156 805 156 808 162 c 2,158,-1
 812 166 l 1,159,160
 812 166 812 166 812 166 c 1,161,-1
 815 174 l 2,162,163
 816 175 816 175 819 180 c 1,164,165
 819 180 819 180 819 180 c 1,166,167
 821 182 821 182 821 184 c 2,168,-1
 832 206 l 2,169,170
 832 208 832 208 833 208 c 0,171,172
 845 239 845 239 850 265 c 2,173,-1
 852 279 l 2,174,175
 856 303 856 303 856 326 c 0,176,177
 856 354 856 354 850 387 c 1,178,-1
 850 388 l 2,179,180
 848 395 848 395 848 399 c 2,181,-1
 845 405 l 2,182,183
 845 409 845 409 844 411 c 1,184,185
 844 411 844 411 844 411 c 1,186,-1
 840 422 l 1,187,188
 840 422 840 422 840 422 c 1,189,-1
 840 423 l 1,190,191
 832 449 832 449 815 480 c 0,192,193
 783 534 783 534 736 570 c 1,194,195
 736 570 736 570 735.5 570 c 128,-1,196
 735 570 735 570 735 571 c 1,197,-1
 735 571 l 1,198,-1
 722 579 l 1,199,200
 722 579 722 579 722 579 c 1,201,202
 720 581 720 581 714 584 c 2,203,-1
 710 588 l 1,204,205
 710 588 710 588 710 588 c 1,206,-1
 702 591 l 2,207,208
 701 592 701 592 696 595 c 1,209,210
 696 595 696 595 696 595 c 1,211,212
 694 597 694 597 692 597 c 2,213,-1
 670 608 l 1,214,215
 670 608 670 608 669.5 608 c 128,-1,216
 669 608 669 608 668 609 c 0,217,218
 638 621 638 621 612 626 c 0,219,220
 581 631 581 631 566 632 c 2,221,-1
 550 632 l 2,222,223
 522 632 522 632 489 626 c 1,224,-1
 488 626 l 2,225,226
 481 624 481 624 477 624 c 2,227,-1
 471 621 l 2,228,229
 467 621 467 621 465 620 c 2,230,-1
 454 616 l 1,231,232
 454 616 454 616 454 616 c 1,233,-1
 453 616 l 1,234,235
 425 608 425 608 398 591 c 0,236,237
 343 560 343 560 306 512 c 1,238,239
 306 512 306 512 306 511.5 c 128,-1,240
 306 511 306 511 305 511 c 2,241,-1
 288 486 l 1,242,-1
 285 478 l 2,243,244
 284 477 284 477 281 472 c 2,245,-1
 268 446 l 2,246,247
 268 445 268 445 267 444 c 0,248,249
 244 388 244 388 244 326 c 2,250,-1
 244 310 l 2,251,252
 245 292 245 292 250 265 c 1,253,-1
 250 264 l 2,254,255
 252 257 252 257 252 253 c 2,256,-1
 260 230 l 1,257,258
 260 230 260 230 260 230 c 1,259,-1
 260 229 l 1,260,261
 268 201 268 201 285 174 c 0,262,263
 316 119 316 119 364 82 c 1,264,-1
 365 82 l 1,265,-1
 365 81 l 1,266,-1
 390 64 l 1,267,-1
 398 61 l 2,268,269
 399 60 399 60 404 57 c 2,270,-1
 430 44 l 2,271,272
 432 44 432 44 432 43 c 0,273,274
 490 20 490 20 550 20 c 0,134,135
310 290 m 2,275,276
 296 290 296 290 285 301 c 128,-1,277
 274 312 274 312 274 326 c 128,-1,278
 274 340 274 340 285 351 c 128,-1,279
 296 362 296 362 310 362 c 2,280,-1
 540 362 l 1,281,-1
 668 435 l 2,282,283
 681 442 681 442 695.5 438.5 c 128,-1,284
 710 435 710 435 717 422 c 128,-1,285
 724 409 724 409 720.5 394.5 c 128,-1,286
 717 380 717 380 704 373 c 2,287,-1
 568 295 l 2,288,289
 564 293 564 293 561 291 c 1,290,-1
 561 291 l 1,291,292
 557 290 557 290 552 290 c 1,293,-1
 552 290 l 1,294,-1
 310 290 l 2,275,276
EndSplineSet
EndChar

StartChar: 01:50
Encoding: 59414 59414 23
Width: 1100
VWidth: 834
GlyphClass: 1
Flags: W
LayerCount: 2
Fore
SplineSet
550 -52 m 2,0,1
 545 -52 545 -52 540 -52 c 2,2,-1
 519 -51 l 2,3,4
 515 -50 515 -50 506 -50 c 2,5,-1
 488 -47 l 2,6,7
 486 -46 486 -46 480 -46 c 0,8,9
 473 -44 473 -44 470 -44 c 2,10,-1
 461 -41 l 2,11,12
 457 -41 457 -41 453 -39 c 2,13,-1
 424 -30 l 1,14,-1
 406 -23 l 2,15,16
 404 -23 404 -23 401 -21 c 2,17,-1
 388 -16 l 1,18,-1
 371 -6 l 2,19,20
 370 -6 370 -6 369 -5 c 2,21,-1
 353 3 l 2,22,23
 353 4 353 4 351 4 c 2,24,-1
 335 15 l 2,25,26
 328 20 328 20 324 24 c 0,27,28
 322 25 322 25 320 27 c 0,29,30
 313 32 313 32 310 34 c 2,31,-1
 304 39 l 2,32,33
 299 44 299 44 296 46 c 2,34,-1
 290 52 l 1,35,-1
 282 58 l 1,36,-1
 270 72 l 2,37,38
 268 76 268 76 263 80 c 2,39,-1
 258 86 l 2,40,41
 256 88 256 88 251 96 c 0,42,43
 249 98 249 98 248 100 c 0,44,45
 244 104 244 104 239 111 c 2,46,-1
 228 127 l 2,47,48
 228 129 228 129 227 129 c 2,49,-1
 219 145 l 2,50,51
 218 146 218 146 218 147 c 2,52,-1
 208 164 l 1,53,-1
 203 177 l 2,54,55
 201 179 201 179 201 182 c 2,56,-1
 190 211 l 1,57,-1
 185 229 l 2,58,59
 183 234 183 234 183 237 c 2,60,-1
 180 246 l 2,61,62
 180 250 180 250 178 256 c 0,63,64
 178 261 178 261 177 264 c 2,65,-1
 174 282 l 2,66,67
 174 292 174 292 173 295 c 2,68,-1
 172 315 l 1,69,-1
 172 336 l 1,70,-1
 173 357 l 2,71,72
 174 362 174 362 174 370 c 2,73,-1
 177 388 l 2,74,75
 178 390 178 390 178 396 c 0,76,77
 180 403 180 403 180 406 c 2,78,-1
 183 415 l 2,79,80
 183 417 183 417 185 424 c 2,81,-1
 196 458 l 2,82,83
 197 460 197 460 198 465 c 2,84,-1
 201 470 l 2,85,86
 201 472 201 472 203 475 c 2,87,-1
 208 488 l 1,88,-1
 218 505 l 2,89,90
 218 506 218 506 219 507 c 2,91,-1
 222 516 l 2,92,93
 224 518 224 518 227 523 c 0,94,95
 228 524 228 524 228 525 c 2,96,-1
 248 553 l 1,97,-1
 251 556 l 2,98,99
 256 563 256 563 258 566 c 2,100,-1
 270 580 l 2,101,102
 271 581 271 581 274 584 c 2,103,-1
 276 586 l 1,104,-1
 282 594 l 2,105,106
 287 599 287 599 290 600 c 2,107,-1
 296 606 l 2,108,109
 300 608 300 608 304 612 c 128,-1,110
 308 616 308 616 310 618 c 128,-1,111
 312 620 312 620 320 625 c 0,112,113
 322 627 322 627 324 628 c 0,114,115
 328 632 328 632 335 637 c 2,116,-1
 356 650 l 2,117,118
 360 652 360 652 362 654 c 2,119,-1
 369 657 l 2,120,121
 370 658 370 658 371 658 c 2,122,-1
 388 668 l 1,123,-1
 401 673 l 2,124,125
 403 675 403 675 405.5 676.5 c 128,-1,126
 408 678 408 678 416 679 c 2,127,-1
 443 688 l 2,128,129
 448 690 448 690 453 691.5 c 128,-1,130
 458 693 458 693 461 693 c 2,131,-1
 470 696 l 2,132,133
 474 696 474 696 480 698 c 0,134,135
 485 698 485 698 488 699 c 2,136,-1
 539 704 l 1,137,-1
 560 704 l 1,138,-1
 581 703 l 1,139,-1
 612 699 l 2,140,141
 614 698 614 698 620 698 c 0,142,143
 627 696 627 696 630 696 c 2,144,-1
 639 693 l 2,145,146
 641 693 641 693 648 691 c 0,147,148
 652 691 652 691 657 688 c 2,149,-1
 682 680 l 2,150,151
 689 678 689 678 694 675 c 0,152,153
 696 675 696 675 699 673 c 2,154,-1
 712 668 l 1,155,-1
 729 658 l 2,156,157
 730 658 730 658 731 657 c 2,158,-1
 740 654 l 1,159,-1
 777 628 l 1,160,-1
 780 625 l 2,161,162
 787 620 787 620 789.5 618 c 128,-1,163
 792 616 792 616 796 613 c 2,164,-1
 804 606 l 2,165,166
 805 605 805 605 808 602 c 2,167,-1
 810 600 l 2,168,169
 812 599 812 599 817 594 c 128,-1,170
 822 589 822 589 824 586 c 2,171,-1
 826 584 l 2,172,173
 828 582 828 582 830 580 c 2,174,-1
 837 572 l 2,175,176
 841 568 841 568 842.5 566 c 128,-1,177
 844 564 844 564 849 556 c 2,178,-1
 852 553 l 1,179,-1
 878 516 l 1,180,-1
 881 507 l 2,181,182
 882 506 882 506 882 505 c 2,183,-1
 892 488 l 1,184,-1
 897 475 l 2,185,186
 899 473 899 473 899 470 c 0,187,188
 901 465 901 465 904 458 c 2,189,-1
 912 433 l 2,190,191
 914 428 914 428 915 424 c 0,192,193
 917 417 917 417 917 415 c 2,194,-1
 920 406 l 2,195,196
 920 402 920 402 922 396 c 0,197,198
 922 391 922 391 923 388 c 2,199,-1
 928 338 l 1,200,-1
 928 316 l 1,201,-1
 927 295 l 1,202,-1
 923 264 l 2,203,204
 922 262 922 262 922 256 c 0,205,206
 920 249 920 249 920 246 c 2,207,-1
 917 237 l 2,208,209
 917 233 917 233 916 228.5 c 128,-1,210
 915 224 915 224 912 219 c 2,211,-1
 903 192 l 2,212,213
 902 185 902 185 900.5 182.5 c 128,-1,214
 899 180 899 180 897 177 c 2,215,-1
 892 164 l 1,216,-1
 882 147 l 2,217,218
 882 146 882 146 881 145 c 2,219,-1
 878 138 l 2,220,221
 877 136 877 136 874 132 c 2,222,-1
 861 111 l 2,223,224
 856 104 856 104 852 100 c 0,225,226
 851 98 851 98 849 96 c 0,227,228
 844 89 844 89 842 86.5 c 128,-1,229
 840 84 840 84 836 79.5 c 128,-1,230
 832 75 832 75 830 72 c 2,231,-1
 824 66 l 2,232,233
 823 64 823 64 818 58 c 2,234,-1
 808 50 l 2,235,236
 806 48 806 48 804 46 c 2,237,-1
 790 34 l 2,238,239
 788 32 788 32 780 27 c 2,240,-1
 777 24 l 1,241,-1
 749 4 l 2,242,243
 748 4 748 4 747 3 c 0,244,245
 742 1 742 1 740 -2 c 2,246,-1
 731 -5 l 2,247,248
 730 -6 730 -6 729 -6 c 2,249,-1
 712 -16 l 1,250,-1
 699 -21 l 2,251,252
 697 -23 697 -23 694 -23 c 2,253,-1
 689 -26 l 2,254,255
 684 -27 684 -27 682 -28 c 2,256,-1
 648 -39 l 2,257,258
 641 -41 641 -41 639 -41 c 2,259,-1
 630 -44 l 2,260,261
 626 -44 626 -44 620 -46 c 0,262,263
 615 -46 615 -46 612 -47 c 2,264,-1
 594 -50 l 2,265,266
 586 -50 586 -50 581 -51 c 2,267,-1
 562 -52 l 1,268,-1
 550 -52 l 2,0,1
550 20 m 256,269,270
 578 20 578 20 611 26 c 1,271,-1
 612 26 l 2,272,273
 619 28 619 28 623 28 c 2,274,-1
 647 36 l 2,275,276
 673 44 673 44 702.5 61 c 128,-1,277
 732 78 732 78 753 97 c 2,278,-1
 754 98 l 2,279,280
 759 103 759 103 762 105.5 c 128,-1,281
 765 108 765 108 766.5 109.5 c 128,-1,282
 768 111 768 111 770.5 114 c 128,-1,283
 773 117 773 117 778 122 c 0,284,285
 779 122 779 122 779 123 c 1,286,-1
 779 123 l 1,287,288
 802 149 802 149 815 174 c 0,289,290
 832 202 832 202 840 229 c 2,291,-1
 844 241 l 2,292,293
 845 243 845 243 845 247 c 2,294,-1
 848 253 l 2,295,296
 848 257 848 257 850 264 c 2,297,-1
 850 265 l 1,298,299
 856 299 856 299 856 326.5 c 128,-1,300
 856 354 856 354 850 387 c 1,301,-1
 850 388 l 2,302,303
 848 395 848 395 848 399 c 2,304,-1
 845 405 l 2,305,306
 845 409 845 409 844 411 c 2,307,-1
 840 423 l 2,308,309
 832 449 832 449 815 478.5 c 128,-1,310
 798 508 798 508 779 529 c 1,311,-1
 779 530 l 1,312,313
 779 530 779 530 778 530 c 0,314,315
 773 535 773 535 770.5 538 c 128,-1,316
 768 541 768 541 766.5 542.5 c 128,-1,317
 765 544 765 544 762 546.5 c 128,-1,318
 759 549 759 549 754 554 c 0,319,320
 754 555 754 555 754 555 c 1,321,-1
 753 555 l 1,322,323
 733 574 733 574 703.5 591 c 128,-1,324
 674 608 674 608 647 616 c 2,325,-1
 635 620 l 2,326,327
 633 621 633 621 629 621 c 2,328,-1
 623 624 l 2,329,330
 619 624 619 624 612 626 c 2,331,-1
 611 626 l 1,332,333
 577 632 577 632 549.5 632 c 128,-1,334
 522 632 522 632 489 626 c 1,335,-1
 488 626 l 2,336,337
 481 624 481 624 477 624 c 2,338,-1
 471 621 l 2,339,340
 467 621 467 621 465 620 c 2,341,-1
 453 616 l 2,342,343
 425 608 425 608 398 591 c 0,344,345
 374 578 374 578 347 555 c 1,346,-1
 347 555 l 1,347,348
 346 555 346 555 346 554 c 0,349,350
 341 549 341 549 338 546.5 c 128,-1,351
 335 544 335 544 333.5 542.5 c 128,-1,352
 332 541 332 541 329.5 538 c 128,-1,353
 327 535 327 535 322 530 c 2,354,-1
 321 529 l 2,355,356
 302 509 302 509 285 479.5 c 128,-1,357
 268 450 268 450 260 423 c 2,358,-1
 256 411 l 1,359,-1
 255 405 l 1,360,-1
 252 399 l 2,361,362
 252 395 252 395 250 388 c 2,363,-1
 250 387 l 1,364,365
 244 353 244 353 244 325.5 c 128,-1,366
 244 298 244 298 250 265 c 1,367,-1
 250 264 l 2,368,369
 252 257 252 257 252 253 c 2,370,-1
 260 229 l 2,371,372
 268 201 268 201 285 174 c 0,373,374
 298 150 298 150 321 123 c 2,375,-1
 322 122 l 2,376,377
 327 117 327 117 329.5 114 c 128,-1,378
 332 111 332 111 333.5 109.5 c 128,-1,379
 335 108 335 108 338 105.5 c 128,-1,380
 341 103 341 103 346 98 c 2,381,-1
 347 97 l 2,382,383
 373 74 373 74 398 61 c 0,384,385
 426 44 426 44 453 36 c 2,386,-1
 465 32 l 1,387,-1
 471 31 l 1,388,-1
 477 28 l 2,389,390
 481 28 481 28 488 26 c 2,391,-1
 489 26 l 1,392,393
 522 20 522 20 550 20 c 256,269,270
550 290 m 2,394,395
 549 290 549 290 548 290 c 2,396,-1
 534 294 l 1,397,-1
 324 415 l 2,398,399
 311 422 311 422 307.5 436.5 c 128,-1,400
 304 451 304 451 311 464 c 128,-1,401
 318 477 318 477 332.5 480.5 c 128,-1,402
 347 484 347 484 360 477 c 2,403,-1
 550 368 l 1,404,-1
 668 435 l 2,405,406
 681 442 681 442 695.5 438.5 c 128,-1,407
 710 435 710 435 717 422 c 128,-1,408
 724 409 724 409 720.5 394.5 c 128,-1,409
 717 380 717 380 704 373 c 2,410,-1
 568 295 l 2,411,412
 564 293 564 293 560 291 c 2,413,-1
 550 290 l 2,394,395
EndSplineSet
EndChar

StartChar: 01:55
Encoding: 59415 59415 24
Width: 1100
VWidth: 834
GlyphClass: 1
Flags: W
LayerCount: 2
Fore
SplineSet
550 -52 m 2,0,1
 453 -52 453 -52 369 -5 c 2,2,-1
 362 -2 l 1,3,-1
 360 0 l 2,4,5
 359 1 359 1 354 3 c 0,6,7
 272 51 272 51 222 138 c 1,8,-1
 219 145 l 1,9,10
 219 145 219 145 218.5 145.5 c 128,-1,11
 218 146 218 146 218 147 c 2,12,-1
 208 164 l 1,13,-1
 203 177 l 1,14,15
 203 177 203 177 203 177 c 1,16,17
 201 179 201 179 201 182 c 2,18,-1
 190 211 l 1,19,20
 190 211 190 211 190 211 c 1,21,-1
 185 229 l 2,22,23
 183 234 183 234 183 237 c 2,24,-1
 180 246 l 2,25,26
 180 250 180 250 178 256 c 0,27,28
 178 261 178 261 177 264 c 2,29,-1
 174 282 l 2,30,31
 174 292 174 292 173 295 c 2,32,-1
 173 300 l 1,33,34
 173 300 173 300 173 300 c 1,35,-1
 172 315 l 1,36,-1
 172 326 l 2,37,38
 172 423 172 423 219 507 c 1,39,-1
 222 516 l 1,40,41
 222 516 222 516 224 516 c 2,42,-1
 227 523 l 1,43,44
 276 603 276 603 362 654 c 1,45,-1
 369 657 l 1,46,47
 369 657 369 657 369.5 657.5 c 128,-1,48
 370 658 370 658 371 658 c 2,49,-1
 388 668 l 1,50,-1
 401 673 l 1,51,52
 401 673 401 673 401 673 c 1,53,54
 403 675 403 675 405.5 676.5 c 128,-1,55
 408 678 408 678 416 679 c 2,56,-1
 435 686 l 1,57,58
 435 686 435 686 435 686 c 1,59,-1
 443 688 l 2,60,61
 448 690 448 690 453 691.5 c 128,-1,62
 458 693 458 693 461 693 c 2,63,-1
 470 696 l 2,64,65
 474 696 474 696 480 698 c 0,66,67
 485 698 485 698 488 699 c 2,68,-1
 524 703 l 1,69,70
 524 703 524 703 524 703 c 1,71,-1
 539 704 l 1,72,-1
 550 704 l 2,73,74
 647 704 647 704 731 657 c 2,75,-1
 747 649 l 1,76,77
 827 600 827 600 878 516 c 1,78,-1
 881 507 l 2,79,80
 882 506 882 506 882 505 c 2,81,-1
 892 488 l 1,82,-1
 897 475 l 2,83,84
 899 473 899 473 899 470 c 0,85,86
 901 465 901 465 904 458 c 2,87,-1
 912 433 l 2,88,89
 914 428 914 428 915 424 c 0,90,91
 917 417 917 417 917 415 c 2,92,-1
 920 406 l 2,93,94
 920 402 920 402 922 396 c 0,95,96
 922 391 922 391 923 388 c 2,97,-1
 928 338 l 1,98,-1
 928 326 l 2,99,100
 928 229 928 229 881 145 c 2,101,-1
 878 138 l 1,102,-1
 873 130 l 1,103,104
 825 48 825 48 740 -2 c 1,105,-1
 731 -5 l 2,106,107
 730 -6 730 -6 729 -6 c 2,108,-1
 712 -16 l 1,109,-1
 699 -21 l 2,110,111
 697 -23 697 -23 694 -23 c 2,112,-1
 689 -26 l 2,113,114
 684 -27 684 -27 682 -28 c 2,115,-1
 648 -39 l 2,116,117
 641 -41 641 -41 639 -41 c 2,118,-1
 630 -44 l 2,119,120
 626 -44 626 -44 620 -46 c 0,121,122
 615 -46 615 -46 612 -47 c 2,123,-1
 594 -50 l 2,124,125
 586 -50 586 -50 581 -51 c 2,126,-1
 562 -52 l 1,127,128
 562 -52 562 -52 562 -52 c 1,129,-1
 550 -52 l 2,0,1
550 20 m 0,130,131
 578 20 578 20 611 26 c 1,132,-1
 612 26 l 2,133,134
 619 28 619 28 623 28 c 2,135,-1
 629 31 l 1,136,137
 629 31 629 31 629 31 c 1,138,-1
 646 36 l 1,139,140
 646 36 646 36 646 36 c 1,141,-1
 647 36 l 1,142,143
 673 44 673 44 704 61 c 0,144,145
 758 93 758 93 794 140 c 1,146,147
 794 140 794 140 794 140.5 c 128,-1,148
 794 141 794 141 795 141 c 2,149,-1
 801 151 l 1,150,151
 801 151 801 151 801 151 c 1,152,153
 803 153 803 153 803.5 153.5 c 128,-1,154
 804 154 804 154 804 156 c 2,155,-1
 812 166 l 1,156,-1
 815 174 l 1,157,158
 815 174 815 174 815.5 174.5 c 128,-1,159
 816 175 816 175 819 180 c 2,160,-1
 821 183 l 1,161,-1
 821 184 l 1,162,-1
 832 206 l 2,163,164
 832 208 832 208 832.5 208 c 128,-1,165
 833 208 833 208 833 208 c 1,166,167
 856 266 856 266 856 326 c 0,168,169
 856 354 856 354 850 387 c 1,170,-1
 850 388 l 2,171,172
 848 395 848 395 848 399 c 2,173,-1
 845 405 l 1,174,175
 845 405 845 405 845 405 c 1,176,177
 845 409 845 409 844 411 c 2,178,-1
 840 422 l 1,179,180
 840 422 840 422 840 422 c 1,181,-1
 840 423 l 1,182,183
 832 449 832 449 815 480 c 0,184,185
 783 534 783 534 736 570 c 1,186,187
 736 570 736 570 736 570 c 1,188,-1
 736 570 l 1,189,190
 735 570 735 570 735 571 c 2,191,-1
 725 577 l 1,192,193
 725 577 725 577 725 577 c 1,194,195
 723 579 723 579 722.5 579.5 c 128,-1,196
 722 580 722 580 720 580 c 2,197,-1
 710 588 l 1,198,-1
 702 591 l 1,199,200
 702 591 702 591 701.5 591.5 c 128,-1,201
 701 592 701 592 696 595 c 2,202,-1
 693 597 l 1,203,-1
 692 597 l 1,204,-1
 670 608 l 2,205,206
 669 608 669 608 668.5 608.5 c 128,-1,207
 668 609 668 609 668 609 c 1,208,209
 612 632 612 632 550 632 c 0,210,211
 522 632 522 632 489 626 c 1,212,-1
 488 626 l 2,213,214
 481 624 481 624 477 624 c 2,215,-1
 471 621 l 2,216,217
 467 621 467 621 465 620 c 2,218,-1
 453 616 l 2,219,220
 425 608 425 608 398 591 c 0,221,222
 343 560 343 560 306 512 c 1,223,-1
 306 512 l 1,224,225
 306 511 306 511 305 511 c 2,226,-1
 297 498 l 2,227,228
 296 498 296 498 296 496 c 2,229,-1
 294 495 l 2,230,231
 294 493 294 493 292 490 c 2,232,-1
 288 486 l 1,233,-1
 285 478 l 2,234,235
 284 477 284 477 281 472 c 2,236,-1
 279 469 l 1,237,-1
 279 468 l 1,238,-1
 268 446 l 2,239,240
 268 445 268 445 267 444 c 0,241,242
 244 388 244 388 244 326 c 0,243,244
 244 298 244 298 250 265 c 1,245,-1
 250 264 l 2,246,247
 252 257 252 257 252 253 c 2,248,-1
 260 229 l 2,249,250
 268 201 268 201 285 174 c 0,251,252
 316 119 316 119 364 82 c 0,253,254
 365 82 365 82 365 81 c 2,255,-1
 378 73 l 2,256,257
 378 72 378 72 380 72 c 2,258,-1
 381 70 l 2,259,260
 383 70 383 70 386 68 c 2,261,-1
 390 64 l 1,262,-1
 398 61 l 2,263,264
 399 60 399 60 404 57 c 2,265,-1
 407 55 l 1,266,-1
 408 55 l 1,267,-1
 430 44 l 2,268,269
 432 44 432 44 432 43 c 0,270,271
 490 20 490 20 550 20 c 0,130,131
550 290 m 2,272,273
 549 290 549 290 548 290 c 2,274,-1
 534 294 l 1,275,-1
 525 301 l 2,276,277
 521 305 521 305 519 308 c 2,278,-1
 399 516 l 2,279,280
 392 529 392 529 395.5 543.5 c 128,-1,281
 399 558 399 558 412 565 c 128,-1,282
 425 572 425 572 439.5 568.5 c 128,-1,283
 454 565 454 565 461 552 c 2,284,-1
 563 375 l 1,285,-1
 668 435 l 2,286,287
 681 442 681 442 695.5 438.5 c 128,-1,288
 710 435 710 435 717 422 c 128,-1,289
 724 409 724 409 720.5 394.5 c 128,-1,290
 717 380 717 380 704 373 c 2,291,-1
 568 295 l 2,292,293
 564 293 564 293 560 291 c 2,294,-1
 550 290 l 2,272,273
EndSplineSet
EndChar

StartChar: 02:00
Encoding: 59416 59416 25
Width: 1100
VWidth: 834
GlyphClass: 1
Flags: W
LayerCount: 2
Fore
SplineSet
550 -52 m 2,0,1
 453 -52 453 -52 369 -5 c 2,2,-1
 362 -2 l 2,3,4
 360 0 360 0 354 3 c 0,5,6
 272 51 272 51 222 138 c 1,7,-1
 219 145 l 2,8,9
 218 146 218 146 218 146.5 c 128,-1,10
 218 147 218 147 218 147 c 1,11,-1
 208 164 l 1,12,13
 208 164 208 164 208 164 c 1,14,-1
 203 177 l 2,15,16
 201 179 201 179 201 180.5 c 128,-1,17
 201 182 201 182 201 182 c 1,18,-1
 188 219 l 1,19,20
 188 219 188 219 188 219 c 1,21,-1
 185 229 l 2,22,23
 183 234 183 234 183 237 c 2,24,-1
 180 246 l 2,25,26
 180 250 180 250 178 256 c 0,27,28
 178 261 178 261 177 264 c 2,29,-1
 174 282 l 2,30,31
 174 292 174 292 173 295 c 1,32,33
 173 295 173 295 173 295 c 1,34,-1
 172 315 l 1,35,-1
 172 315 l 1,36,-1
 172 326 l 2,37,38
 172 423 172 423 219 507 c 2,39,-1
 222 514 l 2,40,41
 224 516 224 516 226 520 c 2,42,-1
 227 523 l 1,43,44
 276 603 276 603 362 654 c 1,45,-1
 369 657 l 2,46,47
 370 658 370 658 370.5 658 c 128,-1,48
 371 658 371 658 371 658 c 1,49,-1
 388 668 l 1,50,51
 388 668 388 668 388 668 c 1,52,-1
 401 673 l 2,53,54
 403 675 403 675 404.5 675 c 128,-1,55
 406 675 406 675 406 675 c 2,56,57
 408 677 408 677 416 679 c 2,58,-1
 443 688 l 1,59,60
 443 688 443 688 443 688 c 1,61,62
 448 690 448 690 453 691.5 c 128,-1,63
 458 693 458 693 461 693 c 2,64,-1
 470 696 l 2,65,66
 474 696 474 696 480 698 c 0,67,68
 485 698 485 698 488 699 c 2,69,-1
 519 703 l 1,70,-1
 519 703 l 1,71,-1
 539 704 l 1,72,-1
 539 704 l 1,73,-1
 569 704 l 1,74,75
 655 699 655 699 731 657 c 2,76,-1
 738 654 l 2,77,78
 743 652 743 652 746 649 c 2,79,-1
 747 649 l 1,80,81
 827 600 827 600 878 516 c 1,82,-1
 881 507 l 2,83,84
 882 506 882 506 882 505 c 2,85,-1
 892 488 l 1,86,-1
 897 475 l 2,87,88
 899 473 899 473 899 470 c 0,89,90
 901 465 901 465 904 458 c 2,91,-1
 912 433 l 2,92,93
 914 428 914 428 915 424 c 0,94,95
 917 417 917 417 917 415 c 2,96,-1
 920 406 l 2,97,98
 920 402 920 402 922 396 c 0,99,100
 922 391 922 391 923 388 c 2,101,-1
 928 338 l 1,102,-1
 928 307 l 1,103,104
 923 221 923 221 881 145 c 2,105,-1
 878 138 l 1,106,-1
 873 130 l 1,107,108
 825 48 825 48 740 -2 c 1,109,-1
 731 -5 l 2,110,111
 730 -6 730 -6 729 -6 c 2,112,-1
 712 -16 l 1,113,-1
 699 -21 l 2,114,115
 697 -23 697 -23 694 -23 c 2,116,-1
 689 -26 l 2,117,118
 684 -27 684 -27 682 -28 c 2,119,-1
 665 -34 l 1,120,-1
 630 -44 l 2,121,122
 628 -44 628 -44 625 -44.5 c 128,-1,123
 622 -45 622 -45 620 -46 c 0,124,125
 615 -46 615 -46 612 -47 c 2,126,-1
 608 -47 l 2,127,128
 606 -48 606 -48 600 -48 c 2,129,-1
 594 -50 l 2,130,131
 586 -50 586 -50 581 -51 c 2,132,-1
 562 -52 l 1,133,-1
 550 -52 l 2,0,1
550 20 m 0,134,135
 578 20 578 20 611 26 c 1,136,-1
 612 26 l 2,137,138
 619 28 619 28 623 28 c 2,139,-1
 629 31 l 1,140,-1
 635 32 l 1,141,142
 635 32 635 32 635 32 c 1,143,-1
 646 36 l 1,144,145
 646 36 646 36 646 36 c 1,146,-1
 647 36 l 1,147,148
 673 44 673 44 704 61 c 0,149,150
 758 93 758 93 794 140 c 1,151,-1
 794 141 l 1,152,-1
 795 141 l 1,153,-1
 803 154 l 1,154,155
 803 154 803 154 803 154 c 1,156,157
 805 156 805 156 808 162 c 2,158,-1
 812 166 l 1,159,160
 812 166 812 166 812 166 c 1,161,-1
 815 174 l 2,162,163
 816 175 816 175 819 180 c 1,164,165
 819 180 819 180 819 180 c 1,166,167
 821 182 821 182 821 184 c 2,168,-1
 832 206 l 2,169,170
 832 208 832 208 833 208 c 0,171,172
 845 239 845 239 850 265 c 2,173,-1
 852 279 l 2,174,175
 856 303 856 303 856 326 c 0,176,177
 856 354 856 354 850 387 c 1,178,-1
 850 388 l 2,179,180
 848 395 848 395 848 399 c 2,181,-1
 845 405 l 2,182,183
 845 409 845 409 844 411 c 1,184,185
 844 411 844 411 844 411 c 1,186,-1
 840 422 l 1,187,188
 840 422 840 422 840 422 c 1,189,-1
 840 423 l 1,190,191
 832 449 832 449 815 480 c 0,192,193
 783 534 783 534 736 570 c 1,194,195
 736 570 736 570 735.5 570 c 128,-1,196
 735 570 735 570 735 571 c 1,197,-1
 735 571 l 1,198,-1
 722 579 l 1,199,200
 722 579 722 579 722 579 c 1,201,202
 720 581 720 581 714 584 c 2,203,-1
 710 588 l 1,204,205
 710 588 710 588 710 588 c 1,206,-1
 702 591 l 2,207,208
 701 592 701 592 696 595 c 1,209,210
 696 595 696 595 696 595 c 1,211,212
 694 597 694 597 692 597 c 2,213,-1
 670 608 l 1,214,215
 670 608 670 608 669.5 608 c 128,-1,216
 669 608 669 608 668 609 c 0,217,218
 638 621 638 621 612 626 c 0,219,220
 581 631 581 631 566 632 c 2,221,-1
 550 632 l 2,222,223
 522 632 522 632 489 626 c 1,224,-1
 488 626 l 2,225,226
 481 624 481 624 477 624 c 2,227,-1
 471 621 l 2,228,229
 467 621 467 621 465 620 c 2,230,-1
 454 616 l 1,231,232
 454 616 454 616 454 616 c 1,233,-1
 453 616 l 1,234,235
 425 608 425 608 398 591 c 0,236,237
 343 560 343 560 306 512 c 1,238,239
 306 512 306 512 306 511.5 c 128,-1,240
 306 511 306 511 305 511 c 2,241,-1
 288 486 l 1,242,-1
 285 478 l 2,243,244
 284 477 284 477 281 472 c 2,245,-1
 268 446 l 2,246,247
 268 445 268 445 267 444 c 0,248,249
 244 388 244 388 244 326 c 2,250,-1
 244 310 l 2,251,252
 245 292 245 292 250 265 c 1,253,-1
 250 264 l 2,254,255
 252 257 252 257 252 253 c 2,256,-1
 260 230 l 1,257,258
 260 230 260 230 260 230 c 1,259,-1
 260 229 l 1,260,261
 268 201 268 201 285 174 c 0,262,263
 316 119 316 119 364 82 c 1,264,-1
 365 82 l 1,265,-1
 365 81 l 1,266,-1
 390 64 l 1,267,-1
 398 61 l 2,268,269
 399 60 399 60 404 57 c 2,270,-1
 430 44 l 2,271,272
 432 44 432 44 432 43 c 0,273,274
 490 20 490 20 550 20 c 0,134,135
550 290 m 2,275,276
 549 290 549 290 548 290 c 2,277,-1
 534 294 l 1,278,-1
 525 301 l 2,279,280
 521 305 521 305 518.5 308.5 c 128,-1,281
 516 312 516 312 515 316 c 2,282,-1
 514 325 l 1,283,-1
 514 566 l 2,284,285
 514 580 514 580 525 591 c 128,-1,286
 536 602 536 602 550 602 c 128,-1,287
 564 602 564 602 575 591 c 128,-1,288
 586 580 586 580 586 566 c 2,289,-1
 586 388 l 1,290,-1
 668 435 l 2,291,292
 681 442 681 442 695.5 438.5 c 128,-1,293
 710 435 710 435 717 422 c 128,-1,294
 724 409 724 409 720.5 394.5 c 128,-1,295
 717 380 717 380 704 373 c 2,296,-1
 568 295 l 2,297,298
 564 293 564 293 561 291 c 1,299,-1
 561 291 l 1,300,301
 557 290 557 290 552 290 c 1,302,-1
 552 290 l 1,303,-1
 550 290 l 2,275,276
EndSplineSet
EndChar

StartChar: 02:05
Encoding: 59417 59417 26
Width: 1100
VWidth: 834
GlyphClass: 1
Flags: W
LayerCount: 2
Fore
SplineSet
550 -52 m 2,0,1
 545 -52 545 -52 540 -52 c 2,2,-1
 519 -51 l 2,3,4
 515 -50 515 -50 506 -50 c 2,5,-1
 488 -47 l 2,6,7
 486 -46 486 -46 480 -46 c 0,8,9
 473 -44 473 -44 470 -44 c 2,10,-1
 461 -41 l 2,11,12
 457 -41 457 -41 453 -39 c 2,13,-1
 424 -30 l 1,14,-1
 406 -23 l 2,15,16
 404 -23 404 -23 401 -21 c 2,17,-1
 388 -16 l 1,18,-1
 371 -6 l 2,19,20
 370 -6 370 -6 369 -5 c 2,21,-1
 353 3 l 2,22,23
 353 4 353 4 351 4 c 2,24,-1
 335 15 l 2,25,26
 328 20 328 20 324 24 c 0,27,28
 322 25 322 25 320 27 c 0,29,30
 313 32 313 32 310 34 c 2,31,-1
 304 39 l 2,32,33
 299 44 299 44 296 46 c 2,34,-1
 290 52 l 1,35,-1
 282 58 l 1,36,-1
 270 72 l 2,37,38
 268 76 268 76 263 80 c 2,39,-1
 258 86 l 2,40,41
 256 88 256 88 251 96 c 0,42,43
 249 98 249 98 248 100 c 0,44,45
 244 104 244 104 239 111 c 2,46,-1
 228 127 l 2,47,48
 228 129 228 129 227 129 c 2,49,-1
 219 145 l 2,50,51
 218 146 218 146 218 147 c 2,52,-1
 208 164 l 1,53,-1
 203 177 l 2,54,55
 201 179 201 179 201 182 c 2,56,-1
 190 211 l 1,57,-1
 185 229 l 2,58,59
 183 234 183 234 183 237 c 2,60,-1
 180 246 l 2,61,62
 180 250 180 250 178 256 c 0,63,64
 178 261 178 261 177 264 c 2,65,-1
 174 282 l 2,66,67
 174 292 174 292 173 295 c 2,68,-1
 172 315 l 1,69,-1
 172 336 l 1,70,-1
 173 357 l 2,71,72
 174 362 174 362 174 370 c 2,73,-1
 177 388 l 2,74,75
 178 390 178 390 178 396 c 0,76,77
 180 403 180 403 180 406 c 2,78,-1
 183 415 l 2,79,80
 183 417 183 417 185 424 c 2,81,-1
 196 458 l 2,82,83
 197 460 197 460 198 465 c 2,84,-1
 201 470 l 2,85,86
 201 472 201 472 203 475 c 2,87,-1
 208 488 l 1,88,-1
 218 505 l 2,89,90
 218 506 218 506 219 507 c 2,91,-1
 222 516 l 2,92,93
 224 518 224 518 227 523 c 0,94,95
 228 524 228 524 228 525 c 2,96,-1
 248 553 l 1,97,-1
 251 556 l 2,98,99
 256 563 256 563 258 566 c 2,100,-1
 270 580 l 2,101,102
 271 581 271 581 274 584 c 2,103,-1
 276 586 l 1,104,-1
 282 594 l 2,105,106
 287 599 287 599 290 600 c 2,107,-1
 296 606 l 2,108,109
 300 608 300 608 304 612 c 128,-1,110
 308 616 308 616 310 618 c 128,-1,111
 312 620 312 620 320 625 c 0,112,113
 322 627 322 627 324 628 c 0,114,115
 328 632 328 632 335 637 c 2,116,-1
 356 650 l 2,117,118
 360 652 360 652 362 654 c 2,119,-1
 369 657 l 2,120,121
 370 658 370 658 371 658 c 2,122,-1
 388 668 l 1,123,-1
 401 673 l 2,124,125
 403 675 403 675 405.5 676.5 c 128,-1,126
 408 678 408 678 416 679 c 2,127,-1
 443 688 l 2,128,129
 448 690 448 690 453 691.5 c 128,-1,130
 458 693 458 693 461 693 c 2,131,-1
 470 696 l 2,132,133
 474 696 474 696 480 698 c 0,134,135
 485 698 485 698 488 699 c 2,136,-1
 539 704 l 1,137,-1
 560 704 l 1,138,-1
 581 703 l 1,139,-1
 612 699 l 2,140,141
 614 698 614 698 620 698 c 0,142,143
 627 696 627 696 630 696 c 2,144,-1
 639 693 l 2,145,146
 641 693 641 693 648 691 c 0,147,148
 652 691 652 691 657 688 c 2,149,-1
 682 680 l 2,150,151
 689 678 689 678 694 675 c 0,152,153
 696 675 696 675 699 673 c 2,154,-1
 712 668 l 1,155,-1
 729 658 l 2,156,157
 730 658 730 658 731 657 c 2,158,-1
 740 654 l 1,159,-1
 777 628 l 1,160,-1
 780 625 l 2,161,162
 787 620 787 620 789.5 618 c 128,-1,163
 792 616 792 616 796 613 c 2,164,-1
 804 606 l 2,165,166
 805 605 805 605 808 602 c 2,167,-1
 810 600 l 2,168,169
 812 599 812 599 817 594 c 128,-1,170
 822 589 822 589 824 586 c 2,171,-1
 826 584 l 2,172,173
 828 582 828 582 830 580 c 2,174,-1
 837 572 l 2,175,176
 841 568 841 568 842.5 566 c 128,-1,177
 844 564 844 564 849 556 c 2,178,-1
 852 553 l 1,179,-1
 878 516 l 1,180,-1
 881 507 l 2,181,182
 882 506 882 506 882 505 c 2,183,-1
 892 488 l 1,184,-1
 897 475 l 2,185,186
 899 473 899 473 899 470 c 0,187,188
 901 465 901 465 904 458 c 2,189,-1
 912 433 l 2,190,191
 914 428 914 428 915 424 c 0,192,193
 917 417 917 417 917 415 c 2,194,-1
 920 406 l 2,195,196
 920 402 920 402 922 396 c 0,197,198
 922 391 922 391 923 388 c 2,199,-1
 928 338 l 1,200,-1
 928 316 l 1,201,-1
 927 295 l 1,202,-1
 923 264 l 2,203,204
 922 262 922 262 922 256 c 0,205,206
 920 249 920 249 920 246 c 2,207,-1
 917 237 l 2,208,209
 917 233 917 233 916 228.5 c 128,-1,210
 915 224 915 224 912 219 c 2,211,-1
 903 192 l 2,212,213
 902 185 902 185 900.5 182.5 c 128,-1,214
 899 180 899 180 897 177 c 2,215,-1
 892 164 l 1,216,-1
 882 147 l 2,217,218
 882 146 882 146 881 145 c 2,219,-1
 878 138 l 2,220,221
 877 136 877 136 874 132 c 2,222,-1
 861 111 l 2,223,224
 856 104 856 104 852 100 c 0,225,226
 851 98 851 98 849 96 c 0,227,228
 844 89 844 89 842 86.5 c 128,-1,229
 840 84 840 84 836 79.5 c 128,-1,230
 832 75 832 75 830 72 c 2,231,-1
 824 66 l 2,232,233
 823 64 823 64 818 58 c 2,234,-1
 808 50 l 2,235,236
 806 48 806 48 804 46 c 2,237,-1
 790 34 l 2,238,239
 788 32 788 32 780 27 c 2,240,-1
 777 24 l 1,241,-1
 749 4 l 2,242,243
 748 4 748 4 747 3 c 0,244,245
 742 1 742 1 740 -2 c 2,246,-1
 731 -5 l 2,247,248
 730 -6 730 -6 729 -6 c 2,249,-1
 712 -16 l 1,250,-1
 699 -21 l 2,251,252
 697 -23 697 -23 694 -23 c 2,253,-1
 689 -26 l 2,254,255
 684 -27 684 -27 682 -28 c 2,256,-1
 648 -39 l 2,257,258
 641 -41 641 -41 639 -41 c 2,259,-1
 630 -44 l 2,260,261
 626 -44 626 -44 620 -46 c 0,262,263
 615 -46 615 -46 612 -47 c 2,264,-1
 594 -50 l 2,265,266
 586 -50 586 -50 581 -51 c 2,267,-1
 562 -52 l 1,268,-1
 550 -52 l 2,0,1
550 20 m 256,269,270
 578 20 578 20 611 26 c 1,271,-1
 612 26 l 2,272,273
 619 28 619 28 623 28 c 2,274,-1
 647 36 l 2,275,276
 673 44 673 44 702.5 61 c 128,-1,277
 732 78 732 78 753 97 c 2,278,-1
 754 98 l 2,279,280
 759 103 759 103 762 105.5 c 128,-1,281
 765 108 765 108 766.5 109.5 c 128,-1,282
 768 111 768 111 770.5 114 c 128,-1,283
 773 117 773 117 778 122 c 0,284,285
 779 122 779 122 779 123 c 1,286,-1
 779 123 l 1,287,288
 802 149 802 149 815 174 c 0,289,290
 832 202 832 202 840 229 c 2,291,-1
 844 241 l 2,292,293
 845 243 845 243 845 247 c 2,294,-1
 848 253 l 2,295,296
 848 257 848 257 850 264 c 2,297,-1
 850 265 l 1,298,299
 856 299 856 299 856 326.5 c 128,-1,300
 856 354 856 354 850 387 c 1,301,-1
 850 388 l 2,302,303
 848 395 848 395 848 399 c 2,304,-1
 845 405 l 2,305,306
 845 409 845 409 844 411 c 2,307,-1
 840 423 l 2,308,309
 832 449 832 449 815 478.5 c 128,-1,310
 798 508 798 508 779 529 c 1,311,-1
 779 530 l 1,312,313
 779 530 779 530 778 530 c 0,314,315
 773 535 773 535 770.5 538 c 128,-1,316
 768 541 768 541 766.5 542.5 c 128,-1,317
 765 544 765 544 762 546.5 c 128,-1,318
 759 549 759 549 754 554 c 0,319,320
 754 555 754 555 754 555 c 1,321,-1
 753 555 l 1,322,323
 733 574 733 574 703.5 591 c 128,-1,324
 674 608 674 608 647 616 c 2,325,-1
 635 620 l 2,326,327
 633 621 633 621 629 621 c 2,328,-1
 623 624 l 2,329,330
 619 624 619 624 612 626 c 2,331,-1
 611 626 l 1,332,333
 577 632 577 632 549.5 632 c 128,-1,334
 522 632 522 632 489 626 c 1,335,-1
 488 626 l 2,336,337
 481 624 481 624 477 624 c 2,338,-1
 471 621 l 2,339,340
 467 621 467 621 465 620 c 2,341,-1
 453 616 l 2,342,343
 425 608 425 608 398 591 c 0,344,345
 374 578 374 578 347 555 c 1,346,-1
 347 555 l 1,347,348
 346 555 346 555 346 554 c 0,349,350
 341 549 341 549 338 546.5 c 128,-1,351
 335 544 335 544 333.5 542.5 c 128,-1,352
 332 541 332 541 329.5 538 c 128,-1,353
 327 535 327 535 322 530 c 2,354,-1
 321 529 l 2,355,356
 302 509 302 509 285 479.5 c 128,-1,357
 268 450 268 450 260 423 c 2,358,-1
 256 411 l 1,359,-1
 255 405 l 1,360,-1
 252 399 l 2,361,362
 252 395 252 395 250 388 c 2,363,-1
 250 387 l 1,364,365
 244 353 244 353 244 325.5 c 128,-1,366
 244 298 244 298 250 265 c 1,367,-1
 250 264 l 2,368,369
 252 257 252 257 252 253 c 2,370,-1
 260 229 l 2,371,372
 268 201 268 201 285 174 c 0,373,374
 298 150 298 150 321 123 c 2,375,-1
 322 122 l 2,376,377
 327 117 327 117 329.5 114 c 128,-1,378
 332 111 332 111 333.5 109.5 c 128,-1,379
 335 108 335 108 338 105.5 c 128,-1,380
 341 103 341 103 346 98 c 2,381,-1
 347 97 l 2,382,383
 373 74 373 74 398 61 c 0,384,385
 426 44 426 44 453 36 c 2,386,-1
 465 32 l 1,387,-1
 471 31 l 1,388,-1
 477 28 l 2,389,390
 481 28 481 28 488 26 c 2,391,-1
 489 26 l 1,392,393
 522 20 522 20 550 20 c 256,269,270
550 290 m 2,394,395
 549 290 549 290 548 290 c 2,396,-1
 534 294 l 1,397,-1
 532 295 l 1,398,-1
 525 301 l 2,399,400
 521 305 521 305 518.5 308.5 c 128,-1,401
 516 312 516 312 515 316 c 2,402,-1
 514 325 l 1,403,-1
 514 328 l 1,404,-1
 518 342 l 1,405,-1
 639 552 l 2,406,407
 646 565 646 565 660.5 568.5 c 128,-1,408
 675 572 675 572 688 565 c 128,-1,409
 701 558 701 558 704.5 543.5 c 128,-1,410
 708 529 708 529 701 516 c 2,411,-1
 648 424 l 1,412,-1
 668 435 l 2,413,414
 681 442 681 442 695.5 438.5 c 128,-1,415
 710 435 710 435 717 422 c 128,-1,416
 724 409 724 409 720.5 394.5 c 128,-1,417
 717 380 717 380 704 373 c 2,418,-1
 568 295 l 2,419,420
 564 293 564 293 560 291 c 2,421,-1
 550 290 l 2,394,395
EndSplineSet
EndChar

StartChar: 02:10
Encoding: 59418 59418 27
Width: 1100
VWidth: 834
GlyphClass: 1
Flags: W
LayerCount: 2
Fore
SplineSet
550 -52 m 2,0,1
 453 -52 453 -52 369 -5 c 2,2,-1
 362 -2 l 1,3,-1
 360 0 l 2,4,5
 359 1 359 1 354 3 c 0,6,7
 272 51 272 51 222 138 c 1,8,-1
 219 145 l 1,9,10
 219 145 219 145 218.5 145.5 c 128,-1,11
 218 146 218 146 218 147 c 2,12,-1
 208 164 l 1,13,-1
 203 177 l 1,14,15
 203 177 203 177 203 177 c 1,16,17
 201 179 201 179 201 182 c 2,18,-1
 190 211 l 1,19,20
 190 211 190 211 190 211 c 1,21,-1
 185 229 l 2,22,23
 183 234 183 234 183 237 c 2,24,-1
 180 246 l 2,25,26
 180 250 180 250 178 256 c 0,27,28
 178 261 178 261 177 264 c 2,29,-1
 174 282 l 2,30,31
 174 292 174 292 173 295 c 2,32,-1
 173 300 l 1,33,34
 173 300 173 300 173 300 c 1,35,-1
 172 315 l 1,36,-1
 172 326 l 2,37,38
 172 423 172 423 219 507 c 1,39,-1
 222 516 l 1,40,41
 222 516 222 516 224 516 c 2,42,-1
 227 523 l 1,43,44
 276 603 276 603 362 654 c 1,45,-1
 369 657 l 1,46,47
 369 657 369 657 369.5 657.5 c 128,-1,48
 370 658 370 658 371 658 c 2,49,-1
 388 668 l 1,50,-1
 401 673 l 1,51,52
 401 673 401 673 401 673 c 1,53,54
 403 675 403 675 405.5 676.5 c 128,-1,55
 408 678 408 678 416 679 c 2,56,-1
 435 686 l 1,57,58
 435 686 435 686 435 686 c 1,59,-1
 443 688 l 2,60,61
 448 690 448 690 453 691.5 c 128,-1,62
 458 693 458 693 461 693 c 2,63,-1
 470 696 l 2,64,65
 474 696 474 696 480 698 c 0,66,67
 485 698 485 698 488 699 c 2,68,-1
 524 703 l 1,69,70
 524 703 524 703 524 703 c 1,71,-1
 539 704 l 1,72,-1
 550 704 l 2,73,74
 647 704 647 704 731 657 c 2,75,-1
 747 649 l 1,76,77
 827 600 827 600 878 516 c 1,78,-1
 881 507 l 2,79,80
 882 506 882 506 882 505 c 2,81,-1
 892 488 l 1,82,-1
 897 475 l 2,83,84
 899 473 899 473 899 470 c 0,85,86
 901 465 901 465 904 458 c 2,87,-1
 912 433 l 2,88,89
 914 428 914 428 915 424 c 0,90,91
 917 417 917 417 917 415 c 2,92,-1
 920 406 l 2,93,94
 920 402 920 402 922 396 c 0,95,96
 922 391 922 391 923 388 c 2,97,-1
 928 338 l 1,98,-1
 928 326 l 2,99,100
 928 229 928 229 881 145 c 2,101,-1
 878 138 l 1,102,-1
 873 130 l 1,103,104
 825 48 825 48 740 -2 c 1,105,-1
 731 -5 l 2,106,107
 730 -6 730 -6 729 -6 c 2,108,-1
 712 -16 l 1,109,-1
 699 -21 l 2,110,111
 697 -23 697 -23 694 -23 c 2,112,-1
 689 -26 l 2,113,114
 684 -27 684 -27 682 -28 c 2,115,-1
 648 -39 l 2,116,117
 641 -41 641 -41 639 -41 c 2,118,-1
 630 -44 l 2,119,120
 626 -44 626 -44 620 -46 c 0,121,122
 615 -46 615 -46 612 -47 c 2,123,-1
 594 -50 l 2,124,125
 586 -50 586 -50 581 -51 c 2,126,-1
 562 -52 l 1,127,128
 562 -52 562 -52 562 -52 c 1,129,-1
 550 -52 l 2,0,1
550 20 m 0,130,131
 578 20 578 20 611 26 c 1,132,-1
 612 26 l 2,133,134
 619 28 619 28 623 28 c 2,135,-1
 629 31 l 1,136,137
 629 31 629 31 629 31 c 1,138,-1
 646 36 l 1,139,140
 646 36 646 36 646 36 c 1,141,-1
 647 36 l 1,142,143
 673 44 673 44 704 61 c 0,144,145
 758 93 758 93 794 140 c 1,146,147
 794 140 794 140 794 140.5 c 128,-1,148
 794 141 794 141 795 141 c 2,149,-1
 801 151 l 1,150,151
 801 151 801 151 801 151 c 1,152,153
 803 153 803 153 803.5 153.5 c 128,-1,154
 804 154 804 154 804 156 c 2,155,-1
 812 166 l 1,156,-1
 815 174 l 1,157,158
 815 174 815 174 815.5 174.5 c 128,-1,159
 816 175 816 175 819 180 c 2,160,-1
 821 183 l 1,161,-1
 821 184 l 1,162,-1
 832 206 l 2,163,164
 832 208 832 208 832.5 208 c 128,-1,165
 833 208 833 208 833 208 c 1,166,167
 856 266 856 266 856 326 c 0,168,169
 856 354 856 354 850 387 c 1,170,-1
 850 388 l 2,171,172
 848 395 848 395 848 399 c 2,173,-1
 845 405 l 1,174,175
 845 405 845 405 845 405 c 1,176,177
 845 409 845 409 844 411 c 2,178,-1
 840 422 l 1,179,180
 840 422 840 422 840 422 c 1,181,-1
 840 423 l 1,182,183
 832 449 832 449 815 480 c 0,184,185
 783 534 783 534 736 570 c 1,186,187
 736 570 736 570 736 570 c 1,188,-1
 736 570 l 1,189,190
 735 570 735 570 735 571 c 2,191,-1
 725 577 l 1,192,193
 725 577 725 577 725 577 c 1,194,195
 723 579 723 579 722.5 579.5 c 128,-1,196
 722 580 722 580 720 580 c 2,197,-1
 710 588 l 1,198,-1
 702 591 l 1,199,200
 702 591 702 591 701.5 591.5 c 128,-1,201
 701 592 701 592 696 595 c 2,202,-1
 693 597 l 1,203,-1
 692 597 l 1,204,-1
 670 608 l 2,205,206
 669 608 669 608 668.5 608.5 c 128,-1,207
 668 609 668 609 668 609 c 1,208,209
 612 632 612 632 550 632 c 0,210,211
 522 632 522 632 489 626 c 1,212,-1
 488 626 l 2,213,214
 481 624 481 624 477 624 c 2,215,-1
 471 621 l 2,216,217
 467 621 467 621 465 620 c 2,218,-1
 453 616 l 2,219,220
 425 608 425 608 398 591 c 0,221,222
 343 560 343 560 306 512 c 1,223,-1
 306 512 l 1,224,225
 306 511 306 511 305 511 c 2,226,-1
 297 498 l 2,227,228
 296 498 296 498 296 496 c 2,229,-1
 294 495 l 2,230,231
 294 493 294 493 292 490 c 2,232,-1
 288 486 l 1,233,-1
 285 478 l 2,234,235
 284 477 284 477 281 472 c 2,236,-1
 279 469 l 1,237,-1
 279 468 l 1,238,-1
 268 446 l 2,239,240
 268 445 268 445 267 444 c 0,241,242
 244 388 244 388 244 326 c 0,243,244
 244 298 244 298 250 265 c 1,245,-1
 250 264 l 2,246,247
 252 257 252 257 252 253 c 2,248,-1
 260 229 l 2,249,250
 268 201 268 201 285 174 c 0,251,252
 316 119 316 119 364 82 c 0,253,254
 365 82 365 82 365 81 c 2,255,-1
 378 73 l 2,256,257
 378 72 378 72 380 72 c 2,258,-1
 381 70 l 2,259,260
 383 70 383 70 386 68 c 2,261,-1
 390 64 l 1,262,-1
 398 61 l 2,263,264
 399 60 399 60 404 57 c 2,265,-1
 407 55 l 1,266,-1
 408 55 l 1,267,-1
 430 44 l 2,268,269
 432 44 432 44 432 43 c 0,270,271
 490 20 490 20 550 20 c 0,130,131
550 290 m 2,272,273
 549 290 549 290 548 290 c 2,274,-1
 534 294 l 1,275,-1
 525 301 l 2,276,277
 521 305 521 305 518.5 308.5 c 128,-1,278
 516 312 516 312 515 316 c 2,279,-1
 514 325 l 1,280,-1
 514 328 l 1,281,-1
 518 342 l 1,282,-1
 525 352 l 2,283,284
 529 354 529 354 532 357 c 2,285,-1
 740 477 l 2,286,287
 753 484 753 484 767.5 480.5 c 128,-1,288
 782 477 782 477 789 464 c 128,-1,289
 796 451 796 451 792.5 436.5 c 128,-1,290
 789 422 789 422 776 415 c 2,291,-1
 568 295 l 2,292,293
 564 293 564 293 560 291 c 2,294,-1
 550 290 l 2,272,273
EndSplineSet
EndChar

StartChar: 02:15
Encoding: 59419 59419 28
Width: 1100
VWidth: 834
GlyphClass: 1
Flags: W
LayerCount: 2
Fore
SplineSet
550 -52 m 2,0,1
 453 -52 453 -52 369 -5 c 2,2,-1
 362 -2 l 2,3,4
 360 0 360 0 354 3 c 0,5,6
 272 51 272 51 222 138 c 1,7,-1
 219 145 l 2,8,9
 218 146 218 146 218 146.5 c 128,-1,10
 218 147 218 147 218 147 c 1,11,-1
 208 164 l 1,12,13
 208 164 208 164 208 164 c 1,14,-1
 203 177 l 2,15,16
 201 179 201 179 201 180.5 c 128,-1,17
 201 182 201 182 201 182 c 1,18,-1
 188 219 l 1,19,20
 188 219 188 219 188 219 c 1,21,-1
 185 229 l 2,22,23
 183 234 183 234 183 237 c 2,24,-1
 180 246 l 2,25,26
 180 250 180 250 178 256 c 0,27,28
 178 261 178 261 177 264 c 2,29,-1
 174 282 l 2,30,31
 174 292 174 292 173 295 c 1,32,33
 173 295 173 295 173 295 c 1,34,-1
 172 315 l 1,35,-1
 172 315 l 1,36,-1
 172 326 l 2,37,38
 172 423 172 423 219 507 c 2,39,-1
 222 514 l 2,40,41
 224 516 224 516 226 520 c 2,42,-1
 227 523 l 1,43,44
 276 603 276 603 362 654 c 1,45,-1
 369 657 l 2,46,47
 370 658 370 658 370.5 658 c 128,-1,48
 371 658 371 658 371 658 c 1,49,-1
 388 668 l 1,50,51
 388 668 388 668 388 668 c 1,52,-1
 401 673 l 2,53,54
 403 675 403 675 404.5 675 c 128,-1,55
 406 675 406 675 406 675 c 2,56,57
 408 677 408 677 416 679 c 2,58,-1
 443 688 l 1,59,60
 443 688 443 688 443 688 c 1,61,62
 448 690 448 690 453 691.5 c 128,-1,63
 458 693 458 693 461 693 c 2,64,-1
 470 696 l 2,65,66
 474 696 474 696 480 698 c 0,67,68
 485 698 485 698 488 699 c 2,69,-1
 519 703 l 1,70,-1
 519 703 l 1,71,-1
 539 704 l 1,72,-1
 539 704 l 1,73,-1
 569 704 l 1,74,75
 655 699 655 699 731 657 c 2,76,-1
 738 654 l 2,77,78
 743 652 743 652 746 649 c 2,79,-1
 747 649 l 1,80,81
 827 600 827 600 878 516 c 1,82,-1
 881 507 l 2,83,84
 882 506 882 506 882 505 c 2,85,-1
 892 488 l 1,86,-1
 897 475 l 2,87,88
 899 473 899 473 899 470 c 0,89,90
 901 465 901 465 904 458 c 2,91,-1
 912 433 l 2,92,93
 914 428 914 428 915 424 c 0,94,95
 917 417 917 417 917 415 c 2,96,-1
 920 406 l 2,97,98
 920 402 920 402 922 396 c 0,99,100
 922 391 922 391 923 388 c 2,101,-1
 928 338 l 1,102,-1
 928 307 l 1,103,104
 923 221 923 221 881 145 c 2,105,-1
 878 138 l 1,106,-1
 873 130 l 1,107,108
 825 48 825 48 740 -2 c 1,109,-1
 731 -5 l 2,110,111
 730 -6 730 -6 729 -6 c 2,112,-1
 712 -16 l 1,113,-1
 699 -21 l 2,114,115
 697 -23 697 -23 694 -23 c 2,116,-1
 689 -26 l 2,117,118
 684 -27 684 -27 682 -28 c 2,119,-1
 665 -34 l 1,120,-1
 630 -44 l 2,121,122
 628 -44 628 -44 625 -44.5 c 128,-1,123
 622 -45 622 -45 620 -46 c 0,124,125
 615 -46 615 -46 612 -47 c 2,126,-1
 608 -47 l 2,127,128
 606 -48 606 -48 600 -48 c 2,129,-1
 594 -50 l 2,130,131
 586 -50 586 -50 581 -51 c 2,132,-1
 562 -52 l 1,133,-1
 550 -52 l 2,0,1
550 20 m 0,134,135
 578 20 578 20 611 26 c 1,136,-1
 612 26 l 2,137,138
 619 28 619 28 623 28 c 2,139,-1
 629 31 l 1,140,-1
 635 32 l 1,141,142
 635 32 635 32 635 32 c 1,143,-1
 646 36 l 1,144,145
 646 36 646 36 646 36 c 1,146,-1
 647 36 l 1,147,148
 673 44 673 44 704 61 c 0,149,150
 758 93 758 93 794 140 c 1,151,-1
 794 141 l 1,152,-1
 795 141 l 1,153,-1
 803 154 l 1,154,155
 803 154 803 154 803 154 c 1,156,157
 805 156 805 156 808 162 c 2,158,-1
 812 166 l 1,159,160
 812 166 812 166 812 166 c 1,161,-1
 815 174 l 2,162,163
 816 175 816 175 819 180 c 1,164,165
 819 180 819 180 819 180 c 1,166,167
 821 182 821 182 821 184 c 2,168,-1
 832 206 l 2,169,170
 832 208 832 208 833 208 c 0,171,172
 845 239 845 239 850 265 c 2,173,-1
 852 279 l 2,174,175
 856 303 856 303 856 326 c 0,176,177
 856 354 856 354 850 387 c 1,178,-1
 850 388 l 2,179,180
 848 395 848 395 848 399 c 2,181,-1
 845 405 l 2,182,183
 845 409 845 409 844 411 c 1,184,185
 844 411 844 411 844 411 c 1,186,-1
 840 422 l 1,187,188
 840 422 840 422 840 422 c 1,189,-1
 840 423 l 1,190,191
 832 449 832 449 815 480 c 0,192,193
 783 534 783 534 736 570 c 1,194,195
 736 570 736 570 735.5 570 c 128,-1,196
 735 570 735 570 735 571 c 1,197,-1
 735 571 l 1,198,-1
 722 579 l 1,199,200
 722 579 722 579 722 579 c 1,201,202
 720 581 720 581 714 584 c 2,203,-1
 710 588 l 1,204,205
 710 588 710 588 710 588 c 1,206,-1
 702 591 l 2,207,208
 701 592 701 592 696 595 c 1,209,210
 696 595 696 595 696 595 c 1,211,212
 694 597 694 597 692 597 c 2,213,-1
 670 608 l 1,214,215
 670 608 670 608 669.5 608 c 128,-1,216
 669 608 669 608 668 609 c 0,217,218
 638 621 638 621 612 626 c 0,219,220
 581 631 581 631 566 632 c 2,221,-1
 550 632 l 2,222,223
 522 632 522 632 489 626 c 1,224,-1
 488 626 l 2,225,226
 481 624 481 624 477 624 c 2,227,-1
 471 621 l 2,228,229
 467 621 467 621 465 620 c 2,230,-1
 454 616 l 1,231,232
 454 616 454 616 454 616 c 1,233,-1
 453 616 l 1,234,235
 425 608 425 608 398 591 c 0,236,237
 343 560 343 560 306 512 c 1,238,239
 306 512 306 512 306 511.5 c 128,-1,240
 306 511 306 511 305 511 c 2,241,-1
 288 486 l 1,242,-1
 285 478 l 2,243,244
 284 477 284 477 281 472 c 2,245,-1
 268 446 l 2,246,247
 268 445 268 445 267 444 c 0,248,249
 244 388 244 388 244 326 c 2,250,-1
 244 310 l 2,251,252
 245 292 245 292 250 265 c 1,253,-1
 250 264 l 2,254,255
 252 257 252 257 252 253 c 2,256,-1
 260 230 l 1,257,258
 260 230 260 230 260 230 c 1,259,-1
 260 229 l 1,260,261
 268 201 268 201 285 174 c 0,262,263
 316 119 316 119 364 82 c 1,264,-1
 365 82 l 1,265,-1
 365 81 l 1,266,-1
 390 64 l 1,267,-1
 398 61 l 2,268,269
 399 60 399 60 404 57 c 2,270,-1
 430 44 l 2,271,272
 432 44 432 44 432 43 c 0,273,274
 490 20 490 20 550 20 c 0,134,135
550 290 m 2,275,276
 549 290 549 290 548 290 c 2,277,-1
 534 294 l 1,278,-1
 525 301 l 2,279,280
 521 305 521 305 518.5 308.5 c 128,-1,281
 516 312 516 312 515 316 c 2,282,-1
 514 325 l 1,283,-1
 514 328 l 1,284,-1
 518 342 l 1,285,-1
 525 352 l 2,286,287
 529 354 529 354 532 357 c 2,288,-1
 668 435 l 2,289,290
 681 442 681 442 695.5 438.5 c 128,-1,291
 710 435 710 435 717 422 c 128,-1,292
 724 409 724 409 720.5 394.5 c 128,-1,293
 717 380 717 380 704 373 c 2,294,-1
 684 362 l 1,295,-1
 790 362 l 2,296,297
 804 362 804 362 815 351 c 128,-1,298
 826 340 826 340 826 326 c 128,-1,299
 826 312 826 312 815 301 c 128,-1,300
 804 290 804 290 790 290 c 2,301,-1
 550 290 l 2,275,276
EndSplineSet
EndChar

StartChar: 02:20
Encoding: 59420 59420 29
Width: 1100
VWidth: 834
GlyphClass: 1
Flags: W
LayerCount: 2
Fore
SplineSet
550 -52 m 2,0,1
 545 -52 545 -52 540 -52 c 2,2,-1
 519 -51 l 2,3,4
 515 -50 515 -50 506 -50 c 2,5,-1
 488 -47 l 2,6,7
 486 -46 486 -46 480 -46 c 0,8,9
 473 -44 473 -44 470 -44 c 2,10,-1
 461 -41 l 2,11,12
 457 -41 457 -41 453 -39 c 2,13,-1
 424 -30 l 1,14,-1
 406 -23 l 2,15,16
 404 -23 404 -23 401 -21 c 2,17,-1
 388 -16 l 1,18,-1
 371 -6 l 2,19,20
 370 -6 370 -6 369 -5 c 2,21,-1
 353 3 l 2,22,23
 353 4 353 4 351 4 c 2,24,-1
 335 15 l 2,25,26
 328 20 328 20 324 24 c 0,27,28
 322 25 322 25 320 27 c 0,29,30
 313 32 313 32 310 34 c 2,31,-1
 304 39 l 2,32,33
 299 44 299 44 296 46 c 2,34,-1
 290 52 l 1,35,-1
 282 58 l 1,36,-1
 270 72 l 2,37,38
 268 76 268 76 263 80 c 2,39,-1
 258 86 l 2,40,41
 256 88 256 88 251 96 c 0,42,43
 249 98 249 98 248 100 c 0,44,45
 244 104 244 104 239 111 c 2,46,-1
 228 127 l 2,47,48
 228 129 228 129 227 129 c 2,49,-1
 219 145 l 2,50,51
 218 146 218 146 218 147 c 2,52,-1
 208 164 l 1,53,-1
 203 177 l 2,54,55
 201 179 201 179 201 182 c 2,56,-1
 190 211 l 1,57,-1
 185 229 l 2,58,59
 183 234 183 234 183 237 c 2,60,-1
 180 246 l 2,61,62
 180 250 180 250 178 256 c 0,63,64
 178 261 178 261 177 264 c 2,65,-1
 174 282 l 2,66,67
 174 292 174 292 173 295 c 2,68,-1
 172 315 l 1,69,-1
 172 336 l 1,70,-1
 173 357 l 2,71,72
 174 362 174 362 174 370 c 2,73,-1
 177 388 l 2,74,75
 178 390 178 390 178 396 c 0,76,77
 180 403 180 403 180 406 c 2,78,-1
 183 415 l 2,79,80
 183 417 183 417 185 424 c 2,81,-1
 196 458 l 2,82,83
 197 460 197 460 198 465 c 2,84,-1
 201 470 l 2,85,86
 201 472 201 472 203 475 c 2,87,-1
 208 488 l 1,88,-1
 218 505 l 2,89,90
 218 506 218 506 219 507 c 2,91,-1
 222 516 l 2,92,93
 224 518 224 518 227 523 c 0,94,95
 228 524 228 524 228 525 c 2,96,-1
 248 553 l 1,97,-1
 251 556 l 2,98,99
 256 563 256 563 258 566 c 2,100,-1
 270 580 l 2,101,102
 271 581 271 581 274 584 c 2,103,-1
 276 586 l 1,104,-1
 282 594 l 2,105,106
 287 599 287 599 290 600 c 2,107,-1
 296 606 l 2,108,109
 300 608 300 608 304 612 c 128,-1,110
 308 616 308 616 310 618 c 128,-1,111
 312 620 312 620 320 625 c 0,112,113
 322 627 322 627 324 628 c 0,114,115
 328 632 328 632 335 637 c 2,116,-1
 356 650 l 2,117,118
 360 652 360 652 362 654 c 2,119,-1
 369 657 l 2,120,121
 370 658 370 658 371 658 c 2,122,-1
 388 668 l 1,123,-1
 401 673 l 2,124,125
 403 675 403 675 405.5 676.5 c 128,-1,126
 408 678 408 678 416 679 c 2,127,-1
 443 688 l 2,128,129
 448 690 448 690 453 691.5 c 128,-1,130
 458 693 458 693 461 693 c 2,131,-1
 470 696 l 2,132,133
 474 696 474 696 480 698 c 0,134,135
 485 698 485 698 488 699 c 2,136,-1
 539 704 l 1,137,-1
 560 704 l 1,138,-1
 581 703 l 1,139,-1
 612 699 l 2,140,141
 614 698 614 698 620 698 c 0,142,143
 627 696 627 696 630 696 c 2,144,-1
 639 693 l 2,145,146
 641 693 641 693 648 691 c 0,147,148
 652 691 652 691 657 688 c 2,149,-1
 682 680 l 2,150,151
 689 678 689 678 694 675 c 0,152,153
 696 675 696 675 699 673 c 2,154,-1
 712 668 l 1,155,-1
 729 658 l 2,156,157
 730 658 730 658 731 657 c 2,158,-1
 740 654 l 1,159,-1
 777 628 l 1,160,-1
 780 625 l 2,161,162
 787 620 787 620 789.5 618 c 128,-1,163
 792 616 792 616 796 613 c 2,164,-1
 804 606 l 2,165,166
 805 605 805 605 808 602 c 2,167,-1
 810 600 l 2,168,169
 812 599 812 599 817 594 c 128,-1,170
 822 589 822 589 824 586 c 2,171,-1
 826 584 l 2,172,173
 828 582 828 582 830 580 c 2,174,-1
 837 572 l 2,175,176
 841 568 841 568 842.5 566 c 128,-1,177
 844 564 844 564 849 556 c 2,178,-1
 852 553 l 1,179,-1
 878 516 l 1,180,-1
 881 507 l 2,181,182
 882 506 882 506 882 505 c 2,183,-1
 892 488 l 1,184,-1
 897 475 l 2,185,186
 899 473 899 473 899 470 c 0,187,188
 901 465 901 465 904 458 c 2,189,-1
 912 433 l 2,190,191
 914 428 914 428 915 424 c 0,192,193
 917 417 917 417 917 415 c 2,194,-1
 920 406 l 2,195,196
 920 402 920 402 922 396 c 0,197,198
 922 391 922 391 923 388 c 2,199,-1
 928 338 l 1,200,-1
 928 316 l 1,201,-1
 927 295 l 1,202,-1
 923 264 l 2,203,204
 922 262 922 262 922 256 c 0,205,206
 920 249 920 249 920 246 c 2,207,-1
 917 237 l 2,208,209
 917 233 917 233 916 228.5 c 128,-1,210
 915 224 915 224 912 219 c 2,211,-1
 903 192 l 2,212,213
 902 185 902 185 900.5 182.5 c 128,-1,214
 899 180 899 180 897 177 c 2,215,-1
 892 164 l 1,216,-1
 882 147 l 2,217,218
 882 146 882 146 881 145 c 2,219,-1
 878 138 l 2,220,221
 877 136 877 136 874 132 c 2,222,-1
 861 111 l 2,223,224
 856 104 856 104 852 100 c 0,225,226
 851 98 851 98 849 96 c 0,227,228
 844 89 844 89 842 86.5 c 128,-1,229
 840 84 840 84 836 79.5 c 128,-1,230
 832 75 832 75 830 72 c 2,231,-1
 824 66 l 2,232,233
 823 64 823 64 818 58 c 2,234,-1
 808 50 l 2,235,236
 806 48 806 48 804 46 c 2,237,-1
 790 34 l 2,238,239
 788 32 788 32 780 27 c 2,240,-1
 777 24 l 1,241,-1
 749 4 l 2,242,243
 748 4 748 4 747 3 c 0,244,245
 742 1 742 1 740 -2 c 2,246,-1
 731 -5 l 2,247,248
 730 -6 730 -6 729 -6 c 2,249,-1
 712 -16 l 1,250,-1
 699 -21 l 2,251,252
 697 -23 697 -23 694 -23 c 2,253,-1
 689 -26 l 2,254,255
 684 -27 684 -27 682 -28 c 2,256,-1
 648 -39 l 2,257,258
 641 -41 641 -41 639 -41 c 2,259,-1
 630 -44 l 2,260,261
 626 -44 626 -44 620 -46 c 0,262,263
 615 -46 615 -46 612 -47 c 2,264,-1
 594 -50 l 2,265,266
 586 -50 586 -50 581 -51 c 2,267,-1
 562 -52 l 1,268,-1
 550 -52 l 2,0,1
550 20 m 256,269,270
 578 20 578 20 611 26 c 1,271,-1
 612 26 l 2,272,273
 619 28 619 28 623 28 c 2,274,-1
 647 36 l 2,275,276
 673 44 673 44 702.5 61 c 128,-1,277
 732 78 732 78 753 97 c 2,278,-1
 754 98 l 2,279,280
 759 103 759 103 762 105.5 c 128,-1,281
 765 108 765 108 766.5 109.5 c 128,-1,282
 768 111 768 111 770.5 114 c 128,-1,283
 773 117 773 117 778 122 c 0,284,285
 779 122 779 122 779 123 c 1,286,-1
 779 123 l 1,287,288
 802 149 802 149 815 174 c 0,289,290
 832 202 832 202 840 229 c 2,291,-1
 844 241 l 2,292,293
 845 243 845 243 845 247 c 2,294,-1
 848 253 l 2,295,296
 848 257 848 257 850 264 c 2,297,-1
 850 265 l 1,298,299
 856 299 856 299 856 326.5 c 128,-1,300
 856 354 856 354 850 387 c 1,301,-1
 850 388 l 2,302,303
 848 395 848 395 848 399 c 2,304,-1
 845 405 l 2,305,306
 845 409 845 409 844 411 c 2,307,-1
 840 423 l 2,308,309
 832 449 832 449 815 478.5 c 128,-1,310
 798 508 798 508 779 529 c 1,311,-1
 779 530 l 1,312,313
 779 530 779 530 778 530 c 0,314,315
 773 535 773 535 770.5 538 c 128,-1,316
 768 541 768 541 766.5 542.5 c 128,-1,317
 765 544 765 544 762 546.5 c 128,-1,318
 759 549 759 549 754 554 c 0,319,320
 754 555 754 555 754 555 c 1,321,-1
 753 555 l 1,322,323
 733 574 733 574 703.5 591 c 128,-1,324
 674 608 674 608 647 616 c 2,325,-1
 635 620 l 2,326,327
 633 621 633 621 629 621 c 2,328,-1
 623 624 l 2,329,330
 619 624 619 624 612 626 c 2,331,-1
 611 626 l 1,332,333
 577 632 577 632 549.5 632 c 128,-1,334
 522 632 522 632 489 626 c 1,335,-1
 488 626 l 2,336,337
 481 624 481 624 477 624 c 2,338,-1
 471 621 l 2,339,340
 467 621 467 621 465 620 c 2,341,-1
 453 616 l 2,342,343
 425 608 425 608 398 591 c 0,344,345
 374 578 374 578 347 555 c 1,346,-1
 347 555 l 1,347,348
 346 555 346 555 346 554 c 0,349,350
 341 549 341 549 338 546.5 c 128,-1,351
 335 544 335 544 333.5 542.5 c 128,-1,352
 332 541 332 541 329.5 538 c 128,-1,353
 327 535 327 535 322 530 c 2,354,-1
 321 529 l 2,355,356
 302 509 302 509 285 479.5 c 128,-1,357
 268 450 268 450 260 423 c 2,358,-1
 256 411 l 1,359,-1
 255 405 l 1,360,-1
 252 399 l 2,361,362
 252 395 252 395 250 388 c 2,363,-1
 250 387 l 1,364,365
 244 353 244 353 244 325.5 c 128,-1,366
 244 298 244 298 250 265 c 1,367,-1
 250 264 l 2,368,369
 252 257 252 257 252 253 c 2,370,-1
 260 229 l 2,371,372
 268 201 268 201 285 174 c 0,373,374
 298 150 298 150 321 123 c 2,375,-1
 322 122 l 2,376,377
 327 117 327 117 329.5 114 c 128,-1,378
 332 111 332 111 333.5 109.5 c 128,-1,379
 335 108 335 108 338 105.5 c 128,-1,380
 341 103 341 103 346 98 c 2,381,-1
 347 97 l 2,382,383
 373 74 373 74 398 61 c 0,384,385
 426 44 426 44 453 36 c 2,386,-1
 465 32 l 1,387,-1
 471 31 l 1,388,-1
 477 28 l 2,389,390
 481 28 481 28 488 26 c 2,391,-1
 489 26 l 1,392,393
 522 20 522 20 550 20 c 256,269,270
758 170 m 256,394,395
 748 170 748 170 740 175 c 2,396,-1
 532 295 l 1,397,-1
 525 301 l 2,398,399
 521 305 521 305 518.5 308.5 c 128,-1,400
 516 312 516 312 515 316 c 2,401,-1
 514 325 l 1,402,-1
 514 328 l 1,403,-1
 518 342 l 1,404,-1
 525 352 l 2,405,406
 529 354 529 354 532 357 c 2,407,-1
 668 435 l 2,408,409
 681 442 681 442 695.5 438.5 c 128,-1,410
 710 435 710 435 717 422 c 128,-1,411
 724 409 724 409 720.5 394.5 c 128,-1,412
 717 380 717 380 704 373 c 2,413,-1
 622 326 l 1,414,-1
 776 237 l 2,415,416
 789 230 789 230 792.5 215.5 c 128,-1,417
 796 201 796 201 789 188 c 0,418,419
 784 180 784 180 776 175 c 128,-1,420
 768 170 768 170 758 170 c 256,394,395
EndSplineSet
EndChar

StartChar: 02:25
Encoding: 59421 59421 30
Width: 1100
VWidth: 834
GlyphClass: 1
Flags: W
LayerCount: 2
Fore
SplineSet
550 -52 m 2,0,1
 453 -52 453 -52 369 -5 c 2,2,-1
 362 -2 l 1,3,-1
 360 0 l 2,4,5
 359 1 359 1 354 3 c 0,6,7
 272 51 272 51 222 138 c 1,8,-1
 219 145 l 1,9,10
 219 145 219 145 218.5 145.5 c 128,-1,11
 218 146 218 146 218 147 c 2,12,-1
 208 164 l 1,13,-1
 203 177 l 1,14,15
 203 177 203 177 203 177 c 1,16,17
 201 179 201 179 201 182 c 2,18,-1
 190 211 l 1,19,20
 190 211 190 211 190 211 c 1,21,-1
 185 229 l 2,22,23
 183 234 183 234 183 237 c 2,24,-1
 180 246 l 2,25,26
 180 250 180 250 178 256 c 0,27,28
 178 261 178 261 177 264 c 2,29,-1
 174 282 l 2,30,31
 174 292 174 292 173 295 c 2,32,-1
 173 300 l 1,33,34
 173 300 173 300 173 300 c 1,35,-1
 172 315 l 1,36,-1
 172 326 l 2,37,38
 172 423 172 423 219 507 c 1,39,-1
 222 516 l 1,40,41
 222 516 222 516 224 516 c 2,42,-1
 227 523 l 1,43,44
 276 603 276 603 362 654 c 1,45,-1
 369 657 l 1,46,47
 369 657 369 657 369.5 657.5 c 128,-1,48
 370 658 370 658 371 658 c 2,49,-1
 388 668 l 1,50,-1
 401 673 l 1,51,52
 401 673 401 673 401 673 c 1,53,54
 403 675 403 675 405.5 676.5 c 128,-1,55
 408 678 408 678 416 679 c 2,56,-1
 435 686 l 1,57,58
 435 686 435 686 435 686 c 1,59,-1
 443 688 l 2,60,61
 448 690 448 690 453 691.5 c 128,-1,62
 458 693 458 693 461 693 c 2,63,-1
 470 696 l 2,64,65
 474 696 474 696 480 698 c 0,66,67
 485 698 485 698 488 699 c 2,68,-1
 524 703 l 1,69,70
 524 703 524 703 524 703 c 1,71,-1
 539 704 l 1,72,-1
 550 704 l 2,73,74
 647 704 647 704 731 657 c 2,75,-1
 747 649 l 1,76,77
 827 600 827 600 878 516 c 1,78,-1
 881 507 l 2,79,80
 882 506 882 506 882 505 c 2,81,-1
 892 488 l 1,82,-1
 897 475 l 2,83,84
 899 473 899 473 899 470 c 0,85,86
 901 465 901 465 904 458 c 2,87,-1
 912 433 l 2,88,89
 914 428 914 428 915 424 c 0,90,91
 917 417 917 417 917 415 c 2,92,-1
 920 406 l 2,93,94
 920 402 920 402 922 396 c 0,95,96
 922 391 922 391 923 388 c 2,97,-1
 928 338 l 1,98,-1
 928 326 l 2,99,100
 928 229 928 229 881 145 c 2,101,-1
 878 138 l 1,102,-1
 873 130 l 1,103,104
 825 48 825 48 740 -2 c 1,105,-1
 731 -5 l 2,106,107
 730 -6 730 -6 729 -6 c 2,108,-1
 712 -16 l 1,109,-1
 699 -21 l 2,110,111
 697 -23 697 -23 694 -23 c 2,112,-1
 689 -26 l 2,113,114
 684 -27 684 -27 682 -28 c 2,115,-1
 648 -39 l 2,116,117
 641 -41 641 -41 639 -41 c 2,118,-1
 630 -44 l 2,119,120
 626 -44 626 -44 620 -46 c 0,121,122
 615 -46 615 -46 612 -47 c 2,123,-1
 594 -50 l 2,124,125
 586 -50 586 -50 581 -51 c 2,126,-1
 562 -52 l 1,127,128
 562 -52 562 -52 562 -52 c 1,129,-1
 550 -52 l 2,0,1
550 20 m 0,130,131
 578 20 578 20 611 26 c 1,132,-1
 612 26 l 2,133,134
 619 28 619 28 623 28 c 2,135,-1
 629 31 l 1,136,137
 629 31 629 31 629 31 c 1,138,-1
 646 36 l 1,139,140
 646 36 646 36 646 36 c 1,141,-1
 647 36 l 1,142,143
 673 44 673 44 704 61 c 0,144,145
 758 93 758 93 794 140 c 1,146,147
 794 140 794 140 794 140.5 c 128,-1,148
 794 141 794 141 795 141 c 2,149,-1
 801 151 l 1,150,151
 801 151 801 151 801 151 c 1,152,153
 803 153 803 153 803.5 153.5 c 128,-1,154
 804 154 804 154 804 156 c 2,155,-1
 812 166 l 1,156,-1
 815 174 l 1,157,158
 815 174 815 174 815.5 174.5 c 128,-1,159
 816 175 816 175 819 180 c 2,160,-1
 821 183 l 1,161,-1
 821 184 l 1,162,-1
 832 206 l 2,163,164
 832 208 832 208 832.5 208 c 128,-1,165
 833 208 833 208 833 208 c 1,166,167
 856 266 856 266 856 326 c 0,168,169
 856 354 856 354 850 387 c 1,170,-1
 850 388 l 2,171,172
 848 395 848 395 848 399 c 2,173,-1
 845 405 l 1,174,175
 845 405 845 405 845 405 c 1,176,177
 845 409 845 409 844 411 c 2,178,-1
 840 422 l 1,179,180
 840 422 840 422 840 422 c 1,181,-1
 840 423 l 1,182,183
 832 449 832 449 815 480 c 0,184,185
 783 534 783 534 736 570 c 1,186,187
 736 570 736 570 736 570 c 1,188,-1
 736 570 l 1,189,190
 735 570 735 570 735 571 c 2,191,-1
 725 577 l 1,192,193
 725 577 725 577 725 577 c 1,194,195
 723 579 723 579 722.5 579.5 c 128,-1,196
 722 580 722 580 720 580 c 2,197,-1
 710 588 l 1,198,-1
 702 591 l 1,199,200
 702 591 702 591 701.5 591.5 c 128,-1,201
 701 592 701 592 696 595 c 2,202,-1
 693 597 l 1,203,-1
 692 597 l 1,204,-1
 670 608 l 2,205,206
 669 608 669 608 668.5 608.5 c 128,-1,207
 668 609 668 609 668 609 c 1,208,209
 612 632 612 632 550 632 c 0,210,211
 522 632 522 632 489 626 c 1,212,-1
 488 626 l 2,213,214
 481 624 481 624 477 624 c 2,215,-1
 471 621 l 2,216,217
 467 621 467 621 465 620 c 2,218,-1
 453 616 l 2,219,220
 425 608 425 608 398 591 c 0,221,222
 343 560 343 560 306 512 c 1,223,-1
 306 512 l 1,224,225
 306 511 306 511 305 511 c 2,226,-1
 297 498 l 2,227,228
 296 498 296 498 296 496 c 2,229,-1
 294 495 l 2,230,231
 294 493 294 493 292 490 c 2,232,-1
 288 486 l 1,233,-1
 285 478 l 2,234,235
 284 477 284 477 281 472 c 2,236,-1
 279 469 l 1,237,-1
 279 468 l 1,238,-1
 268 446 l 2,239,240
 268 445 268 445 267 444 c 0,241,242
 244 388 244 388 244 326 c 0,243,244
 244 298 244 298 250 265 c 1,245,-1
 250 264 l 2,246,247
 252 257 252 257 252 253 c 2,248,-1
 260 229 l 2,249,250
 268 201 268 201 285 174 c 0,251,252
 316 119 316 119 364 82 c 0,253,254
 365 82 365 82 365 81 c 2,255,-1
 378 73 l 2,256,257
 378 72 378 72 380 72 c 2,258,-1
 381 70 l 2,259,260
 383 70 383 70 386 68 c 2,261,-1
 390 64 l 1,262,-1
 398 61 l 2,263,264
 399 60 399 60 404 57 c 2,265,-1
 407 55 l 1,266,-1
 408 55 l 1,267,-1
 430 44 l 2,268,269
 432 44 432 44 432 43 c 0,270,271
 490 20 490 20 550 20 c 0,130,131
670 82 m 256,272,273
 660 82 660 82 652 87 c 128,-1,274
 644 92 644 92 639 100 c 2,275,-1
 519 308 l 2,276,277
 517 312 517 312 515 316 c 2,278,-1
 514 325 l 1,279,-1
 514 328 l 1,280,-1
 518 342 l 1,281,-1
 525 352 l 2,282,283
 529 354 529 354 532 357 c 2,284,-1
 668 435 l 2,285,286
 681 442 681 442 695.5 438.5 c 128,-1,287
 710 435 710 435 717 422 c 128,-1,288
 724 409 724 409 720.5 394.5 c 128,-1,289
 717 380 717 380 704 373 c 2,290,-1
 599 313 l 1,291,-1
 701 136 l 2,292,293
 708 123 708 123 704.5 108.5 c 128,-1,294
 701 94 701 94 688 87 c 0,295,296
 680 82 680 82 670 82 c 256,272,273
EndSplineSet
EndChar

StartChar: 02:30
Encoding: 59422 59422 31
Width: 1100
VWidth: 834
GlyphClass: 1
Flags: W
LayerCount: 2
Fore
SplineSet
550 -52 m 2,0,1
 453 -52 453 -52 369 -5 c 2,2,-1
 362 -2 l 2,3,4
 360 0 360 0 354 3 c 0,5,6
 272 51 272 51 222 138 c 1,7,-1
 219 145 l 2,8,9
 218 146 218 146 218 146.5 c 128,-1,10
 218 147 218 147 218 147 c 1,11,-1
 208 164 l 1,12,13
 208 164 208 164 208 164 c 1,14,-1
 203 177 l 2,15,16
 201 179 201 179 201 180.5 c 128,-1,17
 201 182 201 182 201 182 c 1,18,-1
 188 219 l 1,19,20
 188 219 188 219 188 219 c 1,21,-1
 185 229 l 2,22,23
 183 234 183 234 183 237 c 2,24,-1
 180 246 l 2,25,26
 180 250 180 250 178 256 c 0,27,28
 178 261 178 261 177 264 c 2,29,-1
 174 282 l 2,30,31
 174 292 174 292 173 295 c 1,32,33
 173 295 173 295 173 295 c 1,34,-1
 172 315 l 1,35,-1
 172 315 l 1,36,-1
 172 326 l 2,37,38
 172 423 172 423 219 507 c 2,39,-1
 222 514 l 2,40,41
 224 516 224 516 226 520 c 2,42,-1
 227 523 l 1,43,44
 276 603 276 603 362 654 c 1,45,-1
 369 657 l 2,46,47
 370 658 370 658 370.5 658 c 128,-1,48
 371 658 371 658 371 658 c 1,49,-1
 388 668 l 1,50,51
 388 668 388 668 388 668 c 1,52,-1
 401 673 l 2,53,54
 403 675 403 675 404.5 675 c 128,-1,55
 406 675 406 675 406 675 c 2,56,57
 408 677 408 677 416 679 c 2,58,-1
 443 688 l 1,59,60
 443 688 443 688 443 688 c 1,61,62
 448 690 448 690 453 691.5 c 128,-1,63
 458 693 458 693 461 693 c 2,64,-1
 470 696 l 2,65,66
 474 696 474 696 480 698 c 0,67,68
 485 698 485 698 488 699 c 2,69,-1
 519 703 l 1,70,-1
 519 703 l 1,71,-1
 539 704 l 1,72,-1
 539 704 l 1,73,-1
 569 704 l 1,74,75
 655 699 655 699 731 657 c 2,76,-1
 738 654 l 2,77,78
 743 652 743 652 746 649 c 2,79,-1
 747 649 l 1,80,81
 827 600 827 600 878 516 c 1,82,-1
 881 507 l 2,83,84
 882 506 882 506 882 505 c 2,85,-1
 892 488 l 1,86,-1
 897 475 l 2,87,88
 899 473 899 473 899 470 c 0,89,90
 901 465 901 465 904 458 c 2,91,-1
 912 433 l 2,92,93
 914 428 914 428 915 424 c 0,94,95
 917 417 917 417 917 415 c 2,96,-1
 920 406 l 2,97,98
 920 402 920 402 922 396 c 0,99,100
 922 391 922 391 923 388 c 2,101,-1
 928 338 l 1,102,-1
 928 307 l 1,103,104
 923 221 923 221 881 145 c 2,105,-1
 878 138 l 1,106,-1
 873 130 l 1,107,108
 825 48 825 48 740 -2 c 1,109,-1
 731 -5 l 2,110,111
 730 -6 730 -6 729 -6 c 2,112,-1
 712 -16 l 1,113,-1
 699 -21 l 2,114,115
 697 -23 697 -23 694 -23 c 2,116,-1
 689 -26 l 2,117,118
 684 -27 684 -27 682 -28 c 2,119,-1
 665 -34 l 1,120,-1
 630 -44 l 2,121,122
 628 -44 628 -44 625 -44.5 c 128,-1,123
 622 -45 622 -45 620 -46 c 0,124,125
 615 -46 615 -46 612 -47 c 2,126,-1
 608 -47 l 2,127,128
 606 -48 606 -48 600 -48 c 2,129,-1
 594 -50 l 2,130,131
 586 -50 586 -50 581 -51 c 2,132,-1
 562 -52 l 1,133,-1
 550 -52 l 2,0,1
550 20 m 0,134,135
 578 20 578 20 611 26 c 1,136,-1
 612 26 l 2,137,138
 619 28 619 28 623 28 c 2,139,-1
 629 31 l 1,140,-1
 635 32 l 1,141,142
 635 32 635 32 635 32 c 1,143,-1
 646 36 l 1,144,145
 646 36 646 36 646 36 c 1,146,-1
 647 36 l 1,147,148
 673 44 673 44 704 61 c 0,149,150
 758 93 758 93 794 140 c 1,151,-1
 794 141 l 1,152,-1
 795 141 l 1,153,-1
 803 154 l 1,154,155
 803 154 803 154 803 154 c 1,156,157
 805 156 805 156 808 162 c 2,158,-1
 812 166 l 1,159,160
 812 166 812 166 812 166 c 1,161,-1
 815 174 l 2,162,163
 816 175 816 175 819 180 c 1,164,165
 819 180 819 180 819 180 c 1,166,167
 821 182 821 182 821 184 c 2,168,-1
 832 206 l 2,169,170
 832 208 832 208 833 208 c 0,171,172
 845 239 845 239 850 265 c 2,173,-1
 852 279 l 2,174,175
 856 303 856 303 856 326 c 0,176,177
 856 354 856 354 850 387 c 1,178,-1
 850 388 l 2,179,180
 848 395 848 395 848 399 c 2,181,-1
 845 405 l 2,182,183
 845 409 845 409 844 411 c 1,184,185
 844 411 844 411 844 411 c 1,186,-1
 840 422 l 1,187,188
 840 422 840 422 840 422 c 1,189,-1
 840 423 l 1,190,191
 832 449 832 449 815 480 c 0,192,193
 783 534 783 534 736 570 c 1,194,195
 736 570 736 570 735.5 570 c 128,-1,196
 735 570 735 570 735 571 c 1,197,-1
 735 571 l 1,198,-1
 722 579 l 1,199,200
 722 579 722 579 722 579 c 1,201,202
 720 581 720 581 714 584 c 2,203,-1
 710 588 l 1,204,205
 710 588 710 588 710 588 c 1,206,-1
 702 591 l 2,207,208
 701 592 701 592 696 595 c 1,209,210
 696 595 696 595 696 595 c 1,211,212
 694 597 694 597 692 597 c 2,213,-1
 670 608 l 1,214,215
 670 608 670 608 669.5 608 c 128,-1,216
 669 608 669 608 668 609 c 0,217,218
 638 621 638 621 612 626 c 0,219,220
 581 631 581 631 566 632 c 2,221,-1
 550 632 l 2,222,223
 522 632 522 632 489 626 c 1,224,-1
 488 626 l 2,225,226
 481 624 481 624 477 624 c 2,227,-1
 471 621 l 2,228,229
 467 621 467 621 465 620 c 2,230,-1
 454 616 l 1,231,232
 454 616 454 616 454 616 c 1,233,-1
 453 616 l 1,234,235
 425 608 425 608 398 591 c 0,236,237
 343 560 343 560 306 512 c 1,238,239
 306 512 306 512 306 511.5 c 128,-1,240
 306 511 306 511 305 511 c 2,241,-1
 288 486 l 1,242,-1
 285 478 l 2,243,244
 284 477 284 477 281 472 c 2,245,-1
 268 446 l 2,246,247
 268 445 268 445 267 444 c 0,248,249
 244 388 244 388 244 326 c 2,250,-1
 244 310 l 2,251,252
 245 292 245 292 250 265 c 1,253,-1
 250 264 l 2,254,255
 252 257 252 257 252 253 c 2,256,-1
 260 230 l 1,257,258
 260 230 260 230 260 230 c 1,259,-1
 260 229 l 1,260,261
 268 201 268 201 285 174 c 0,262,263
 316 119 316 119 364 82 c 1,264,-1
 365 82 l 1,265,-1
 365 81 l 1,266,-1
 390 64 l 1,267,-1
 398 61 l 2,268,269
 399 60 399 60 404 57 c 2,270,-1
 430 44 l 2,271,272
 432 44 432 44 432 43 c 0,273,274
 490 20 490 20 550 20 c 0,134,135
550 50 m 256,275,276
 536 50 536 50 525 61 c 128,-1,277
 514 72 514 72 514 86 c 2,278,-1
 514 328 l 1,279,-1
 518 342 l 1,280,-1
 525 352 l 2,281,282
 529 354 529 354 532 357 c 2,283,-1
 668 435 l 2,284,285
 681 442 681 442 695.5 438.5 c 128,-1,286
 710 435 710 435 717 422 c 128,-1,287
 724 409 724 409 720.5 394.5 c 128,-1,288
 717 380 717 380 704 373 c 2,289,-1
 586 306 l 1,290,-1
 586 86 l 2,291,292
 586 72 586 72 575 61 c 128,-1,293
 564 50 564 50 550 50 c 256,275,276
EndSplineSet
EndChar

StartChar: 02:35
Encoding: 59423 59423 32
Width: 1100
VWidth: 834
GlyphClass: 1
Flags: W
LayerCount: 2
Fore
SplineSet
550 -52 m 0,0,1
 545 -52 545 -52 540 -52 c 2,2,-1
 519 -51 l 2,3,4
 515 -50 515 -50 506 -50 c 2,5,-1
 488 -47 l 2,6,7
 486 -46 486 -46 480 -46 c 0,8,9
 473 -44 473 -44 470 -44 c 2,10,-1
 461 -41 l 2,11,12
 457 -41 457 -41 453 -39 c 2,13,-1
 424 -30 l 1,14,-1
 406 -23 l 2,15,16
 404 -23 404 -23 401 -21 c 2,17,-1
 388 -16 l 1,18,-1
 371 -6 l 2,19,20
 370 -6 370 -6 369 -5 c 2,21,-1
 362 -2 l 1,22,23
 276 48 276 48 227 130 c 0,24,25
 225 135 225 135 222 138 c 2,26,-1
 219 145 l 2,27,28
 172 229 172 229 172 326 c 2,29,-1
 172 336 l 1,30,-1
 173 357 l 2,31,32
 174 362 174 362 174 370 c 2,33,-1
 177 388 l 2,34,35
 178 390 178 390 178 396 c 0,36,37
 180 403 180 403 180 406 c 2,38,-1
 183 415 l 2,39,40
 183 417 183 417 185 424 c 2,41,-1
 196 458 l 2,42,43
 197 460 197 460 198 465 c 2,44,-1
 201 470 l 2,45,46
 201 472 201 472 203 475 c 2,47,-1
 208 488 l 1,48,-1
 218 505 l 2,49,50
 218 506 218 506 219 507 c 2,51,-1
 222 516 l 1,52,53
 272 601 272 601 354 649 c 2,54,-1
 369 657 l 2,55,56
 453 704 453 704 550 704 c 2,57,-1
 560 704 l 1,58,-1
 581 703 l 1,59,-1
 612 699 l 2,60,61
 614 698 614 698 620 698 c 0,62,63
 627 696 627 696 630 696 c 2,64,-1
 639 693 l 2,65,66
 641 693 641 693 648 691 c 0,67,68
 652 691 652 691 657 688 c 2,69,-1
 682 680 l 2,70,71
 689 678 689 678 694 675 c 0,72,73
 696 675 696 675 699 673 c 2,74,-1
 712 668 l 1,75,-1
 729 658 l 2,76,77
 730 658 730 658 731 657 c 2,78,-1
 740 654 l 1,79,80
 824 604 824 604 873 523 c 1,81,-1
 881 507 l 2,82,83
 928 423 928 423 928 326 c 2,84,-1
 928 316 l 1,85,-1
 927 295 l 1,86,-1
 923 264 l 2,87,88
 922 262 922 262 922 256 c 0,89,90
 920 249 920 249 920 246 c 2,91,-1
 917 237 l 2,92,93
 917 233 917 233 916 228.5 c 128,-1,94
 915 224 915 224 912 219 c 2,95,-1
 903 192 l 2,96,97
 902 185 902 185 900.5 182.5 c 128,-1,98
 899 180 899 180 897 177 c 2,99,-1
 892 164 l 1,100,-1
 882 147 l 2,101,102
 882 146 882 146 881 145 c 2,103,-1
 878 138 l 1,104,105
 828 53 828 53 747 3 c 1,106,-1
 744 2 l 2,107,108
 740 1 740 1 738 -2 c 2,109,-1
 731 -5 l 2,110,111
 647 -52 647 -52 550 -52 c 0,0,1
550 20 m 0,112,113
 611 20 611 20 668 43 c 0,114,115
 669 44 669 44 670 44 c 2,116,-1
 696 57 l 2,117,118
 701 59 701 59 702 61 c 2,119,-1
 710 64 l 1,120,-1
 735 81 l 2,121,122
 735 82 735 82 736 82 c 1,123,-1
 736 82 l 1,124,125
 784 118 784 118 815 174 c 0,126,127
 832 202 832 202 840 229 c 2,128,-1
 844 241 l 2,129,130
 845 243 845 243 845 247 c 2,131,-1
 848 253 l 2,132,133
 848 257 848 257 850 264 c 2,134,-1
 850 265 l 1,135,136
 856 299 856 299 856 326 c 0,137,138
 856 387 856 387 833 444 c 0,139,140
 832 445 832 445 832 446 c 2,141,-1
 821 468 l 2,142,143
 821 470 821 470 818.5 473.5 c 128,-1,144
 816 477 816 477 815 478 c 2,145,-1
 812 486 l 1,146,-1
 808 490 l 2,147,148
 806 495 806 495 803 498 c 2,149,-1
 795 511 l 2,150,151
 794 511 794 511 794 512 c 1,152,-1
 794 512 l 1,153,154
 758 559 758 559 704 591 c 0,155,156
 674 608 674 608 647 616 c 2,157,-1
 635 620 l 2,158,159
 633 621 633 621 629 621 c 2,160,-1
 623 624 l 2,161,162
 619 624 619 624 612 626 c 2,163,-1
 611 626 l 1,164,165
 577 632 577 632 550 632 c 0,166,167
 490 632 490 632 432 609 c 0,168,169
 432 608 432 608 430 608 c 2,170,-1
 408 597 l 2,171,172
 406 597 406 597 402.5 594.5 c 128,-1,173
 399 592 399 592 398 591 c 2,174,-1
 390 588 l 1,175,-1
 386 584 l 2,176,177
 381 582 381 582 378 579 c 2,178,-1
 365 571 l 2,179,180
 365 570 365 570 364 570 c 0,181,182
 317 534 317 534 285 480 c 0,183,184
 268 450 268 450 260 423 c 2,185,-1
 256 411 l 1,186,-1
 255 405 l 1,187,-1
 252 399 l 2,188,189
 252 395 252 395 250 388 c 2,190,-1
 250 387 l 1,191,192
 244 353 244 353 244 326 c 2,193,-1
 244 310 l 2,194,195
 248 258 248 258 267 208 c 0,196,197
 268 208 268 208 268 206 c 2,198,-1
 281 180 l 2,199,200
 283 175 283 175 285 174 c 2,201,-1
 288 166 l 1,202,-1
 305 141 l 2,203,204
 306 141 306 141 306 140 c 0,205,206
 342 92 342 92 398 61 c 0,207,208
 426 44 426 44 453 36 c 2,209,-1
 465 32 l 1,210,-1
 471 31 l 1,211,-1
 477 28 l 2,212,213
 481 28 481 28 488 26 c 2,214,-1
 489 26 l 1,215,216
 522 20 522 20 550 20 c 0,112,113
430 82 m 256,217,218
 420 82 420 82 412 87 c 0,219,220
 399 94 399 94 395.5 108.5 c 128,-1,221
 392 123 392 123 399 136 c 2,222,-1
 519 344 l 1,223,-1
 524 350 l 1,224,-1
 531 356 l 1,225,-1
 542 361 l 2,226,227
 546 362 546 362 550 362 c 2,228,-1
 706 362 l 2,229,230
 720 362 720 362 731 351 c 128,-1,231
 742 340 742 340 742 326 c 128,-1,232
 742 312 742 312 731 301 c 128,-1,233
 720 290 720 290 706 290 c 2,234,-1
 570 290 l 1,235,-1
 461 100 l 2,236,237
 456 92 456 92 448 87 c 128,-1,238
 440 82 440 82 430 82 c 256,217,218
EndSplineSet
EndChar

